{
.appVersion = "926";
copyright = "(C) 2008-2014 Andrey V. Panov (panov@canopus.iacp.dvo.ru), with Reserved Font Name Istok.";
date = "2016-10-15 02:33:06 +0000";
designer = "Andrey V. Panov";
designerURL = "http://code.google.com/u/andrej.panov/";
disablesAutomaticAlignment = 1;
familyName = Istok;
fontMaster = (
{
alignmentZones = (
"{-20, 20}"
);
ascender = 1548;
capHeight = 1434;
descender = -500;
id = UUID0;
italicAngle = 13;
weightValue = 0;
xHeight = 1050;
},
{
alignmentZones = (
"{-20, 20}"
);
ascender = 1548;
capHeight = 1434;
descender = -500;
id = "18E77EB5-4A27-4F30-B34A-BA542DA126C8";
italicAngle = 13;
weight = Bold;
xHeight = 1050;
}
);
glyphs = (
{
glyphname = A;
lastChange = "2016-10-15 02:32:41 +0000";
layers = (
{
layerId = UUID0;
paths = (
{
closed = 1;
nodes = (
"65 0 LINE SMOOTH",
"101 0 OFFCURVE",
"129 16 OFFCURVE",
"148 49 CURVE SMOOTH",
"343 380 LINE",
"958 380 LINE",
"1015 49 LINE SMOOTH",
"1021 16 OFFCURVE",
"1040 0 OFFCURVE",
"1076 0 CURVE SMOOTH",
"1167 0 LINE SMOOTH",
"1196 0 OFFCURVE",
"1211 15 OFFCURVE",
"1211 46 CURVE SMOOTH",
"1211 52 OFFCURVE",
"1210 59 OFFCURVE",
"1209 66 CURVE SMOOTH",
"983 1373 LINE SMOOTH",
"976 1414 OFFCURVE",
"958 1434 OFFCURVE",
"931 1434 CURVE SMOOTH",
"791 1434 LINE SMOOTH",
"762 1434 OFFCURVE",
"735 1414 OFFCURVE",
"711 1373 CURVE SMOOTH",
"-59 66 LINE SMOOTH",
"-70 47 OFFCURVE",
"-76 32 OFFCURVE",
"-76 21 CURVE SMOOTH",
"-76 7 OFFCURVE",
"-66 0 OFFCURVE",
"-47 0 CURVE SMOOTH"
);
},
{
closed = 1;
nodes = (
"675 944 LINE SMOOTH",
"751 1075 OFFCURVE",
"801 1166 OFFCURVE",
"826 1261 CURVE",
"830 1261 LINE",
"830 1166 OFFCURVE",
"841 1037 OFFCURVE",
"859 944 CURVE",
"929 544 LINE",
"441 544 LINE"
);
}
);
width = 1360;
},
{
layerId = "18E77EB5-4A27-4F30-B34A-BA542DA126C8";
paths = (
{
closed = 1;
nodes = (
"149 0 LINE SMOOTH",
"193 0 OFFCURVE",
"229 23 OFFCURVE",
"256 69 CURVE SMOOTH",
"415 338 LINE",
"923 338 LINE",
"968 69 LINE SMOOTH",
"976 23 OFFCURVE",
"1000 0 OFFCURVE",
"1045 0 CURVE SMOOTH",
"1184 0 LINE SMOOTH",
"1226 0 OFFCURVE",
"1246 17 OFFCURVE",
"1246 50 CURVE SMOOTH",
"1246 55 OFFCURVE",
"1246 60 OFFCURVE",
"1245 66 CURVE SMOOTH",
"1029 1353 LINE SMOOTH",
"1020 1407 OFFCURVE",
"994 1434 OFFCURVE",
"952 1434 CURVE SMOOTH",
"812 1434 LINE SMOOTH",
"770 1434 OFFCURVE",
"733 1407 OFFCURVE",
"701 1353 CURVE SMOOTH",
"-63 66 LINE SMOOTH",
"-72 50 OFFCURVE",
"-77 38 OFFCURVE",
"-77 28 CURVE SMOOTH",
"-77 9 OFFCURVE",
"-61 0 OFFCURVE",
"-30 0 CURVE SMOOTH"
);
},
{
closed = 1;
nodes = (
"751 904 LINE SMOOTH",
"801 987 OFFCURVE",
"796 989 OFFCURVE",
"821 1061 CURVE",
"825 1061 LINE",
"821 1028 OFFCURVE",
"819 1002 OFFCURVE",
"819 981 CURVE SMOOTH",
"819 961 OFFCURVE",
"821 935 OFFCURVE",
"827 904 CURVE SMOOTH",
"883 586 LINE",
"561 586 LINE"
);
}
);
width = 1394;
}
);
unicode = 0041;
},
{
glyphname = Aogonek;
lastChange = "2016-10-15 02:32:41 +0000";
layers = (
{
layerId = UUID0;
paths = (
{
closed = 1;
nodes = (
"65 0 LINE SMOOTH",
"101 0 OFFCURVE",
"129 16 OFFCURVE",
"148 49 CURVE SMOOTH",
"343 380 LINE",
"958 380 LINE",
"1015 49 LINE SMOOTH",
"1016 45 OFFCURVE",
"1016 41 OFFCURVE",
"1016 37 CURVE SMOOTH",
"1016 -7 OFFCURVE",
"993 -9 OFFCURVE",
"884 -90 CURVE SMOOTH",
"789 -161 OFFCURVE",
"776 -214 OFFCURVE",
"776 -284 CURVE SMOOTH",
"776 -361 OFFCURVE",
"839 -417 OFFCURVE",
"972 -417 CURVE SMOOTH",
"1042 -417 OFFCURVE",
"1108 -419 OFFCURVE",
"1108 -380 CURVE",
"1102 -303 LINE SMOOTH",
"1101 -288 OFFCURVE",
"1095 -280 OFFCURVE",
"1082 -280 CURVE SMOOTH",
"1061 -280 OFFCURVE",
"1034 -287 OFFCURVE",
"1002 -287 CURVE SMOOTH",
"954 -287 OFFCURVE",
"936 -269 OFFCURVE",
"936 -233 CURVE SMOOTH",
"936 -197 OFFCURVE",
"973 -152 OFFCURVE",
"1046 -99 CURVE SMOOTH",
"1187 3 OFFCURVE",
"1210 0 OFFCURVE",
"1210 49 CURVE SMOOTH",
"1210 54 OFFCURVE",
"1210 60 OFFCURVE",
"1209 66 CURVE SMOOTH",
"983 1373 LINE SMOOTH",
"976 1414 OFFCURVE",
"958 1434 OFFCURVE",
"931 1434 CURVE SMOOTH",
"791 1434 LINE SMOOTH",
"762 1434 OFFCURVE",
"735 1414 OFFCURVE",
"711 1373 CURVE SMOOTH",
"-59 66 LINE SMOOTH",
"-70 47 OFFCURVE",
"-76 32 OFFCURVE",
"-76 21 CURVE SMOOTH",
"-76 7 OFFCURVE",
"-66 0 OFFCURVE",
"-47 0 CURVE SMOOTH"
);
},
{
closed = 1;
nodes = (
"675 944 LINE SMOOTH",
"751 1075 OFFCURVE",
"801 1166 OFFCURVE",
"826 1261 CURVE",
"830 1261 LINE",
"830 1166 OFFCURVE",
"841 1037 OFFCURVE",
"859 944 CURVE",
"929 544 LINE",
"441 544 LINE"
);
}
);
width = 1360;
},
{
layerId = "18E77EB5-4A27-4F30-B34A-BA542DA126C8";
paths = (
{
closed = 1;
nodes = (
"149 0 LINE SMOOTH",
"193 0 OFFCURVE",
"229 23 OFFCURVE",
"256 69 CURVE SMOOTH",
"415 338 LINE",
"923 338 LINE",
"968 69 LINE SMOOTH",
"969 65 OFFCURVE",
"969 61 OFFCURVE",
"969 57 CURVE SMOOTH",
"969 32 OFFCURVE",
"955 11 OFFCURVE",
"928 -7 CURVE SMOOTH",
"751 -122 OFFCURVE",
"728 -192 OFFCURVE",
"728 -266 CURVE SMOOTH",
"728 -355 OFFCURVE",
"807 -420 OFFCURVE",
"972 -420 CURVE SMOOTH",
"1024 -420 OFFCURVE",
"1073 -417 OFFCURVE",
"1119 -411 CURVE SMOOTH",
"1142 -408 OFFCURVE",
"1154 -393 OFFCURVE",
"1153 -368 CURVE SMOOTH",
"1150 -253 LINE SMOOTH",
"1149 -230 OFFCURVE",
"1138 -219 OFFCURVE",
"1118 -219 CURVE SMOOTH",
"1089 -219 OFFCURVE",
"1057 -224 OFFCURVE",
"1025 -224 CURVE SMOOTH",
"989 -224 OFFCURVE",
"964 -217 OFFCURVE",
"964 -189 CURVE SMOOTH",
"964 -150 OFFCURVE",
"1100 -60 OFFCURVE",
"1195 -17 CURVE SMOOTH",
"1230 -2 OFFCURVE",
"1246 20 OFFCURVE",
"1246 50 CURVE SMOOTH",
"1246 55 OFFCURVE",
"1246 60 OFFCURVE",
"1245 66 CURVE SMOOTH",
"1029 1353 LINE SMOOTH",
"1020 1407 OFFCURVE",
"994 1434 OFFCURVE",
"952 1434 CURVE SMOOTH",
"812 1434 LINE SMOOTH",
"770 1434 OFFCURVE",
"733 1407 OFFCURVE",
"701 1353 CURVE SMOOTH",
"-63 66 LINE SMOOTH",
"-72 50 OFFCURVE",
"-77 38 OFFCURVE",
"-77 28 CURVE SMOOTH",
"-77 9 OFFCURVE",
"-61 0 OFFCURVE",
"-30 0 CURVE SMOOTH"
);
},
{
closed = 1;
nodes = (
"751 904 LINE SMOOTH",
"801 987 OFFCURVE",
"796 989 OFFCURVE",
"821 1061 CURVE",
"825 1061 LINE",
"821 1028 OFFCURVE",
"819 1002 OFFCURVE",
"819 981 CURVE SMOOTH",
"819 961 OFFCURVE",
"821 935 OFFCURVE",
"827 904 CURVE SMOOTH",
"883 586 LINE",
"561 586 LINE"
);
}
);
width = 1394;
}
);
unicode = 0104;
},
{
glyphname = AE;
lastChange = "2016-10-15 02:32:41 +0000";
layers = (
{
layerId = UUID0;
paths = (
{
closed = 1;
nodes = (
"81 0 LINE SMOOTH",
"110 0 OFFCURVE",
"136 16 OFFCURVE",
"159 49 CURVE SMOOTH",
"391 380 LINE",
"865 380 LINE",
"790 55 LINE SMOOTH",
"788 47 OFFCURVE",
"787 40 OFFCURVE",
"787 34 CURVE SMOOTH",
"787 11 OFFCURVE",
"801 0 OFFCURVE",
"827 0 CURVE SMOOTH",
"1692 0 LINE SMOOTH",
"1729 0 OFFCURVE",
"1750 15 OFFCURVE",
"1757 45 CURVE SMOOTH",
"1774 119 LINE SMOOTH",
"1775 124 OFFCURVE",
"1776 128 OFFCURVE",
"1776 132 CURVE SMOOTH",
"1776 153 OFFCURVE",
"1760 164 OFFCURVE",
"1730 164 CURVE SMOOTH",
"1007 164 LINE",
"1122 662 LINE",
"1755 662 LINE SMOOTH",
"1792 662 OFFCURVE",
"1813 677 OFFCURVE",
"1820 707 CURVE SMOOTH",
"1837 781 LINE SMOOTH",
"1838 786 OFFCURVE",
"1839 790 OFFCURVE",
"1839 794 CURVE SMOOTH",
"1839 815 OFFCURVE",
"1823 826 OFFCURVE",
"1793 826 CURVE SMOOTH",
"1160 826 LINE",
"1262 1270 LINE",
"1955 1270 LINE SMOOTH",
"1992 1270 OFFCURVE",
"2014 1285 OFFCURVE",
"2021 1315 CURVE SMOOTH",
"2038 1389 LINE SMOOTH",
"2039 1394 OFFCURVE",
"2040 1398 OFFCURVE",
"2040 1402 CURVE SMOOTH",
"2040 1423 OFFCURVE",
"2024 1434 OFFCURVE",
"1993 1434 CURVE SMOOTH",
"944 1434 LINE SMOOTH",
"916 1434 OFFCURVE",
"890 1417 OFFCURVE",
"865 1382 CURVE SMOOTH",
"-59 66 LINE SMOOTH",
"-73 47 OFFCURVE",
"-79 32 OFFCURVE",
"-79 21 CURVE SMOOTH",
"-79 7 OFFCURVE",
"-68 0 OFFCURVE",
"-46 0 CURVE SMOOTH"
);
},
{
closed = 1;
nodes = (
"863 1053 LINE SMOOTH",
"906 1114 OFFCURVE",
"958 1191 OFFCURVE",
"998 1270 CURVE",
"1070 1270 LINE",
"903 544 LINE",
"506 544 LINE"
);
}
);
width = 1957;
},
{
layerId = "18E77EB5-4A27-4F30-B34A-BA542DA126C8";
paths = (
{
closed = 1;
nodes = (
"155 0 LINE SMOOTH",
"197 0 OFFCURVE",
"233 23 OFFCURVE",
"262 69 CURVE SMOOTH",
"433 338 LINE",
"782 338 LINE",
"721 75 LINE SMOOTH",
"719 65 OFFCURVE",
"718 56 OFFCURVE",
"718 48 CURVE SMOOTH",
"718 16 OFFCURVE",
"736 0 OFFCURVE",
"774 0 CURVE SMOOTH",
"1631 0 LINE SMOOTH",
"1681 0 OFFCURVE",
"1711 22 OFFCURVE",
"1721 65 CURVE SMOOTH",
"1748 183 LINE SMOOTH",
"1750 190 OFFCURVE",
"1750 197 OFFCURVE",
"1750 203 CURVE SMOOTH",
"1750 233 OFFCURVE",
"1730 248 OFFCURVE",
"1688 248 CURVE SMOOTH",
"1053 248 LINE",
"1139 620 LINE",
"1689 620 LINE SMOOTH",
"1739 620 OFFCURVE",
"1769 642 OFFCURVE",
"1779 685 CURVE SMOOTH",
"1806 803 LINE SMOOTH",
"1808 810 OFFCURVE",
"1808 817 OFFCURVE",
"1808 823 CURVE SMOOTH",
"1808 853 OFFCURVE",
"1788 868 OFFCURVE",
"1746 868 CURVE SMOOTH",
"1196 868 LINE",
"1270 1186 LINE",
"1873 1186 LINE SMOOTH",
"1923 1186 OFFCURVE",
"1953 1208 OFFCURVE",
"1963 1251 CURVE SMOOTH",
"1990 1369 LINE SMOOTH",
"1992 1376 OFFCURVE",
"1992 1383 OFFCURVE",
"1992 1389 CURVE SMOOTH",
"1992 1419 OFFCURVE",
"1972 1434 OFFCURVE",
"1930 1434 CURVE SMOOTH",
"866 1434 LINE SMOOTH",
"826 1434 OFFCURVE",
"789 1407 OFFCURVE",
"755 1353 CURVE SMOOTH",
"-63 66 LINE SMOOTH",
"-73 50 OFFCURVE",
"-78 37 OFFCURVE",
"-78 27 CURVE SMOOTH",
"-78 9 OFFCURVE",
"-62 0 OFFCURVE",
"-30 0 CURVE SMOOTH"
);
},
{
closed = 1;
nodes = (
"831 964 LINE SMOOTH",
"885 1049 OFFCURVE",
"905 1087 OFFCURVE",
"943 1186 CURVE",
"978 1186 LINE",
"839 586 LINE",
"591 586 LINE"
);
}
);
width = 1911;
}
);
unicode = 00C6;
},
{
glyphname = B;
lastChange = "2016-10-15 02:32:41 +0000";
layers = (
{
layerId = UUID0;
paths = (
{
closed = 1;
nodes = (
"570 0 LINE SMOOTH",
"800 0 OFFCURVE",
"965 44 OFFCURVE",
"1066 132 CURVE SMOOTH",
"1167 220 OFFCURVE",
"1217 320 OFFCURVE",
"1217 431 CURVE SMOOTH",
"1217 612 OFFCURVE",
"1087 720 OFFCURVE",
"953 747 CURVE",
"953 750 LINE",
"1140 789 OFFCURVE",
"1286 897 OFFCURVE",
"1286 1084 CURVE SMOOTH",
"1286 1183 OFFCURVE",
"1251 1266 OFFCURVE",
"1180 1333 CURVE SMOOTH",
"1109 1400 OFFCURVE",
"983 1434 OFFCURVE",
"801 1434 CURVE SMOOTH",
"431 1434 LINE SMOOTH",
"398 1434 OFFCURVE",
"376 1416 OFFCURVE",
"368 1379 CURVE SMOOTH",
"63 55 LINE SMOOTH",
"61 47 OFFCURVE",
"60 40 OFFCURVE",
"60 34 CURVE SMOOTH",
"60 11 OFFCURVE",
"74 0 OFFCURVE",
"100 0 CURVE SMOOTH"
);
},
{
closed = 1;
nodes = (
"395 664 LINE",
"631 664 LINE SMOOTH",
"863 664 OFFCURVE",
"1012 601 OFFCURVE",
"1012 439 CURVE SMOOTH",
"1012 262 OFFCURVE",
"856 164 OFFCURVE",
"576 164 CURVE SMOOTH",
"280 164 LINE"
);
},
{
closed = 1;
nodes = (
"535 1270 LINE",
"766 1270 LINE SMOOTH",
"1004 1270 OFFCURVE",
"1091 1214 OFFCURVE",
"1091 1076 CURVE SMOOTH",
"1091 920 OFFCURVE",
"882 808 OFFCURVE",
"700 808 CURVE SMOOTH",
"429 808 LINE"
);
}
);
width = 1338;
},
{
layerId = "18E77EB5-4A27-4F30-B34A-BA542DA126C8";
paths = (
{
closed = 1;
nodes = (
"530 0 LINE SMOOTH",
"1002 0 OFFCURVE",
"1252 186 OFFCURVE",
"1252 423 CURVE SMOOTH",
"1252 636 OFFCURVE",
"1096 733 OFFCURVE",
"948 747 CURVE",
"948 750 LINE",
"1028 757 OFFCURVE",
"1110 787 OFFCURVE",
"1193 840 CURVE SMOOTH",
"1276 893 OFFCURVE",
"1318 972 OFFCURVE",
"1318 1076 CURVE SMOOTH",
"1318 1286 OFFCURVE",
"1172 1434 OFFCURVE",
"771 1434 CURVE SMOOTH",
"451 1434 LINE SMOOTH",
"397 1434 OFFCURVE",
"365 1409 OFFCURVE",
"354 1359 CURVE SMOOTH",
"57 75 LINE SMOOTH",
"55 66 OFFCURVE",
"54 58 OFFCURVE",
"54 51 CURVE SMOOTH",
"54 17 OFFCURVE",
"76 0 OFFCURVE",
"120 0 CURVE SMOOTH"
);
},
{
closed = 1;
nodes = (
"475 618 LINE",
"601 618 LINE SMOOTH",
"855 618 OFFCURVE",
"940 573 OFFCURVE",
"940 452 CURVE SMOOTH",
"940 299 OFFCURVE",
"866 244 OFFCURVE",
"554 244 CURVE SMOOTH",
"388 244 LINE"
);
},
{
closed = 1;
nodes = (
"607 1190 LINE",
"718 1190 LINE SMOOTH",
"953 1190 OFFCURVE",
"1022 1157 OFFCURVE",
"1022 1056 CURVE SMOOTH",
"1022 944 OFFCURVE",
"892 854 OFFCURVE",
"680 854 CURVE SMOOTH",
"529 854 LINE"
);
}
);
width = 1379;
}
);
unicode = 0042;
},
{
glyphname = C;
lastChange = "2016-10-15 02:32:41 +0000";
layers = (
{
layerId = UUID0;
paths = (
{
closed = 1;
nodes = (
"110 231 OFFCURVE",
"304 -30 OFFCURVE",
"710 -30 CURVE SMOOTH",
"1002 -30 OFFCURVE",
"1168 84 OFFCURVE",
"1274 238 CURVE SMOOTH",
"1289 260 OFFCURVE",
"1296 278 OFFCURVE",
"1296 292 CURVE SMOOTH",
"1296 303 OFFCURVE",
"1292 312 OFFCURVE",
"1282 318 CURVE SMOOTH",
"1192 376 LINE SMOOTH",
"1185 380 OFFCURVE",
"1178 382 OFFCURVE",
"1171 382 CURVE SMOOTH",
"1153 382 OFFCURVE",
"1134 369 OFFCURVE",
"1114 341 CURVE SMOOTH",
"1046 248 OFFCURVE",
"920 126 OFFCURVE",
"737 126 CURVE SMOOTH",
"584 126 OFFCURVE",
"475 167 OFFCURVE",
"411 250 CURVE SMOOTH",
"347 333 OFFCURVE",
"315 436 OFFCURVE",
"315 557 CURVE SMOOTH",
"315 814 OFFCURVE",
"369 1003 OFFCURVE",
"478 1125 CURVE SMOOTH",
"587 1247 OFFCURVE",
"724 1308 OFFCURVE",
"891 1308 CURVE SMOOTH",
"1072 1308 OFFCURVE",
"1175 1201 OFFCURVE",
"1214 1132 CURVE SMOOTH",
"1226 1110 OFFCURVE",
"1239 1100 OFFCURVE",
"1252 1100 CURVE SMOOTH",
"1256 1100 OFFCURVE",
"1261 1101 OFFCURVE",
"1266 1104 CURVE SMOOTH",
"1344 1150 LINE SMOOTH",
"1364 1162 OFFCURVE",
"1374 1178 OFFCURVE",
"1374 1197 CURVE SMOOTH",
"1374 1207 OFFCURVE",
"1372 1218 OFFCURVE",
"1367 1230 CURVE SMOOTH",
"1304 1371 OFFCURVE",
"1153 1464 OFFCURVE",
"908 1464 CURVE SMOOTH",
"405 1464 OFFCURVE",
"110 1102 OFFCURVE",
"110 580 CURVE SMOOTH"
);
}
);
width = 1392;
},
{
layerId = "18E77EB5-4A27-4F30-B34A-BA542DA126C8";
paths = (
{
closed = 1;
nodes = (
"100 167 OFFCURVE",
"337 -34 OFFCURVE",
"736 -34 CURVE SMOOTH",
"1005 -34 OFFCURVE",
"1194 76 OFFCURVE",
"1295 221 CURVE SMOOTH",
"1307 238 OFFCURVE",
"1313 255 OFFCURVE",
"1313 269 CURVE SMOOTH",
"1313 289 OFFCURVE",
"1301 306 OFFCURVE",
"1277 319 CURVE SMOOTH",
"1150 389 LINE SMOOTH",
"1142 393 OFFCURVE",
"1133 396 OFFCURVE",
"1125 396 CURVE SMOOTH",
"1101 396 OFFCURVE",
"1076 378 OFFCURVE",
"1050 342 CURVE SMOOTH",
"995 266 OFFCURVE",
"901 202 OFFCURVE",
"757 202 CURVE SMOOTH",
"500 202 OFFCURVE",
"412 353 OFFCURVE",
"412 550 CURVE SMOOTH",
"412 942 OFFCURVE",
"588 1232 OFFCURVE",
"871 1232 CURVE SMOOTH",
"965 1232 OFFCURVE",
"1078 1187 OFFCURVE",
"1143 1100 CURVE SMOOTH",
"1166 1069 OFFCURVE",
"1187 1054 OFFCURVE",
"1209 1054 CURVE SMOOTH",
"1219 1054 OFFCURVE",
"1229 1057 OFFCURVE",
"1239 1064 CURVE SMOOTH",
"1363 1147 LINE SMOOTH",
"1385 1162 OFFCURVE",
"1397 1180 OFFCURVE",
"1397 1201 CURVE SMOOTH",
"1397 1269 OFFCURVE",
"1297 1356 OFFCURVE",
"1198 1405 CURVE SMOOTH",
"1113 1447 OFFCURVE",
"1012 1468 OFFCURVE",
"892 1468 CURVE SMOOTH",
"633 1468 OFFCURVE",
"437 1379 OFFCURVE",
"302 1202 CURVE SMOOTH",
"167 1025 OFFCURVE",
"100 820 OFFCURVE",
"100 588 CURVE SMOOTH"
);
}
);
width = 1404;
}
);
unicode = 0043;
},
{
glyphname = D;
lastChange = "2016-10-15 02:32:41 +0000";
layers = (
{
layerId = UUID0;
paths = (
{
closed = 1;
nodes = (
"519 0 LINE SMOOTH",
"816 0 OFFCURVE",
"1034 85 OFFCURVE",
"1174 254 CURVE SMOOTH",
"1314 423 OFFCURVE",
"1384 621 OFFCURVE",
"1384 848 CURVE SMOOTH",
"1384 1005 OFFCURVE",
"1338 1142 OFFCURVE",
"1246 1259 CURVE SMOOTH",
"1154 1376 OFFCURVE",
"989 1434 OFFCURVE",
"750 1434 CURVE SMOOTH",
"431 1434 LINE SMOOTH",
"398 1434 OFFCURVE",
"376 1416 OFFCURVE",
"368 1379 CURVE SMOOTH",
"63 55 LINE SMOOTH",
"61 47 OFFCURVE",
"60 40 OFFCURVE",
"60 34 CURVE SMOOTH",
"60 11 OFFCURVE",
"74 0 OFFCURVE",
"100 0 CURVE SMOOTH"
);
},
{
closed = 1;
nodes = (
"536 1272 LINE",
"704 1272 LINE SMOOTH",
"912 1272 OFFCURVE",
"1042 1232 OFFCURVE",
"1097 1152 CURVE SMOOTH",
"1152 1071 OFFCURVE",
"1179 975 OFFCURVE",
"1179 860 CURVE SMOOTH",
"1179 679 OFFCURVE",
"1129 517 OFFCURVE",
"1029 376 CURVE SMOOTH",
"930 235 OFFCURVE",
"769 164 OFFCURVE",
"548 164 CURVE SMOOTH",
"280 164 LINE"
);
}
);
width = 1406;
},
{
layerId = "18E77EB5-4A27-4F30-B34A-BA542DA126C8";
paths = (
{
closed = 1;
nodes = (
"489 0 LINE SMOOTH",
"800 0 OFFCURVE",
"1032 78 OFFCURVE",
"1183 235 CURVE SMOOTH",
"1334 392 OFFCURVE",
"1410 591 OFFCURVE",
"1410 831 CURVE SMOOTH",
"1410 1013 OFFCURVE",
"1358 1159 OFFCURVE",
"1254 1269 CURVE SMOOTH",
"1150 1379 OFFCURVE",
"979 1434 OFFCURVE",
"740 1434 CURVE SMOOTH",
"441 1434 LINE SMOOTH",
"393 1434 OFFCURVE",
"365 1409 OFFCURVE",
"354 1359 CURVE SMOOTH",
"57 75 LINE SMOOTH",
"55 65 OFFCURVE",
"54 56 OFFCURVE",
"54 48 CURVE SMOOTH",
"54 16 OFFCURVE",
"72 0 OFFCURVE",
"110 0 CURVE SMOOTH"
);
},
{
closed = 1;
nodes = (
"606 1188 LINE",
"684 1188 LINE SMOOTH",
"862 1188 OFFCURVE",
"975 1157 OFFCURVE",
"1024 1096 CURVE SMOOTH",
"1073 1035 OFFCURVE",
"1098 954 OFFCURVE",
"1098 852 CURVE SMOOTH",
"1098 478 OFFCURVE",
"932 248 OFFCURVE",
"527 248 CURVE SMOOTH",
"389 248 LINE"
);
}
);
width = 1402;
}
);
unicode = 0044;
},
{
glyphname = Eth;
lastChange = "2016-10-15 02:32:41 +0000";
layers = (
{
layerId = UUID0;
paths = (
{
closed = 1;
nodes = (
"241 654 LINE",
"103 55 LINE SMOOTH",
"101 47 OFFCURVE",
"100 40 OFFCURVE",
"100 34 CURVE SMOOTH",
"100 11 OFFCURVE",
"114 0 OFFCURVE",
"140 0 CURVE SMOOTH",
"559 0 LINE SMOOTH",
"856 0 OFFCURVE",
"1074 85 OFFCURVE",
"1214 254 CURVE SMOOTH",
"1354 423 OFFCURVE",
"1424 621 OFFCURVE",
"1424 848 CURVE SMOOTH",
"1424 1005 OFFCURVE",
"1378 1142 OFFCURVE",
"1286 1259 CURVE SMOOTH",
"1194 1376 OFFCURVE",
"1029 1434 OFFCURVE",
"790 1434 CURVE SMOOTH",
"471 1434 LINE SMOOTH",
"438 1434 OFFCURVE",
"416 1416 OFFCURVE",
"408 1379 CURVE SMOOTH",
"279 818 LINE",
"164 818 LINE SMOOTH",
"127 818 OFFCURVE",
"105 803 OFFCURVE",
"98 773 CURVE SMOOTH",
"81 699 LINE SMOOTH",
"80 694 OFFCURVE",
"79 690 OFFCURVE",
"79 686 CURVE SMOOTH",
"79 664 OFFCURVE",
"95 654 OFFCURVE",
"126 654 CURVE SMOOTH"
);
},
{
closed = 1;
nodes = (
"433 654 LINE",
"754 654 LINE SMOOTH",
"791 654 OFFCURVE",
"812 669 OFFCURVE",
"819 699 CURVE SMOOTH",
"836 773 LINE SMOOTH",
"837 778 OFFCURVE",
"838 782 OFFCURVE",
"838 787 CURVE SMOOTH",
"838 808 OFFCURVE",
"823 818 OFFCURVE",
"792 818 CURVE SMOOTH",
"471 818 LINE",
"576 1272 LINE",
"744 1272 LINE SMOOTH",
"952 1272 OFFCURVE",
"1082 1232 OFFCURVE",
"1137 1152 CURVE SMOOTH",
"1192 1071 OFFCURVE",
"1219 975 OFFCURVE",
"1219 860 CURVE SMOOTH",
"1219 679 OFFCURVE",
"1169 517 OFFCURVE",
"1069 376 CURVE SMOOTH",
"970 235 OFFCURVE",
"809 164 OFFCURVE",
"588 164 CURVE SMOOTH",
"320 164 LINE"
);
}
);
width = 1446;
},
{
layerId = "18E77EB5-4A27-4F30-B34A-BA542DA126C8";
paths = (
{
closed = 1;
nodes = (
"231 612 LINE",
"107 75 LINE SMOOTH",
"105 65 OFFCURVE",
"104 56 OFFCURVE",
"104 48 CURVE SMOOTH",
"104 16 OFFCURVE",
"122 0 OFFCURVE",
"160 0 CURVE SMOOTH",
"539 0 LINE SMOOTH",
"850 0 OFFCURVE",
"1082 78 OFFCURVE",
"1233 235 CURVE SMOOTH",
"1384 392 OFFCURVE",
"1460 591 OFFCURVE",
"1460 831 CURVE SMOOTH",
"1460 1013 OFFCURVE",
"1408 1159 OFFCURVE",
"1304 1269 CURVE SMOOTH",
"1200 1379 OFFCURVE",
"1029 1434 OFFCURVE",
"790 1434 CURVE SMOOTH",
"491 1434 LINE SMOOTH",
"443 1434 OFFCURVE",
"415 1409 OFFCURVE",
"404 1359 CURVE SMOOTH",
"289 860 LINE",
"184 860 LINE SMOOTH",
"134 860 OFFCURVE",
"104 838 OFFCURVE",
"94 795 CURVE SMOOTH",
"66 677 LINE SMOOTH",
"64 670 OFFCURVE",
"63 663 OFFCURVE",
"63 657 CURVE SMOOTH",
"63 627 OFFCURVE",
"84 612 OFFCURVE",
"126 612 CURVE SMOOTH"
);
},
{
closed = 1;
nodes = (
"523 612 LINE",
"762 612 LINE SMOOTH",
"812 612 OFFCURVE",
"842 634 OFFCURVE",
"852 677 CURVE SMOOTH",
"880 795 LINE SMOOTH",
"882 802 OFFCURVE",
"882 809 OFFCURVE",
"882 815 CURVE SMOOTH",
"882 845 OFFCURVE",
"862 860 OFFCURVE",
"820 860 CURVE SMOOTH",
"580 860 LINE",
"656 1188 LINE",
"734 1188 LINE SMOOTH",
"912 1188 OFFCURVE",
"1025 1157 OFFCURVE",
"1074 1096 CURVE SMOOTH",
"1123 1035 OFFCURVE",
"1148 954 OFFCURVE",
"1148 852 CURVE SMOOTH",
"1148 478 OFFCURVE",
"982 248 OFFCURVE",
"577 248 CURVE SMOOTH",
"439 248 LINE"
);
}
);
width = 1452;
}
);
unicode = 00D0;
},
{
glyphname = E;
lastChange = "2016-10-15 02:32:41 +0000";
layers = (
{
layerId = UUID0;
paths = (
{
closed = 1;
nodes = (
"1005 0 LINE SMOOTH",
"1042 0 OFFCURVE",
"1063 15 OFFCURVE",
"1070 45 CURVE SMOOTH",
"1087 119 LINE SMOOTH",
"1088 124 OFFCURVE",
"1089 128 OFFCURVE",
"1089 133 CURVE SMOOTH",
"1089 154 OFFCURVE",
"1074 164 OFFCURVE",
"1043 164 CURVE SMOOTH",
"280 164 LINE",
"395 662 LINE",
"1068 662 LINE SMOOTH",
"1105 662 OFFCURVE",
"1126 677 OFFCURVE",
"1133 707 CURVE SMOOTH",
"1150 781 LINE SMOOTH",
"1151 786 OFFCURVE",
"1152 790 OFFCURVE",
"1152 795 CURVE SMOOTH",
"1152 816 OFFCURVE",
"1137 826 OFFCURVE",
"1106 826 CURVE SMOOTH",
"433 826 LINE",
"535 1270 LINE",
"1268 1270 LINE SMOOTH",
"1305 1270 OFFCURVE",
"1327 1285 OFFCURVE",
"1334 1315 CURVE SMOOTH",
"1351 1389 LINE SMOOTH",
"1352 1394 OFFCURVE",
"1353 1398 OFFCURVE",
"1353 1402 CURVE SMOOTH",
"1353 1423 OFFCURVE",
"1337 1434 OFFCURVE",
"1306 1434 CURVE SMOOTH",
"431 1434 LINE SMOOTH",
"398 1434 OFFCURVE",
"376 1416 OFFCURVE",
"368 1379 CURVE SMOOTH",
"63 55 LINE SMOOTH",
"61 47 OFFCURVE",
"60 40 OFFCURVE",
"60 34 CURVE SMOOTH",
"60 11 OFFCURVE",
"74 0 OFFCURVE",
"100 0 CURVE SMOOTH"
);
}
);
width = 1270;
},
{
layerId = "18E77EB5-4A27-4F30-B34A-BA542DA126C8";
paths = (
{
closed = 1;
nodes = (
"1000 0 LINE SMOOTH",
"1050 0 OFFCURVE",
"1080 22 OFFCURVE",
"1090 65 CURVE SMOOTH",
"1117 183 LINE SMOOTH",
"1119 190 OFFCURVE",
"1119 197 OFFCURVE",
"1119 203 CURVE SMOOTH",
"1119 233 OFFCURVE",
"1099 248 OFFCURVE",
"1057 248 CURVE SMOOTH",
"389 248 LINE",
"475 620 LINE",
"1058 620 LINE SMOOTH",
"1108 620 OFFCURVE",
"1138 642 OFFCURVE",
"1148 685 CURVE SMOOTH",
"1175 803 LINE SMOOTH",
"1177 810 OFFCURVE",
"1177 817 OFFCURVE",
"1177 823 CURVE SMOOTH",
"1177 853 OFFCURVE",
"1157 868 OFFCURVE",
"1115 868 CURVE SMOOTH",
"532 868 LINE",
"606 1186 LINE",
"1242 1186 LINE SMOOTH",
"1292 1186 OFFCURVE",
"1322 1208 OFFCURVE",
"1332 1251 CURVE SMOOTH",
"1359 1369 LINE SMOOTH",
"1361 1376 OFFCURVE",
"1361 1383 OFFCURVE",
"1361 1389 CURVE SMOOTH",
"1361 1419 OFFCURVE",
"1341 1434 OFFCURVE",
"1299 1434 CURVE SMOOTH",
"441 1434 LINE SMOOTH",
"393 1434 OFFCURVE",
"365 1409 OFFCURVE",
"354 1359 CURVE SMOOTH",
"57 75 LINE SMOOTH",
"55 65 OFFCURVE",
"54 56 OFFCURVE",
"54 48 CURVE SMOOTH",
"54 16 OFFCURVE",
"72 0 OFFCURVE",
"110 0 CURVE SMOOTH"
);
}
);
width = 1280;
}
);
unicode = 0045;
},
{
glyphname = Eogonek;
lastChange = "2016-10-15 02:32:41 +0000";
layers = (
{
layerId = UUID0;
paths = (
{
closed = 1;
nodes = (
"738 0 LINE SMOOTH",
"765 0 OFFCURVE",
"791 1 OFFCURVE",
"818 2 CURVE",
"818 -2 LINE",
"618 -133 OFFCURVE",
"592 -178 OFFCURVE",
"592 -284 CURVE SMOOTH",
"592 -361 OFFCURVE",
"655 -417 OFFCURVE",
"788 -417 CURVE SMOOTH",
"828 -417 OFFCURVE",
"867 -415 OFFCURVE",
"906 -408 CURVE SMOOTH",
"919 -406 OFFCURVE",
"924 -396 OFFCURVE",
"924 -380 CURVE",
"918 -303 LINE SMOOTH",
"917 -288 OFFCURVE",
"911 -280 OFFCURVE",
"898 -280 CURVE SMOOTH",
"877 -280 OFFCURVE",
"850 -287 OFFCURVE",
"818 -287 CURVE SMOOTH",
"770 -287 OFFCURVE",
"752 -269 OFFCURVE",
"752 -233 CURVE SMOOTH",
"752 -170 OFFCURVE",
"862 -92 OFFCURVE",
"998 0 CURVE",
"1005 0 LINE SMOOTH",
"1042 0 OFFCURVE",
"1063 15 OFFCURVE",
"1070 45 CURVE SMOOTH",
"1087 119 LINE SMOOTH",
"1088 124 OFFCURVE",
"1089 128 OFFCURVE",
"1089 132 CURVE SMOOTH",
"1089 153 OFFCURVE",
"1073 164 OFFCURVE",
"1043 164 CURVE SMOOTH",
"280 164 LINE",
"395 662 LINE",
"1068 662 LINE SMOOTH",
"1105 662 OFFCURVE",
"1126 677 OFFCURVE",
"1133 707 CURVE SMOOTH",
"1150 781 LINE SMOOTH",
"1151 786 OFFCURVE",
"1152 790 OFFCURVE",
"1152 794 CURVE SMOOTH",
"1152 815 OFFCURVE",
"1136 826 OFFCURVE",
"1106 826 CURVE SMOOTH",
"433 826 LINE",
"535 1270 LINE",
"1268 1270 LINE SMOOTH",
"1305 1270 OFFCURVE",
"1327 1285 OFFCURVE",
"1334 1315 CURVE SMOOTH",
"1351 1389 LINE SMOOTH",
"1352 1394 OFFCURVE",
"1353 1398 OFFCURVE",
"1353 1402 CURVE SMOOTH",
"1353 1423 OFFCURVE",
"1337 1434 OFFCURVE",
"1306 1434 CURVE SMOOTH",
"431 1434 LINE SMOOTH",
"398 1434 OFFCURVE",
"376 1416 OFFCURVE",
"368 1379 CURVE SMOOTH",
"63 55 LINE SMOOTH",
"61 47 OFFCURVE",
"60 40 OFFCURVE",
"60 34 CURVE SMOOTH",
"60 11 OFFCURVE",
"74 0 OFFCURVE",
"100 0 CURVE SMOOTH"
);
}
);
width = 1270;
},
{
layerId = "18E77EB5-4A27-4F30-B34A-BA542DA126C8";
paths = (
{
closed = 1;
nodes = (
"587 0 LINE SMOOTH",
"627 0 OFFCURVE",
"667 1 OFFCURVE",
"708 4 CURVE",
"708 -7 LINE",
"531 -122 OFFCURVE",
"508 -192 OFFCURVE",
"508 -266 CURVE SMOOTH",
"508 -355 OFFCURVE",
"587 -420 OFFCURVE",
"752 -420 CURVE SMOOTH",
"804 -420 OFFCURVE",
"853 -417 OFFCURVE",
"899 -411 CURVE SMOOTH",
"922 -408 OFFCURVE",
"934 -393 OFFCURVE",
"933 -368 CURVE SMOOTH",
"930 -253 LINE SMOOTH",
"929 -230 OFFCURVE",
"918 -219 OFFCURVE",
"898 -219 CURVE SMOOTH",
"869 -219 OFFCURVE",
"837 -224 OFFCURVE",
"805 -224 CURVE SMOOTH",
"769 -224 OFFCURVE",
"744 -217 OFFCURVE",
"744 -189 CURVE SMOOTH",
"744 -150 OFFCURVE",
"838 -93 OFFCURVE",
"990 0 CURVE",
"1000 0 LINE SMOOTH",
"1050 0 OFFCURVE",
"1080 22 OFFCURVE",
"1090 65 CURVE SMOOTH",
"1117 183 LINE SMOOTH",
"1119 190 OFFCURVE",
"1119 197 OFFCURVE",
"1119 203 CURVE SMOOTH",
"1119 233 OFFCURVE",
"1099 248 OFFCURVE",
"1057 248 CURVE SMOOTH",
"389 248 LINE",
"475 620 LINE",
"1058 620 LINE SMOOTH",
"1108 620 OFFCURVE",
"1138 642 OFFCURVE",
"1148 685 CURVE SMOOTH",
"1175 803 LINE SMOOTH",
"1177 810 OFFCURVE",
"1177 817 OFFCURVE",
"1177 823 CURVE SMOOTH",
"1177 853 OFFCURVE",
"1157 868 OFFCURVE",
"1115 868 CURVE SMOOTH",
"532 868 LINE",
"606 1186 LINE",
"1242 1186 LINE SMOOTH",
"1292 1186 OFFCURVE",
"1322 1208 OFFCURVE",
"1332 1251 CURVE SMOOTH",
"1359 1369 LINE SMOOTH",
"1361 1376 OFFCURVE",
"1361 1383 OFFCURVE",
"1361 1389 CURVE SMOOTH",
"1361 1419 OFFCURVE",
"1341 1434 OFFCURVE",
"1299 1434 CURVE SMOOTH",
"441 1434 LINE SMOOTH",
"393 1434 OFFCURVE",
"365 1409 OFFCURVE",
"354 1359 CURVE SMOOTH",
"57 75 LINE SMOOTH",
"55 65 OFFCURVE",
"54 56 OFFCURVE",
"54 48 CURVE SMOOTH",
"54 16 OFFCURVE",
"72 0 OFFCURVE",
"110 0 CURVE SMOOTH"
);
}
);
width = 1280;
}
);
unicode = 0118;
},
{
glyphname = F;
lastChange = "2016-10-15 02:32:41 +0000";
layers = (
{
layerId = UUID0;
paths = (
{
closed = 1;
nodes = (
"192 0 LINE SMOOTH",
"225 0 OFFCURVE",
"246 18 OFFCURVE",
"255 55 CURVE SMOOTH",
"388 632 LINE",
"975 632 LINE SMOOTH",
"1012 632 OFFCURVE",
"1033 647 OFFCURVE",
"1040 677 CURVE SMOOTH",
"1057 751 LINE SMOOTH",
"1058 756 OFFCURVE",
"1059 760 OFFCURVE",
"1059 765 CURVE SMOOTH",
"1059 786 OFFCURVE",
"1044 796 OFFCURVE",
"1013 796 CURVE SMOOTH",
"426 796 LINE",
"535 1270 LINE",
"1208 1270 LINE SMOOTH",
"1245 1270 OFFCURVE",
"1267 1285 OFFCURVE",
"1274 1315 CURVE SMOOTH",
"1291 1389 LINE SMOOTH",
"1292 1394 OFFCURVE",
"1293 1398 OFFCURVE",
"1293 1402 CURVE SMOOTH",
"1293 1423 OFFCURVE",
"1277 1434 OFFCURVE",
"1246 1434 CURVE SMOOTH",
"431 1434 LINE SMOOTH",
"398 1434 OFFCURVE",
"376 1416 OFFCURVE",
"368 1379 CURVE SMOOTH",
"63 55 LINE SMOOTH",
"61 47 OFFCURVE",
"60 40 OFFCURVE",
"60 34 CURVE SMOOTH",
"60 11 OFFCURVE",
"74 0 OFFCURVE",
"100 0 CURVE SMOOTH"
);
}
);
width = 1166;
},
{
layerId = "18E77EB5-4A27-4F30-B34A-BA542DA126C8";
paths = (
{
closed = 1;
nodes = (
"262 0 LINE SMOOTH",
"309 0 OFFCURVE",
"337 25 OFFCURVE",
"349 75 CURVE SMOOTH",
"468 590 LINE",
"955 590 LINE SMOOTH",
"1005 590 OFFCURVE",
"1035 612 OFFCURVE",
"1045 655 CURVE SMOOTH",
"1072 773 LINE SMOOTH",
"1074 780 OFFCURVE",
"1074 787 OFFCURVE",
"1074 793 CURVE SMOOTH",
"1074 823 OFFCURVE",
"1054 838 OFFCURVE",
"1012 838 CURVE SMOOTH",
"525 838 LINE",
"606 1186 LINE",
"1175 1186 LINE SMOOTH",
"1225 1186 OFFCURVE",
"1255 1208 OFFCURVE",
"1265 1251 CURVE SMOOTH",
"1292 1369 LINE SMOOTH",
"1294 1376 OFFCURVE",
"1294 1383 OFFCURVE",
"1294 1389 CURVE SMOOTH",
"1294 1419 OFFCURVE",
"1274 1434 OFFCURVE",
"1232 1434 CURVE SMOOTH",
"441 1434 LINE SMOOTH",
"393 1434 OFFCURVE",
"365 1409 OFFCURVE",
"354 1359 CURVE SMOOTH",
"57 75 LINE SMOOTH",
"55 65 OFFCURVE",
"54 56 OFFCURVE",
"54 48 CURVE SMOOTH",
"54 16 OFFCURVE",
"72 0 OFFCURVE",
"110 0 CURVE SMOOTH"
);
}
);
width = 1176;
}
);
unicode = 0046;
},
{
glyphname = G;
lastChange = "2016-10-15 02:32:41 +0000";
layers = (
{
layerId = UUID0;
paths = (
{
closed = 1;
nodes = (
"110 231 OFFCURVE",
"304 -30 OFFCURVE",
"710 -30 CURVE SMOOTH",
"980 -30 OFFCURVE",
"1111 11 OFFCURVE",
"1306 157 CURVE",
"1415 629 LINE SMOOTH",
"1416 634 OFFCURVE",
"1417 638 OFFCURVE",
"1417 643 CURVE SMOOTH",
"1417 664 OFFCURVE",
"1402 674 OFFCURVE",
"1371 674 CURVE SMOOTH",
"937 674 LINE SMOOTH",
"900 674 OFFCURVE",
"878 659 OFFCURVE",
"871 629 CURVE SMOOTH",
"854 555 LINE SMOOTH",
"853 550 OFFCURVE",
"852 546 OFFCURVE",
"852 542 CURVE SMOOTH",
"852 520 OFFCURVE",
"868 510 OFFCURVE",
"899 510 CURVE SMOOTH",
"1196 510 LINE",
"1139 262 LINE",
"1070 189 OFFCURVE",
"909 126 OFFCURVE",
"737 126 CURVE SMOOTH",
"584 126 OFFCURVE",
"475 167 OFFCURVE",
"411 250 CURVE SMOOTH",
"347 333 OFFCURVE",
"315 436 OFFCURVE",
"315 557 CURVE SMOOTH",
"315 814 OFFCURVE",
"369 1003 OFFCURVE",
"478 1125 CURVE SMOOTH",
"587 1247 OFFCURVE",
"728 1308 OFFCURVE",
"899 1308 CURVE SMOOTH",
"994 1308 OFFCURVE",
"1069 1287 OFFCURVE",
"1125 1246 CURVE SMOOTH",
"1181 1205 OFFCURVE",
"1217 1171 OFFCURVE",
"1234 1142 CURVE SMOOTH",
"1246 1122 OFFCURVE",
"1258 1111 OFFCURVE",
"1270 1111 CURVE SMOOTH",
"1276 1111 OFFCURVE",
"1281 1113 OFFCURVE",
"1287 1117 CURVE SMOOTH",
"1363 1167 LINE SMOOTH",
"1382 1180 OFFCURVE",
"1391 1195 OFFCURVE",
"1391 1213 CURVE SMOOTH",
"1391 1273 OFFCURVE",
"1308 1349 OFFCURVE",
"1224 1398 CURVE SMOOTH",
"1148 1442 OFFCURVE",
"1045 1464 OFFCURVE",
"916 1464 CURVE SMOOTH",
"401 1464 OFFCURVE",
"110 1101 OFFCURVE",
"110 580 CURVE SMOOTH"
);
}
);
width = 1470;
},
{
layerId = "18E77EB5-4A27-4F30-B34A-BA542DA126C8";
paths = (
{
closed = 1;
nodes = (
"100 165 OFFCURVE",
"350 -34 OFFCURVE",
"745 -34 CURVE SMOOTH",
"955 -34 OFFCURVE",
"1168 43 OFFCURVE",
"1330 138 CURVE",
"1450 659 LINE SMOOTH",
"1452 666 OFFCURVE",
"1452 673 OFFCURVE",
"1452 679 CURVE SMOOTH",
"1452 709 OFFCURVE",
"1432 724 OFFCURVE",
"1390 724 CURVE SMOOTH",
"956 724 LINE SMOOTH",
"906 724 OFFCURVE",
"876 702 OFFCURVE",
"866 659 CURVE SMOOTH",
"839 541 LINE SMOOTH",
"837 534 OFFCURVE",
"836 527 OFFCURVE",
"836 521 CURVE SMOOTH",
"836 491 OFFCURVE",
"857 476 OFFCURVE",
"899 476 CURVE SMOOTH",
"1116 476 LINE",
"1078 312 LINE",
"994 248 OFFCURVE",
"890 202 OFFCURVE",
"766 202 CURVE SMOOTH",
"627 202 OFFCURVE",
"534 235 OFFCURVE",
"485 300 CURVE SMOOTH",
"436 365 OFFCURVE",
"412 449 OFFCURVE",
"412 550 CURVE SMOOTH",
"412 983 OFFCURVE",
"582 1232 OFFCURVE",
"881 1232 CURVE SMOOTH",
"975 1232 OFFCURVE",
"1098 1197 OFFCURVE",
"1163 1110 CURVE SMOOTH",
"1186 1079 OFFCURVE",
"1207 1064 OFFCURVE",
"1229 1064 CURVE SMOOTH",
"1239 1064 OFFCURVE",
"1249 1067 OFFCURVE",
"1259 1074 CURVE SMOOTH",
"1383 1157 LINE SMOOTH",
"1405 1172 OFFCURVE",
"1417 1190 OFFCURVE",
"1417 1211 CURVE SMOOTH",
"1417 1282 OFFCURVE",
"1316 1365 OFFCURVE",
"1213 1410 CURVE SMOOTH",
"1125 1449 OFFCURVE",
"1022 1468 OFFCURVE",
"902 1468 CURVE SMOOTH",
"635 1468 OFFCURVE",
"434 1382 OFFCURVE",
"300 1209 CURVE SMOOTH",
"167 1037 OFFCURVE",
"100 830 OFFCURVE",
"100 588 CURVE SMOOTH"
);
}
);
width = 1510;
}
);
unicode = 0047;
},
{
glyphname = H;
lastChange = "2016-10-15 02:32:41 +0000";
layers = (
{
layerId = UUID0;
paths = (
{
closed = 1;
nodes = (
"192 0 LINE SMOOTH",
"224 0 OFFCURVE",
"246 18 OFFCURVE",
"255 55 CURVE SMOOTH",
"395 664 LINE",
"1093 664 LINE",
"953 55 LINE SMOOTH",
"951 47 OFFCURVE",
"950 40 OFFCURVE",
"950 34 CURVE SMOOTH",
"950 11 OFFCURVE",
"964 0 OFFCURVE",
"990 0 CURVE SMOOTH",
"1082 0 LINE SMOOTH",
"1115 0 OFFCURVE",
"1136 18 OFFCURVE",
"1145 55 CURVE SMOOTH",
"1450 1379 LINE SMOOTH",
"1452 1387 OFFCURVE",
"1453 1393 OFFCURVE",
"1453 1399 CURVE SMOOTH",
"1453 1423 OFFCURVE",
"1439 1434 OFFCURVE",
"1413 1434 CURVE SMOOTH",
"1321 1434 LINE SMOOTH",
"1288 1434 OFFCURVE",
"1266 1416 OFFCURVE",
"1258 1379 CURVE SMOOTH",
"1131 828 LINE",
"433 828 LINE",
"560 1379 LINE SMOOTH",
"562 1387 OFFCURVE",
"563 1393 OFFCURVE",
"563 1399 CURVE SMOOTH",
"563 1423 OFFCURVE",
"549 1434 OFFCURVE",
"523 1434 CURVE SMOOTH",
"431 1434 LINE SMOOTH",
"398 1434 OFFCURVE",
"376 1416 OFFCURVE",
"368 1379 CURVE SMOOTH",
"63 55 LINE SMOOTH",
"61 47 OFFCURVE",
"60 40 OFFCURVE",
"60 34 CURVE SMOOTH",
"60 11 OFFCURVE",
"74 0 OFFCURVE",
"100 0 CURVE SMOOTH"
);
}
);
width = 1422;
},
{
layerId = "18E77EB5-4A27-4F30-B34A-BA542DA126C8";
paths = (
{
closed = 1;
nodes = (
"262 0 LINE SMOOTH",
"309 0 OFFCURVE",
"337 25 OFFCURVE",
"349 75 CURVE SMOOTH",
"476 622 LINE",
"1014 622 LINE",
"887 75 LINE SMOOTH",
"885 65 OFFCURVE",
"884 56 OFFCURVE",
"884 48 CURVE SMOOTH",
"884 16 OFFCURVE",
"902 0 OFFCURVE",
"940 0 CURVE SMOOTH",
"1092 0 LINE SMOOTH",
"1139 0 OFFCURVE",
"1167 25 OFFCURVE",
"1179 75 CURVE SMOOTH",
"1476 1359 LINE SMOOTH",
"1478 1369 OFFCURVE",
"1479 1378 OFFCURVE",
"1479 1385 CURVE SMOOTH",
"1479 1418 OFFCURVE",
"1461 1434 OFFCURVE",
"1423 1434 CURVE SMOOTH",
"1271 1434 LINE SMOOTH",
"1223 1434 OFFCURVE",
"1195 1409 OFFCURVE",
"1184 1359 CURVE SMOOTH",
"1071 870 LINE",
"533 870 LINE",
"646 1359 LINE SMOOTH",
"648 1369 OFFCURVE",
"649 1378 OFFCURVE",
"649 1385 CURVE SMOOTH",
"649 1418 OFFCURVE",
"631 1434 OFFCURVE",
"593 1434 CURVE SMOOTH",
"441 1434 LINE SMOOTH",
"393 1434 OFFCURVE",
"365 1409 OFFCURVE",
"354 1359 CURVE SMOOTH",
"57 75 LINE SMOOTH",
"55 65 OFFCURVE",
"54 56 OFFCURVE",
"54 48 CURVE SMOOTH",
"54 16 OFFCURVE",
"72 0 OFFCURVE",
"110 0 CURVE SMOOTH"
);
}
);
width = 1442;
}
);
unicode = 0048;
},
{
glyphname = I;
lastChange = "2016-10-15 02:32:41 +0000";
layers = (
{
layerId = UUID0;
paths = (
{
closed = 1;
nodes = (
"192 0 LINE SMOOTH",
"225 0 OFFCURVE",
"246 18 OFFCURVE",
"255 55 CURVE SMOOTH",
"560 1379 LINE SMOOTH",
"562 1387 OFFCURVE",
"563 1393 OFFCURVE",
"563 1399 CURVE SMOOTH",
"563 1423 OFFCURVE",
"549 1434 OFFCURVE",
"523 1434 CURVE SMOOTH",
"431 1434 LINE SMOOTH",
"398 1434 OFFCURVE",
"376 1416 OFFCURVE",
"368 1379 CURVE SMOOTH",
"63 55 LINE SMOOTH",
"61 47 OFFCURVE",
"60 40 OFFCURVE",
"60 34 CURVE SMOOTH",
"60 11 OFFCURVE",
"74 0 OFFCURVE",
"100 0 CURVE SMOOTH"
);
}
);
width = 532;
},
{
layerId = "18E77EB5-4A27-4F30-B34A-BA542DA126C8";
paths = (
{
closed = 1;
nodes = (
"262 0 LINE SMOOTH",
"309 0 OFFCURVE",
"337 25 OFFCURVE",
"349 75 CURVE SMOOTH",
"646 1359 LINE SMOOTH",
"648 1369 OFFCURVE",
"649 1378 OFFCURVE",
"649 1385 CURVE SMOOTH",
"649 1418 OFFCURVE",
"631 1434 OFFCURVE",
"593 1434 CURVE SMOOTH",
"441 1434 LINE SMOOTH",
"393 1434 OFFCURVE",
"365 1409 OFFCURVE",
"354 1359 CURVE SMOOTH",
"57 75 LINE SMOOTH",
"55 65 OFFCURVE",
"54 56 OFFCURVE",
"54 48 CURVE SMOOTH",
"54 16 OFFCURVE",
"72 0 OFFCURVE",
"110 0 CURVE SMOOTH"
);
}
);
width = 612;
}
);
unicode = 0049;
},
{
glyphname = J;
lastChange = "2016-10-15 02:32:41 +0000";
layers = (
{
layerId = UUID0;
paths = (
{
closed = 1;
nodes = (
"27 -10 OFFCURVE",
"98 -30 OFFCURVE",
"175 -30 CURVE SMOOTH",
"327 -30 OFFCURVE",
"434 12 OFFCURVE",
"495 97 CURVE SMOOTH",
"556 182 OFFCURVE",
"600 284 OFFCURVE",
"627 401 CURVE SMOOTH",
"852 1379 LINE SMOOTH",
"854 1387 OFFCURVE",
"855 1393 OFFCURVE",
"855 1399 CURVE SMOOTH",
"855 1423 OFFCURVE",
"841 1434 OFFCURVE",
"815 1434 CURVE SMOOTH",
"723 1434 LINE SMOOTH",
"690 1434 OFFCURVE",
"668 1416 OFFCURVE",
"660 1379 CURVE SMOOTH",
"429 378 LINE SMOOTH",
"391 215 OFFCURVE",
"323 126 OFFCURVE",
"194 126 CURVE SMOOTH",
"153 126 OFFCURVE",
"109 144 OFFCURVE",
"62 179 CURVE SMOOTH",
"48 189 OFFCURVE",
"35 195 OFFCURVE",
"24 195 CURVE SMOOTH",
"8 195 OFFCURVE",
"-4 185 OFFCURVE",
"-14 165 CURVE SMOOTH",
"-50 94 LINE SMOOTH",
"-56 83 OFFCURVE",
"-59 73 OFFCURVE",
"-59 64 CURVE SMOOTH",
"-59 49 OFFCURVE",
"-51 38 OFFCURVE",
"-37 29 CURVE SMOOTH"
);
}
);
width = 824;
},
{
layerId = "18E77EB5-4A27-4F30-B34A-BA542DA126C8";
paths = (
{
closed = 1;
nodes = (
"35 -15 OFFCURVE",
"113 -34 OFFCURVE",
"207 -34 CURVE SMOOTH",
"355 -34 OFFCURVE",
"476 2 OFFCURVE",
"569 74 CURVE SMOOTH",
"662 147 OFFCURVE",
"737 306 OFFCURVE",
"794 551 CURVE SMOOTH",
"981 1359 LINE SMOOTH",
"983 1369 OFFCURVE",
"984 1378 OFFCURVE",
"984 1385 CURVE SMOOTH",
"984 1418 OFFCURVE",
"966 1434 OFFCURVE",
"928 1434 CURVE SMOOTH",
"776 1434 LINE SMOOTH",
"728 1434 OFFCURVE",
"700 1409 OFFCURVE",
"689 1359 CURVE SMOOTH",
"498 531 LINE SMOOTH",
"447 308 OFFCURVE",
"384 202 OFFCURVE",
"228 202 CURVE SMOOTH",
"180 202 OFFCURVE",
"135 216 OFFCURVE",
"92 243 CURVE SMOOTH",
"72 256 OFFCURVE",
"55 262 OFFCURVE",
"41 262 CURVE SMOOTH",
"23 262 OFFCURVE",
"10 252 OFFCURVE",
"2 231 CURVE SMOOTH",
"-48 97 LINE SMOOTH",
"-52 87 OFFCURVE",
"-54 77 OFFCURVE",
"-54 68 CURVE SMOOTH",
"-54 49 OFFCURVE",
"-45 34 OFFCURVE",
"-26 22 CURVE SMOOTH"
);
}
);
width = 947;
}
);
unicode = 004A;
},
{
glyphname = K;
lastChange = "2016-10-15 02:32:41 +0000";
layers = (
{
layerId = UUID0;
paths = (
{
closed = 1;
nodes = (
"192 0 LINE SMOOTH",
"225 0 OFFCURVE",
"246 18 OFFCURVE",
"255 55 CURVE SMOOTH",
"351 471 LINE",
"655 723 LINE",
"962 39 LINE SMOOTH",
"974 13 OFFCURVE",
"994 0 OFFCURVE",
"1023 0 CURVE SMOOTH",
"1130 0 LINE SMOOTH",
"1158 0 OFFCURVE",
"1173 10 OFFCURVE",
"1173 30 CURVE SMOOTH",
"1173 40 OFFCURVE",
"1169 52 OFFCURVE",
"1163 66 CURVE SMOOTH",
"809 850 LINE",
"1437 1368 LINE SMOOTH",
"1463 1389 OFFCURVE",
"1476 1406 OFFCURVE",
"1476 1417 CURVE SMOOTH",
"1476 1428 OFFCURVE",
"1462 1434 OFFCURVE",
"1434 1434 CURVE SMOOTH",
"1291 1434 LINE SMOOTH",
"1270 1434 OFFCURVE",
"1243 1421 OFFCURVE",
"1212 1395 CURVE SMOOTH",
"413 734 LINE",
"409 734 LINE",
"420 773 OFFCURVE",
"426 799 OFFCURVE",
"430 814 CURVE SMOOTH",
"560 1379 LINE SMOOTH",
"562 1387 OFFCURVE",
"563 1393 OFFCURVE",
"563 1399 CURVE SMOOTH",
"563 1423 OFFCURVE",
"549 1434 OFFCURVE",
"523 1434 CURVE SMOOTH",
"431 1434 LINE SMOOTH",
"398 1434 OFFCURVE",
"376 1416 OFFCURVE",
"368 1379 CURVE SMOOTH",
"63 55 LINE SMOOTH",
"61 47 OFFCURVE",
"60 40 OFFCURVE",
"60 34 CURVE SMOOTH",
"60 11 OFFCURVE",
"74 0 OFFCURVE",
"100 0 CURVE SMOOTH"
);
}
);
width = 1328;
},
{
layerId = "18E77EB5-4A27-4F30-B34A-BA542DA126C8";
paths = (
{
closed = 1;
nodes = (
"262 0 LINE SMOOTH",
"309 0 OFFCURVE",
"337 25 OFFCURVE",
"349 75 CURVE SMOOTH",
"434 443 LINE",
"673 652 LINE",
"913 59 LINE SMOOTH",
"929 20 OFFCURVE",
"954 0 OFFCURVE",
"989 0 CURVE SMOOTH",
"1145 0 LINE SMOOTH",
"1190 0 OFFCURVE",
"1212 15 OFFCURVE",
"1212 45 CURVE SMOOTH",
"1212 57 OFFCURVE",
"1209 70 OFFCURVE",
"1203 86 CURVE SMOOTH",
"894 845 LINE",
"1467 1348 LINE SMOOTH",
"1497 1374 OFFCURVE",
"1512 1394 OFFCURVE",
"1512 1408 CURVE SMOOTH",
"1512 1425 OFFCURVE",
"1491 1434 OFFCURVE",
"1449 1434 CURVE SMOOTH",
"1209 1434 LINE SMOOTH",
"1183 1434 OFFCURVE",
"1148 1414 OFFCURVE",
"1103 1375 CURVE SMOOTH",
"530 873 LINE",
"523 873 LINE",
"539 914 OFFCURVE",
"552 954 OFFCURVE",
"561 993 CURVE SMOOTH",
"646 1359 LINE SMOOTH",
"648 1369 OFFCURVE",
"649 1378 OFFCURVE",
"649 1385 CURVE SMOOTH",
"649 1418 OFFCURVE",
"631 1434 OFFCURVE",
"593 1434 CURVE SMOOTH",
"441 1434 LINE SMOOTH",
"393 1434 OFFCURVE",
"365 1409 OFFCURVE",
"354 1359 CURVE SMOOTH",
"57 75 LINE SMOOTH",
"55 65 OFFCURVE",
"54 56 OFFCURVE",
"54 48 CURVE SMOOTH",
"54 16 OFFCURVE",
"72 0 OFFCURVE",
"110 0 CURVE SMOOTH"
);
}
);
width = 1361;
}
);
unicode = 004B;
},
{
glyphname = L;
lastChange = "2016-10-15 02:32:41 +0000";
layers = (
{
layerId = UUID0;
paths = (
{
closed = 1;
nodes = (
"905 0 LINE SMOOTH",
"942 0 OFFCURVE",
"963 15 OFFCURVE",
"970 45 CURVE SMOOTH",
"987 119 LINE SMOOTH",
"988 124 OFFCURVE",
"989 128 OFFCURVE",
"989 133 CURVE SMOOTH",
"989 154 OFFCURVE",
"974 164 OFFCURVE",
"943 164 CURVE SMOOTH",
"280 164 LINE",
"560 1379 LINE SMOOTH",
"562 1387 OFFCURVE",
"563 1393 OFFCURVE",
"563 1399 CURVE SMOOTH",
"563 1423 OFFCURVE",
"549 1434 OFFCURVE",
"523 1434 CURVE SMOOTH",
"431 1434 LINE SMOOTH",
"398 1434 OFFCURVE",
"376 1416 OFFCURVE",
"368 1379 CURVE SMOOTH",
"63 55 LINE SMOOTH",
"61 47 OFFCURVE",
"60 40 OFFCURVE",
"60 34 CURVE SMOOTH",
"60 11 OFFCURVE",
"74 0 OFFCURVE",
"100 0 CURVE SMOOTH"
);
}
);
width = 1136;
},
{
layerId = "18E77EB5-4A27-4F30-B34A-BA542DA126C8";
paths = (
{
closed = 1;
nodes = (
"915 0 LINE SMOOTH",
"965 0 OFFCURVE",
"995 22 OFFCURVE",
"1005 65 CURVE SMOOTH",
"1032 183 LINE SMOOTH",
"1034 190 OFFCURVE",
"1034 197 OFFCURVE",
"1034 203 CURVE SMOOTH",
"1034 233 OFFCURVE",
"1014 248 OFFCURVE",
"972 248 CURVE SMOOTH",
"389 248 LINE",
"646 1359 LINE SMOOTH",
"648 1370 OFFCURVE",
"649 1380 OFFCURVE",
"649 1388 CURVE SMOOTH",
"649 1419 OFFCURVE",
"634 1434 OFFCURVE",
"603 1434 CURVE SMOOTH",
"441 1434 LINE SMOOTH",
"393 1434 OFFCURVE",
"365 1409 OFFCURVE",
"354 1359 CURVE SMOOTH",
"57 75 LINE SMOOTH",
"55 65 OFFCURVE",
"54 56 OFFCURVE",
"54 48 CURVE SMOOTH",
"54 16 OFFCURVE",
"72 0 OFFCURVE",
"110 0 CURVE SMOOTH"
);
}
);
width = 1162;
}
);
unicode = 004C;
},
{
glyphname = Lslash;
lastChange = "2016-10-15 02:32:41 +0000";
layers = (
{
layerId = UUID0;
paths = (
{
closed = 1;
nodes = (
"280 551 LINE",
"284 551 LINE",
"277 528 OFFCURVE",
"271 501 OFFCURVE",
"264 471 CURVE SMOOTH",
"168 55 LINE SMOOTH",
"166 47 OFFCURVE",
"165 40 OFFCURVE",
"165 34 CURVE SMOOTH",
"165 11 OFFCURVE",
"179 0 OFFCURVE",
"205 0 CURVE SMOOTH",
"1010 0 LINE SMOOTH",
"1047 0 OFFCURVE",
"1068 15 OFFCURVE",
"1075 45 CURVE SMOOTH",
"1092 119 LINE SMOOTH",
"1093 124 OFFCURVE",
"1094 128 OFFCURVE",
"1094 132 CURVE SMOOTH",
"1094 153 OFFCURVE",
"1078 164 OFFCURVE",
"1048 164 CURVE SMOOTH",
"385 164 LINE",
"505 683 LINE",
"840 878 LINE SMOOTH",
"867 893 OFFCURVE",
"883 913 OFFCURVE",
"889 941 CURVE SMOOTH",
"917 1063 LINE SMOOTH",
"918 1068 OFFCURVE",
"919 1073 OFFCURVE",
"919 1077 CURVE SMOOTH",
"919 1088 OFFCURVE",
"914 1093 OFFCURVE",
"905 1093 CURVE",
"897 1094 OFFCURVE",
"883 1088 OFFCURVE",
"866 1078 CURVE SMOOTH",
"556 897 LINE",
"552 897 LINE",
"573 977 LINE",
"665 1379 LINE SMOOTH",
"667 1387 OFFCURVE",
"668 1393 OFFCURVE",
"668 1399 CURVE SMOOTH",
"668 1423 OFFCURVE",
"654 1434 OFFCURVE",
"628 1434 CURVE SMOOTH",
"536 1434 LINE SMOOTH",
"503 1434 OFFCURVE",
"481 1416 OFFCURVE",
"473 1379 CURVE SMOOTH",
"332 765 LINE",
"124 644 LINE SMOOTH",
"97 628 OFFCURVE",
"80 607 OFFCURVE",
"74 581 CURVE SMOOTH",
"46 459 LINE SMOOTH",
"45 453 OFFCURVE",
"44 448 OFFCURVE",
"44 444 CURVE SMOOTH",
"44 434 OFFCURVE",
"48 428 OFFCURVE",
"57 428 CURVE SMOOTH",
"66 428 OFFCURVE",
"79 434 OFFCURVE",
"97 444 CURVE SMOOTH"
);
}
);
width = 1241;
},
{
layerId = "18E77EB5-4A27-4F30-B34A-BA542DA126C8";
paths = (
{
closed = 1;
nodes = (
"229 468 LINE",
"236 468 LINE",
"222 429 OFFCURVE",
"212 389 OFFCURVE",
"203 348 CURVE SMOOTH",
"139 75 LINE",
"136 65 OFFCURVE",
"135 56 OFFCURVE",
"135 48 CURVE SMOOTH",
"135 16 OFFCURVE",
"154 0 OFFCURVE",
"192 0 CURVE SMOOTH",
"997 0 LINE SMOOTH",
"1047 0 OFFCURVE",
"1077 22 OFFCURVE",
"1087 65 CURVE SMOOTH",
"1114 183 LINE SMOOTH",
"1116 190 OFFCURVE",
"1116 197 OFFCURVE",
"1116 203 CURVE SMOOTH",
"1116 233 OFFCURVE",
"1096 248 OFFCURVE",
"1054 248 CURVE SMOOTH",
"471 248 LINE",
"569 668 LINE",
"861 837 LINE SMOOTH",
"900 859 OFFCURVE",
"923 888 OFFCURVE",
"931 925 CURVE SMOOTH",
"967 1085 LINE SMOOTH",
"968 1092 OFFCURVE",
"969 1098 OFFCURVE",
"969 1103 CURVE SMOOTH",
"969 1117 OFFCURVE",
"963 1124 OFFCURVE",
"952 1124 CURVE SMOOTH",
"940 1124 OFFCURVE",
"923 1118 OFFCURVE",
"901 1105 CURVE SMOOTH",
"634 950 LINE",
"627 950 LINE",
"640 989 OFFCURVE",
"650 1029 OFFCURVE",
"660 1070 CURVE SMOOTH",
"728 1359 LINE SMOOTH",
"731 1370 OFFCURVE",
"732 1381 OFFCURVE",
"732 1389 CURVE SMOOTH",
"732 1419 OFFCURVE",
"716 1434 OFFCURVE",
"685 1434 CURVE SMOOTH",
"523 1434 LINE SMOOTH",
"475 1434 OFFCURVE",
"447 1409 OFFCURVE",
"436 1359 CURVE SMOOTH",
"294 750 LINE",
"136 658 LINE SMOOTH",
"97 635 OFFCURVE",
"74 606 OFFCURVE",
"66 570 CURVE SMOOTH",
"31 410 LINE SMOOTH",
"29 403 OFFCURVE",
"29 397 OFFCURVE",
"29 392 CURVE SMOOTH",
"29 378 OFFCURVE",
"34 371 OFFCURVE",
"46 371 CURVE SMOOTH",
"57 371 OFFCURVE",
"74 377 OFFCURVE",
"96 390 CURVE SMOOTH"
);
}
);
width = 1244;
}
);
unicode = 0141;
},
{
glyphname = M;
lastChange = "2016-10-15 02:32:41 +0000";
layers = (
{
layerId = UUID0;
paths = (
{
closed = 1;
nodes = (
"192 0 LINE SMOOTH",
"225 0 OFFCURVE",
"246 18 OFFCURVE",
"255 55 CURVE SMOOTH",
"497 1104 LINE SMOOTH",
"502 1128 OFFCURVE",
"507 1155 OFFCURVE",
"513 1184 CURVE",
"517 1184 LINE",
"627 61 LINE SMOOTH",
"631 20 OFFCURVE",
"648 0 OFFCURVE",
"679 0 CURVE SMOOTH",
"789 0 LINE SMOOTH",
"820 0 OFFCURVE",
"846 20 OFFCURVE",
"869 61 CURVE SMOOTH",
"1497 1184 LINE",
"1501 1184 LINE",
"1494 1161 OFFCURVE",
"1488 1134 OFFCURVE",
"1481 1104 CURVE SMOOTH",
"1239 55 LINE SMOOTH",
"1237 47 OFFCURVE",
"1236 40 OFFCURVE",
"1236 34 CURVE SMOOTH",
"1236 11 OFFCURVE",
"1250 0 OFFCURVE",
"1276 0 CURVE SMOOTH",
"1368 0 LINE SMOOTH",
"1401 0 OFFCURVE",
"1422 18 OFFCURVE",
"1431 55 CURVE SMOOTH",
"1736 1379 LINE SMOOTH",
"1738 1387 OFFCURVE",
"1739 1393 OFFCURVE",
"1739 1399 CURVE SMOOTH",
"1739 1423 OFFCURVE",
"1725 1434 OFFCURVE",
"1699 1434 CURVE SMOOTH",
"1474 1434 LINE SMOOTH",
"1449 1434 OFFCURVE",
"1425 1414 OFFCURVE",
"1403 1374 CURVE SMOOTH",
"910 477 LINE SMOOTH",
"848 365 OFFCURVE",
"809 290 OFFCURVE",
"773 206 CURVE",
"767 206 LINE",
"766 286 OFFCURVE",
"763 368 OFFCURVE",
"754 477 CURVE SMOOTH",
"675 1374 LINE SMOOTH",
"671 1414 OFFCURVE",
"657 1434 OFFCURVE",
"632 1434 CURVE SMOOTH",
"431 1434 LINE SMOOTH",
"398 1434 OFFCURVE",
"376 1416 OFFCURVE",
"368 1379 CURVE SMOOTH",
"63 55 LINE SMOOTH",
"61 47 OFFCURVE",
"60 40 OFFCURVE",
"60 34 CURVE SMOOTH",
"60 11 OFFCURVE",
"74 0 OFFCURVE",
"100 0 CURVE SMOOTH"
);
}
);
width = 1708;
},
{
layerId = "18E77EB5-4A27-4F30-B34A-BA542DA126C8";
paths = (
{
closed = 1;
nodes = (
"262 0 LINE SMOOTH",
"309 0 OFFCURVE",
"337 25 OFFCURVE",
"349 75 CURVE SMOOTH",
"540 901 LINE SMOOTH",
"549 942 OFFCURVE",
"557 982 OFFCURVE",
"563 1021 CURVE",
"570 1021 LINE",
"642 81 LINE SMOOTH",
"646 27 OFFCURVE",
"668 0 OFFCURVE",
"709 0 CURVE SMOOTH",
"879 0 LINE SMOOTH",
"920 0 OFFCURVE",
"955 27 OFFCURVE",
"984 81 CURVE SMOOTH",
"1490 1021 LINE",
"1497 1021 LINE",
"1484 980 OFFCURVE",
"1473 940 OFFCURVE",
"1464 901 CURVE SMOOTH",
"1273 75 LINE SMOOTH",
"1271 65 OFFCURVE",
"1270 56 OFFCURVE",
"1270 48 CURVE SMOOTH",
"1270 16 OFFCURVE",
"1288 0 OFFCURVE",
"1326 0 CURVE SMOOTH",
"1478 0 LINE SMOOTH",
"1525 0 OFFCURVE",
"1553 25 OFFCURVE",
"1565 75 CURVE SMOOTH",
"1862 1359 LINE SMOOTH",
"1864 1369 OFFCURVE",
"1865 1378 OFFCURVE",
"1865 1385 CURVE SMOOTH",
"1865 1418 OFFCURVE",
"1847 1434 OFFCURVE",
"1809 1434 CURVE SMOOTH",
"1505 1434 LINE SMOOTH",
"1466 1434 OFFCURVE",
"1433 1407 OFFCURVE",
"1404 1354 CURVE SMOOTH",
"930 477 LINE SMOOTH",
"886 395 OFFCURVE",
"876 369 OFFCURVE",
"852 297 CURVE",
"846 297 LINE",
"851 340 OFFCURVE",
"853 372 OFFCURVE",
"853 400 CURVE SMOOTH",
"853 420 OFFCURVE",
"852 446 OFFCURVE",
"850 477 CURVE SMOOTH",
"782 1354 LINE SMOOTH",
"778 1407 OFFCURVE",
"756 1434 OFFCURVE",
"717 1434 CURVE SMOOTH",
"441 1434 LINE SMOOTH",
"393 1434 OFFCURVE",
"365 1409 OFFCURVE",
"354 1359 CURVE SMOOTH",
"57 75 LINE SMOOTH",
"55 65 OFFCURVE",
"54 56 OFFCURVE",
"54 48 CURVE SMOOTH",
"54 16 OFFCURVE",
"72 0 OFFCURVE",
"110 0 CURVE SMOOTH"
);
}
);
width = 1828;
}
);
unicode = 004D;
},
{
glyphname = N;
lastChange = "2016-10-15 02:32:41 +0000";
layers = (
{
layerId = UUID0;
paths = (
{
closed = 1;
nodes = (
"192 0 LINE SMOOTH",
"225 0 OFFCURVE",
"246 18 OFFCURVE",
"255 55 CURVE SMOOTH",
"495 1095 LINE SMOOTH",
"500 1119 OFFCURVE",
"505 1146 OFFCURVE",
"511 1175 CURVE",
"515 1175 LINE",
"928 50 LINE SMOOTH",
"940 17 OFFCURVE",
"969 0 OFFCURVE",
"1016 0 CURVE SMOOTH",
"1098 0 LINE SMOOTH",
"1131 0 OFFCURVE",
"1152 18 OFFCURVE",
"1161 55 CURVE SMOOTH",
"1466 1379 LINE SMOOTH",
"1468 1387 OFFCURVE",
"1469 1393 OFFCURVE",
"1469 1399 CURVE SMOOTH",
"1469 1423 OFFCURVE",
"1455 1434 OFFCURVE",
"1429 1434 CURVE SMOOTH",
"1337 1434 LINE SMOOTH",
"1304 1434 OFFCURVE",
"1282 1416 OFFCURVE",
"1274 1379 CURVE SMOOTH",
"1050 404 LINE SMOOTH",
"1045 381 OFFCURVE",
"1039 355 OFFCURVE",
"1033 324 CURVE",
"1029 324 LINE",
"641 1384 LINE SMOOTH",
"629 1417 OFFCURVE",
"599 1434 OFFCURVE",
"552 1434 CURVE SMOOTH",
"431 1434 LINE SMOOTH",
"398 1434 OFFCURVE",
"376 1416 OFFCURVE",
"368 1379 CURVE SMOOTH",
"63 55 LINE SMOOTH",
"61 47 OFFCURVE",
"60 40 OFFCURVE",
"60 34 CURVE SMOOTH",
"60 11 OFFCURVE",
"74 0 OFFCURVE",
"100 0 CURVE SMOOTH"
);
}
);
width = 1438;
},
{
layerId = "18E77EB5-4A27-4F30-B34A-BA542DA126C8";
paths = (
{
closed = 1;
nodes = (
"262 0 LINE SMOOTH",
"309 0 OFFCURVE",
"337 25 OFFCURVE",
"349 75 CURVE SMOOTH",
"518 806 LINE SMOOTH",
"527 846 OFFCURVE",
"535 886 OFFCURVE",
"541 926 CURVE",
"548 926 LINE",
"883 70 LINE SMOOTH",
"901 23 OFFCURVE",
"940 0 OFFCURVE",
"997 0 CURVE SMOOTH",
"1122 0 LINE SMOOTH",
"1169 0 OFFCURVE",
"1197 25 OFFCURVE",
"1209 75 CURVE SMOOTH",
"1506 1359 LINE SMOOTH",
"1508 1369 OFFCURVE",
"1509 1378 OFFCURVE",
"1509 1385 CURVE SMOOTH",
"1509 1418 OFFCURVE",
"1491 1434 OFFCURVE",
"1453 1434 CURVE SMOOTH",
"1301 1434 LINE SMOOTH",
"1253 1434 OFFCURVE",
"1225 1409 OFFCURVE",
"1214 1359 CURVE SMOOTH",
"1049 644 LINE SMOOTH",
"1040 604 OFFCURVE",
"1032 564 OFFCURVE",
"1026 524 CURVE",
"1019 524 LINE",
"690 1364 LINE SMOOTH",
"671 1411 OFFCURVE",
"632 1434 OFFCURVE",
"576 1434 CURVE SMOOTH",
"441 1434 LINE SMOOTH",
"393 1434 OFFCURVE",
"365 1409 OFFCURVE",
"354 1359 CURVE SMOOTH",
"57 75 LINE SMOOTH",
"55 65 OFFCURVE",
"54 56 OFFCURVE",
"54 48 CURVE SMOOTH",
"54 16 OFFCURVE",
"72 0 OFFCURVE",
"110 0 CURVE SMOOTH"
);
}
);
width = 1472;
}
);
unicode = 004E;
},
{
glyphname = Eng;
lastChange = "2016-10-15 02:32:41 +0000";
layers = (
{
layerId = UUID0;
paths = (
{
closed = 1;
nodes = (
"192 0 LINE SMOOTH",
"225 0 OFFCURVE",
"246 18 OFFCURVE",
"255 55 CURVE SMOOTH",
"429 809 LINE SMOOTH",
"487 1061 OFFCURVE",
"701 1308 OFFCURVE",
"910 1308 CURVE SMOOTH",
"1113 1308 OFFCURVE",
"1179 1246 OFFCURVE",
"1179 1104 CURVE SMOOTH",
"1179 1059 OFFCURVE",
"1172 1006 OFFCURVE",
"1158 944 CURVE SMOOTH",
"949 38 LINE SMOOTH",
"891 -212 OFFCURVE",
"807 -261 OFFCURVE",
"715 -261 CURVE SMOOTH",
"684 -261 OFFCURVE",
"649 -251 OFFCURVE",
"608 -232 CURVE SMOOTH",
"595 -226 OFFCURVE",
"584 -223 OFFCURVE",
"575 -223 CURVE SMOOTH",
"559 -223 OFFCURVE",
"547 -232 OFFCURVE",
"540 -249 CURVE SMOOTH",
"511 -320 LINE SMOOTH",
"507 -330 OFFCURVE",
"504 -339 OFFCURVE",
"504 -347 CURVE SMOOTH",
"504 -397 OFFCURVE",
"639 -417 OFFCURVE",
"696 -417 CURVE SMOOTH",
"918 -417 OFFCURVE",
"1059 -315 OFFCURVE",
"1130 -9 CURVE SMOOTH",
"1370 1032 LINE SMOOTH",
"1380 1074 OFFCURVE",
"1385 1114 OFFCURVE",
"1385 1151 CURVE SMOOTH",
"1385 1346 OFFCURVE",
"1244 1464 OFFCURVE",
"1031 1464 CURVE SMOOTH",
"818 1464 OFFCURVE",
"630 1360 OFFCURVE",
"525 1199 CURVE",
"521 1199 LINE",
"550 1379 LINE SMOOTH",
"551 1385 OFFCURVE",
"551 1391 OFFCURVE",
"551 1396 CURVE SMOOTH",
"551 1421 OFFCURVE",
"539 1434 OFFCURVE",
"513 1434 CURVE SMOOTH",
"431 1434 LINE SMOOTH",
"398 1434 OFFCURVE",
"376 1416 OFFCURVE",
"368 1379 CURVE SMOOTH",
"63 55 LINE SMOOTH",
"61 47 OFFCURVE",
"60 40 OFFCURVE",
"60 34 CURVE SMOOTH",
"60 11 OFFCURVE",
"74 0 OFFCURVE",
"100 0 CURVE SMOOTH"
);
}
);
width = 1422;
},
{
layerId = "18E77EB5-4A27-4F30-B34A-BA542DA126C8";
paths = (
{
closed = 1;
nodes = (
"262 0 LINE SMOOTH",
"309 0 OFFCURVE",
"337 25 OFFCURVE",
"349 75 CURVE SMOOTH",
"463 567 LINE SMOOTH",
"558 979 OFFCURVE",
"772 1232 OFFCURVE",
"916 1232 CURVE SMOOTH",
"1048 1232 OFFCURVE",
"1090 1161 OFFCURVE",
"1090 1030 CURVE",
"1091 981 OFFCURVE",
"1083 925 OFFCURVE",
"1069 864 CURVE SMOOTH",
"891 91 LINE SMOOTH",
"841 -128 OFFCURVE",
"782 -184 OFFCURVE",
"681 -184 CURVE SMOOTH",
"650 -184 OFFCURVE",
"619 -178 OFFCURVE",
"590 -167 CURVE SMOOTH",
"581 -163 OFFCURVE",
"572 -162 OFFCURVE",
"565 -162 CURVE SMOOTH",
"543 -162 OFFCURVE",
"528 -177 OFFCURVE",
"518 -206 CURVE SMOOTH",
"479 -320 LINE SMOOTH",
"475 -331 OFFCURVE",
"473 -341 OFFCURVE",
"473 -350 CURVE SMOOTH",
"473 -406 OFFCURVE",
"605 -420 OFFCURVE",
"685 -420 CURVE SMOOTH",
"938 -420 OFFCURVE",
"1097 -281 OFFCURVE",
"1170 35 CURVE SMOOTH",
"1382 952 LINE SMOOTH",
"1394 1003 OFFCURVE",
"1400 1052 OFFCURVE",
"1400 1097 CURVE SMOOTH",
"1400 1321 OFFCURVE",
"1246 1468 OFFCURVE",
"1074 1468 CURVE SMOOTH",
"845 1468 OFFCURVE",
"718 1344 OFFCURVE",
"606 1187 CURVE",
"599 1187 LINE",
"628 1359 LINE SMOOTH",
"629 1367 OFFCURVE",
"630 1375 OFFCURVE",
"630 1382 CURVE SMOOTH",
"630 1417 OFFCURVE",
"612 1434 OFFCURVE",
"575 1434 CURVE SMOOTH",
"441 1434 LINE SMOOTH",
"393 1434 OFFCURVE",
"365 1409 OFFCURVE",
"354 1359 CURVE SMOOTH",
"57 75 LINE SMOOTH",
"55 65 OFFCURVE",
"54 56 OFFCURVE",
"54 48 CURVE SMOOTH",
"54 16 OFFCURVE",
"72 0 OFFCURVE",
"110 0 CURVE SMOOTH"
);
}
);
width = 1442;
}
);
unicode = 014A;
},
{
glyphname = O;
lastChange = "2016-10-15 02:32:41 +0000";
layers = (
{
layerId = UUID0;
paths = (
{
closed = 1;
nodes = (
"110 203 OFFCURVE",
"318 -30 OFFCURVE",
"727 -30 CURVE SMOOTH",
"1178 -30 OFFCURVE",
"1495 323 OFFCURVE",
"1495 854 CURVE SMOOTH",
"1495 1233 OFFCURVE",
"1284 1464 OFFCURVE",
"878 1464 CURVE SMOOTH",
"426 1464 OFFCURVE",
"110 1111 OFFCURVE",
"110 580 CURVE SMOOTH"
);
},
{
closed = 1;
nodes = (
"315 813 OFFCURVE",
"370 1002 OFFCURVE",
"481 1124 CURVE SMOOTH",
"592 1247 OFFCURVE",
"720 1308 OFFCURVE",
"867 1308 CURVE SMOOTH",
"1147 1308 OFFCURVE",
"1290 1151 OFFCURVE",
"1290 878 CURVE SMOOTH",
"1290 621 OFFCURVE",
"1235 432 OFFCURVE",
"1124 309 CURVE SMOOTH",
"1013 187 OFFCURVE",
"885 126 OFFCURVE",
"738 126 CURVE SMOOTH",
"458 126 OFFCURVE",
"315 283 OFFCURVE",
"315 556 CURVE SMOOTH"
);
}
);
width = 1514;
},
{
layerId = "18E77EB5-4A27-4F30-B34A-BA542DA126C8";
paths = (
{
closed = 1;
nodes = (
"104 172 OFFCURVE",
"343 -34 OFFCURVE",
"742 -34 CURVE SMOOTH",
"975 -34 OFFCURVE",
"1163 51 OFFCURVE",
"1305 221 CURVE SMOOTH",
"1447 391 OFFCURVE",
"1518 600 OFFCURVE",
"1518 847 CURVE SMOOTH",
"1518 1263 OFFCURVE",
"1276 1468 OFFCURVE",
"880 1468 CURVE SMOOTH",
"647 1468 OFFCURVE",
"459 1383 OFFCURVE",
"317 1212 CURVE SMOOTH",
"175 1042 OFFCURVE",
"104 834 OFFCURVE",
"104 587 CURVE SMOOTH"
);
},
{
closed = 1;
nodes = (
"416 956 OFFCURVE",
"600 1232 OFFCURVE",
"866 1232 CURVE SMOOTH",
"1093 1232 OFFCURVE",
"1206 1102 OFFCURVE",
"1206 889 CURVE SMOOTH",
"1206 480 OFFCURVE",
"1024 202 OFFCURVE",
"756 202 CURVE SMOOTH",
"529 202 OFFCURVE",
"416 332 OFFCURVE",
"416 545 CURVE SMOOTH"
);
}
);
width = 1532;
}
);
unicode = 004F;
},
{
glyphname = Oslash;
lastChange = "2016-10-15 02:32:41 +0000";
layers = (
{
layerId = UUID0;
paths = (
{
closed = 1;
nodes = (
"110 457 OFFCURVE",
"132 351 OFFCURVE",
"176 262 CURVE",
"29 131 LINE SMOOTH",
"13 117 OFFCURVE",
"6 102 OFFCURVE",
"5 89 CURVE SMOOTH",
"5 79 OFFCURVE",
"9 70 OFFCURVE",
"18 60 CURVE SMOOTH",
"58 15 LINE SMOOTH",
"68 4 OFFCURVE",
"78 -2 OFFCURVE",
"90 -2 CURVE SMOOTH",
"102 -2 OFFCURVE",
"115 4 OFFCURVE",
"129 17 CURVE SMOOTH",
"263 136 LINE",
"367 25 OFFCURVE",
"522 -30 OFFCURVE",
"727 -30 CURVE SMOOTH",
"1178 -30 OFFCURVE",
"1495 323 OFFCURVE",
"1495 854 CURVE SMOOTH",
"1495 977 OFFCURVE",
"1473 1084 OFFCURVE",
"1429 1173 CURVE",
"1575 1303 LINE SMOOTH",
"1591 1317 OFFCURVE",
"1598 1331 OFFCURVE",
"1598 1345 CURVE SMOOTH",
"1598 1354 OFFCURVE",
"1594 1364 OFFCURVE",
"1586 1374 CURVE SMOOTH",
"1546 1419 LINE SMOOTH",
"1536 1430 OFFCURVE",
"1526 1436 OFFCURVE",
"1514 1436 CURVE SMOOTH",
"1502 1436 OFFCURVE",
"1489 1429 OFFCURVE",
"1475 1417 CURVE SMOOTH",
"1342 1299 LINE",
"1237 1409 OFFCURVE",
"1083 1464 OFFCURVE",
"878 1464 CURVE SMOOTH",
"426 1464 OFFCURVE",
"110 1111 OFFCURVE",
"110 580 CURVE SMOOTH"
);
},
{
closed = 1;
nodes = (
"315 813 OFFCURVE",
"370 1002 OFFCURVE",
"481 1124 CURVE SMOOTH",
"592 1247 OFFCURVE",
"720 1308 OFFCURVE",
"867 1308 CURVE SMOOTH",
"1019 1308 OFFCURVE",
"1131 1263 OFFCURVE",
"1202 1174 CURVE",
"333 402 LINE",
"321 448 OFFCURVE",
"315 499 OFFCURVE",
"315 556 CURVE SMOOTH"
);
},
{
closed = 1;
nodes = (
"1271 1033 LINE",
"1284 987 OFFCURVE",
"1290 935 OFFCURVE",
"1290 878 CURVE SMOOTH",
"1290 621 OFFCURVE",
"1235 432 OFFCURVE",
"1124 309 CURVE SMOOTH",
"1013 187 OFFCURVE",
"885 126 OFFCURVE",
"738 126 CURVE SMOOTH",
"586 126 OFFCURVE",
"474 171 OFFCURVE",
"403 260 CURVE"
);
}
);
width = 1514;
},
{
layerId = "18E77EB5-4A27-4F30-B34A-BA542DA126C8";
paths = (
{
closed = 1;
nodes = (
"104 474 OFFCURVE",
"121 377 OFFCURVE",
"154 295 CURVE",
"6 166 LINE SMOOTH",
"-11 151 OFFCURVE",
"-19 137 OFFCURVE",
"-19 122 CURVE SMOOTH",
"-19 110 OFFCURVE",
"-14 97 OFFCURVE",
"-3 85 CURVE SMOOTH",
"75 -6 LINE SMOOTH",
"87 -21 OFFCURVE",
"100 -28 OFFCURVE",
"114 -28 CURVE SMOOTH",
"128 -28 OFFCURVE",
"142 -21 OFFCURVE",
"157 -8 CURVE SMOOTH",
"289 107 LINE",
"400 13 OFFCURVE",
"551 -34 OFFCURVE",
"742 -34 CURVE SMOOTH",
"975 -34 OFFCURVE",
"1163 51 OFFCURVE",
"1305 221 CURVE SMOOTH",
"1447 392 OFFCURVE",
"1518 600 OFFCURVE",
"1518 847 CURVE SMOOTH",
"1518 960 OFFCURVE",
"1501 1057 OFFCURVE",
"1468 1139 CURVE",
"1616 1268 LINE SMOOTH",
"1633 1282 OFFCURVE",
"1641 1297 OFFCURVE",
"1641 1312 CURVE SMOOTH",
"1641 1324 OFFCURVE",
"1636 1336 OFFCURVE",
"1625 1349 CURVE SMOOTH",
"1547 1440 LINE SMOOTH",
"1535 1454 OFFCURVE",
"1521 1462 OFFCURVE",
"1507 1462 CURVE SMOOTH",
"1494 1462 OFFCURVE",
"1480 1455 OFFCURVE",
"1465 1442 CURVE SMOOTH",
"1333 1327 LINE",
"1222 1421 OFFCURVE",
"1071 1468 OFFCURVE",
"880 1468 CURVE SMOOTH",
"647 1468 OFFCURVE",
"459 1383 OFFCURVE",
"317 1212 CURVE SMOOTH",
"175 1042 OFFCURVE",
"104 834 OFFCURVE",
"104 587 CURVE SMOOTH"
);
},
{
closed = 1;
nodes = (
"416 545 LINE SMOOTH",
"416 956 OFFCURVE",
"600 1232 OFFCURVE",
"866 1232 CURVE SMOOTH",
"979 1232 OFFCURVE",
"1064 1202 OFFCURVE",
"1121 1141 CURVE",
"416 525 LINE"
);
},
{
closed = 1;
nodes = (
"1206 909 LINE",
"1206 889 LINE SMOOTH",
"1206 480 OFFCURVE",
"1024 202 OFFCURVE",
"756 202 CURVE SMOOTH",
"643 202 OFFCURVE",
"558 232 OFFCURVE",
"501 293 CURVE"
);
}
);
width = 1532;
}
);
unicode = 00D8;
},
{
glyphname = P;
lastChange = "2016-10-15 02:32:41 +0000";
layers = (
{
layerId = UUID0;
paths = (
{
closed = 1;
nodes = (
"192 0 LINE SMOOTH",
"225 0 OFFCURVE",
"246 18 OFFCURVE",
"255 55 CURVE SMOOTH",
"375 576 LINE",
"673 576 LINE SMOOTH",
"909 576 OFFCURVE",
"1075 624 OFFCURVE",
"1172 720 CURVE SMOOTH",
"1269 816 OFFCURVE",
"1318 924 OFFCURVE",
"1318 1045 CURVE SMOOTH",
"1318 1282 OFFCURVE",
"1153 1434 OFFCURVE",
"841 1434 CURVE SMOOTH",
"431 1434 LINE SMOOTH",
"398 1434 OFFCURVE",
"376 1416 OFFCURVE",
"368 1379 CURVE SMOOTH",
"63 55 LINE SMOOTH",
"61 47 OFFCURVE",
"60 40 OFFCURVE",
"60 34 CURVE SMOOTH",
"60 11 OFFCURVE",
"74 0 OFFCURVE",
"100 0 CURVE SMOOTH"
);
},
{
closed = 1;
nodes = (
"535 1270 LINE",
"806 1270 LINE SMOOTH",
"1026 1270 OFFCURVE",
"1123 1208 OFFCURVE",
"1123 1025 CURVE SMOOTH",
"1123 857 OFFCURVE",
"1004 740 OFFCURVE",
"724 740 CURVE SMOOTH",
"413 740 LINE"
);
}
);
width = 1298;
},
{
layerId = "18E77EB5-4A27-4F30-B34A-BA542DA126C8";
paths = (
{
closed = 1;
nodes = (
"262 0 LINE SMOOTH",
"309 0 OFFCURVE",
"337 25 OFFCURVE",
"349 75 CURVE SMOOTH",
"456 536 LINE",
"628 536 LINE SMOOTH",
"1110 536 OFFCURVE",
"1348 747 OFFCURVE",
"1348 1047 CURVE SMOOTH",
"1348 1315 OFFCURVE",
"1170 1434 OFFCURVE",
"795 1434 CURVE SMOOTH",
"441 1434 LINE SMOOTH",
"393 1434 OFFCURVE",
"365 1409 OFFCURVE",
"354 1359 CURVE SMOOTH",
"57 75 LINE SMOOTH",
"55 65 OFFCURVE",
"54 56 OFFCURVE",
"54 48 CURVE SMOOTH",
"54 16 OFFCURVE",
"72 0 OFFCURVE",
"110 0 CURVE SMOOTH"
);
},
{
closed = 1;
nodes = (
"607 1190 LINE",
"738 1190 LINE SMOOTH",
"977 1190 OFFCURVE",
"1052 1147 OFFCURVE",
"1052 1011 CURVE SMOOTH",
"1052 882 OFFCURVE",
"966 780 OFFCURVE",
"683 780 CURVE SMOOTH",
"512 780 LINE"
);
}
);
width = 1328;
}
);
unicode = 0050;
},
{
glyphname = Thorn;
lastChange = "2016-10-15 02:32:41 +0000";
layers = (
{
layerId = UUID0;
paths = (
{
closed = 1;
nodes = (
"190 -8 LINE SMOOTH",
"223 -8 OFFCURVE",
"244 10 OFFCURVE",
"253 47 CURVE SMOOTH",
"320 336 LINE",
"538 336 LINE SMOOTH",
"973 336 OFFCURVE",
"1194 524 OFFCURVE",
"1194 808 CURVE SMOOTH",
"1194 908 OFFCURVE",
"1161 994 OFFCURVE",
"1095 1067 CURVE SMOOTH",
"1029 1140 OFFCURVE",
"901 1176 OFFCURVE",
"712 1176 CURVE SMOOTH",
"514 1176 LINE",
"561 1380 LINE SMOOTH",
"563 1387 OFFCURVE",
"564 1394 OFFCURVE",
"564 1400 CURVE SMOOTH",
"564 1424 OFFCURVE",
"550 1435 OFFCURVE",
"523 1435 CURVE SMOOTH",
"431 1435 LINE SMOOTH",
"398 1435 OFFCURVE",
"377 1417 OFFCURVE",
"369 1380 CURVE SMOOTH",
"61 47 LINE SMOOTH",
"59 39 OFFCURVE",
"58 32 OFFCURVE",
"58 26 CURVE SMOOTH",
"58 3 OFFCURVE",
"72 -8 OFFCURVE",
"98 -8 CURVE SMOOTH"
);
},
{
closed = 1;
nodes = (
"476 1012 LINE",
"672 1012 LINE SMOOTH",
"899 1012 OFFCURVE",
"989 950 OFFCURVE",
"989 788 CURVE SMOOTH",
"989 614 OFFCURVE",
"843 500 OFFCURVE",
"593 500 CURVE SMOOTH",
"357 500 LINE"
);
}
);
width = 1233;
},
{
layerId = "18E77EB5-4A27-4F30-B34A-BA542DA126C8";
paths = (
{
closed = 1;
nodes = (
"259 -11 LINE SMOOTH",
"306 -11 OFFCURVE",
"335 14 OFFCURVE",
"347 64 CURVE SMOOTH",
"402 302 LINE",
"588 302 LINE SMOOTH",
"1052 302 OFFCURVE",
"1270 505 OFFCURVE",
"1270 811 CURVE SMOOTH",
"1270 1039 OFFCURVE",
"1109 1198 OFFCURVE",
"735 1198 CURVE SMOOTH",
"609 1198 LINE",
"647 1363 LINE SMOOTH",
"649 1373 OFFCURVE",
"650 1382 OFFCURVE",
"650 1389 CURVE SMOOTH",
"650 1422 OFFCURVE",
"632 1438 OFFCURVE",
"594 1438 CURVE SMOOTH",
"442 1438 LINE SMOOTH",
"394 1438 OFFCURVE",
"366 1413 OFFCURVE",
"355 1363 CURVE SMOOTH",
"55 64 LINE SMOOTH",
"53 54 OFFCURVE",
"52 45 OFFCURVE",
"52 37 CURVE SMOOTH",
"52 5 OFFCURVE",
"70 -11 OFFCURVE",
"107 -11 CURVE SMOOTH"
);
},
{
closed = 1;
nodes = (
"552 954 LINE",
"685 954 LINE SMOOTH",
"856 954 OFFCURVE",
"968 910 OFFCURVE",
"968 773 CURVE SMOOTH",
"968 615 OFFCURVE",
"838 546 OFFCURVE",
"651 546 CURVE SMOOTH",
"458 546 LINE"
);
}
);
width = 1306;
}
);
unicode = 00DE;
},
{
glyphname = Q;
lastChange = "2016-10-15 02:32:41 +0000";
layers = (
{
layerId = UUID0;
paths = (
{
closed = 1;
nodes = (
"110 237 OFFCURVE",
"285 8 OFFCURVE",
"625 -25 CURVE",
"625 -269 OFFCURVE",
"730 -377 OFFCURVE",
"1004 -377 CURVE SMOOTH",
"1039 -377 OFFCURVE",
"1098 -370 OFFCURVE",
"1179 -357 CURVE SMOOTH",
"1198 -354 OFFCURVE",
"1207 -347 OFFCURVE",
"1207 -333 CURVE SMOOTH",
"1207 -332 OFFCURVE",
"1207 -331 OFFCURVE",
"1207 -329 CURVE SMOOTH",
"1195 -239 LINE SMOOTH",
"1193 -228 OFFCURVE",
"1185 -222 OFFCURVE",
"1170 -222 CURVE SMOOTH",
"1164 -222 OFFCURVE",
"1159 -223 OFFCURVE",
"1152 -224 CURVE SMOOTH",
"1109 -233 OFFCURVE",
"1070 -237 OFFCURVE",
"1036 -237 CURVE SMOOTH",
"884 -237 OFFCURVE",
"819 -193 OFFCURVE",
"817 -26 CURVE",
"1221 15 OFFCURVE",
"1495 363 OFFCURVE",
"1495 854 CURVE SMOOTH",
"1495 1233 OFFCURVE",
"1284 1464 OFFCURVE",
"878 1464 CURVE SMOOTH",
"426 1464 OFFCURVE",
"110 1111 OFFCURVE",
"110 580 CURVE SMOOTH"
);
},
{
closed = 1;
nodes = (
"315 813 OFFCURVE",
"370 1002 OFFCURVE",
"481 1124 CURVE SMOOTH",
"592 1247 OFFCURVE",
"720 1308 OFFCURVE",
"867 1308 CURVE SMOOTH",
"1147 1308 OFFCURVE",
"1290 1151 OFFCURVE",
"1290 878 CURVE SMOOTH",
"1290 621 OFFCURVE",
"1235 432 OFFCURVE",
"1124 309 CURVE SMOOTH",
"1013 187 OFFCURVE",
"885 126 OFFCURVE",
"738 126 CURVE SMOOTH",
"458 126 OFFCURVE",
"315 283 OFFCURVE",
"315 556 CURVE SMOOTH"
);
}
);
width = 1514;
},
{
layerId = "18E77EB5-4A27-4F30-B34A-BA542DA126C8";
paths = (
{
closed = 1;
nodes = (
"104 228 OFFCURVE",
"283 23 OFFCURVE",
"599 -24 CURVE",
"609 -259 OFFCURVE",
"713 -407 OFFCURVE",
"1007 -407 CURVE SMOOTH",
"1096 -407 OFFCURVE",
"1266 -387 OFFCURVE",
"1266 -335 CURVE SMOOTH",
"1266 -331 OFFCURVE",
"1265 -327 OFFCURVE",
"1264 -323 CURVE SMOOTH",
"1231 -207 LINE SMOOTH",
"1226 -189 OFFCURVE",
"1215 -181 OFFCURVE",
"1198 -181 CURVE SMOOTH",
"1190 -181 OFFCURVE",
"1182 -182 OFFCURVE",
"1173 -185 CURVE SMOOTH",
"1137 -196 OFFCURVE",
"1102 -202 OFFCURVE",
"1069 -202 CURVE SMOOTH",
"925 -202 OFFCURVE",
"900 -141 OFFCURVE",
"892 -21 CURVE",
"1277 49 OFFCURVE",
"1518 425 OFFCURVE",
"1518 847 CURVE SMOOTH",
"1518 1263 OFFCURVE",
"1276 1468 OFFCURVE",
"880 1468 CURVE SMOOTH",
"647 1468 OFFCURVE",
"459 1383 OFFCURVE",
"317 1212 CURVE SMOOTH",
"175 1042 OFFCURVE",
"104 834 OFFCURVE",
"104 587 CURVE SMOOTH"
);
},
{
closed = 1;
nodes = (
"416 956 OFFCURVE",
"600 1232 OFFCURVE",
"866 1232 CURVE SMOOTH",
"1093 1232 OFFCURVE",
"1206 1102 OFFCURVE",
"1206 889 CURVE SMOOTH",
"1206 480 OFFCURVE",
"1024 202 OFFCURVE",
"756 202 CURVE SMOOTH",
"529 202 OFFCURVE",
"416 332 OFFCURVE",
"416 545 CURVE SMOOTH"
);
}
);
width = 1532;
}
);
unicode = 0051;
},
{
glyphname = R;
lastChange = "2016-10-15 02:32:41 +0000";
layers = (
{
layerId = UUID0;
paths = (
{
closed = 1;
nodes = (
"192 0 LINE SMOOTH",
"224 0 OFFCURVE",
"246 18 OFFCURVE",
"255 55 CURVE SMOOTH",
"385 621 LINE",
"559 621 LINE SMOOTH",
"650 621 OFFCURVE",
"719 596 OFFCURVE",
"767 545 CURVE SMOOTH",
"815 495 OFFCURVE",
"847 445 OFFCURVE",
"863 396 CURVE SMOOTH",
"979 39 LINE SMOOTH",
"987 13 OFFCURVE",
"1008 0 OFFCURVE",
"1040 0 CURVE SMOOTH",
"1133 0 LINE SMOOTH",
"1160 0 OFFCURVE",
"1173 11 OFFCURVE",
"1173 33 CURVE SMOOTH",
"1173 42 OFFCURVE",
"1171 53 OFFCURVE",
"1166 66 CURVE SMOOTH",
"1035 433 LINE SMOOTH",
"1003 521 OFFCURVE",
"996 550 OFFCURVE",
"880 655 CURVE",
"881 657 LINE",
"1139 679 OFFCURVE",
"1352 836 OFFCURVE",
"1352 1056 CURVE SMOOTH",
"1352 1267 OFFCURVE",
"1225 1434 OFFCURVE",
"884 1434 CURVE SMOOTH",
"431 1434 LINE SMOOTH",
"398 1434 OFFCURVE",
"376 1416 OFFCURVE",
"368 1379 CURVE SMOOTH",
"63 55 LINE SMOOTH",
"61 47 OFFCURVE",
"60 40 OFFCURVE",
"60 34 CURVE SMOOTH",
"60 11 OFFCURVE",
"74 0 OFFCURVE",
"100 0 CURVE SMOOTH"
);
},
{
closed = 1;
nodes = (
"535 1270 LINE",
"832 1270 LINE SMOOTH",
"1022 1270 OFFCURVE",
"1157 1233 OFFCURVE",
"1157 1038 CURVE SMOOTH",
"1157 864 OFFCURVE",
"967 785 OFFCURVE",
"732 785 CURVE SMOOTH",
"423 785 LINE"
);
}
);
width = 1384;
},
{
layerId = "18E77EB5-4A27-4F30-B34A-BA542DA126C8";
paths = (
{
closed = 1;
nodes = (
"262 0 LINE SMOOTH",
"309 0 OFFCURVE",
"337 25 OFFCURVE",
"349 75 CURVE SMOOTH",
"466 579 LINE",
"560 579 LINE SMOOTH",
"678 579 OFFCURVE",
"771 496 OFFCURVE",
"806 396 CURVE SMOOTH",
"925 59 LINE SMOOTH",
"939 20 OFFCURVE",
"964 0 OFFCURVE",
"1001 0 CURVE SMOOTH",
"1154 0 LINE SMOOTH",
"1199 0 OFFCURVE",
"1221 15 OFFCURVE",
"1221 46 CURVE SMOOTH",
"1221 57 OFFCURVE",
"1218 71 OFFCURVE",
"1212 86 CURVE SMOOTH",
"1078 433 LINE SMOOTH",
"1051 502 OFFCURVE",
"1014 600 OFFCURVE",
"908 645 CURVE",
"908 647 LINE",
"1226 689 OFFCURVE",
"1407 865 OFFCURVE",
"1407 1077 CURVE SMOOTH",
"1407 1297 OFFCURVE",
"1256 1434 OFFCURVE",
"851 1434 CURVE SMOOTH",
"441 1434 LINE SMOOTH",
"393 1434 OFFCURVE",
"365 1409 OFFCURVE",
"354 1359 CURVE SMOOTH",
"57 75 LINE SMOOTH",
"55 65 OFFCURVE",
"54 56 OFFCURVE",
"54 48 CURVE SMOOTH",
"54 16 OFFCURVE",
"72 0 OFFCURVE",
"110 0 CURVE SMOOTH"
);
},
{
closed = 1;
nodes = (
"607 1190 LINE",
"794 1190 LINE SMOOTH",
"997 1190 OFFCURVE",
"1121 1167 OFFCURVE",
"1121 1049 CURVE SMOOTH",
"1121 900 OFFCURVE",
"916 827 OFFCURVE",
"732 827 CURVE SMOOTH",
"523 827 LINE"
);
}
);
width = 1428;
}
);
unicode = 0052;
},
{
glyphname = S;
lastChange = "2016-10-15 02:32:41 +0000";
layers = (
{
layerId = UUID0;
paths = (
{
closed = 1;
nodes = (
"169 29 OFFCURVE",
"307 -30 OFFCURVE",
"526 -30 CURVE SMOOTH",
"782 -30 OFFCURVE",
"911 42 OFFCURVE",
"1014 169 CURVE SMOOTH",
"1065 232 OFFCURVE",
"1090 311 OFFCURVE",
"1090 405 CURVE SMOOTH",
"1090 498 OFFCURVE",
"1053 614 OFFCURVE",
"965 681 CURVE SMOOTH",
"920 715 OFFCURVE",
"872 743 OFFCURVE",
"819 764 CURVE SMOOTH",
"710 807 OFFCURVE",
"512 843 OFFCURVE",
"474 970 CURVE SMOOTH",
"466 997 OFFCURVE",
"462 1026 OFFCURVE",
"462 1055 CURVE SMOOTH",
"462 1236 OFFCURVE",
"644 1294 OFFCURVE",
"755 1294 CURVE SMOOTH",
"871 1294 OFFCURVE",
"998 1232 OFFCURVE",
"1044 1194 CURVE SMOOTH",
"1061 1180 OFFCURVE",
"1076 1173 OFFCURVE",
"1088 1173 CURVE SMOOTH",
"1098 1173 OFFCURVE",
"1106 1177 OFFCURVE",
"1113 1186 CURVE SMOOTH",
"1171 1261 LINE SMOOTH",
"1179 1272 OFFCURVE",
"1183 1283 OFFCURVE",
"1183 1294 CURVE SMOOTH",
"1183 1343 OFFCURVE",
"1062 1404 OFFCURVE",
"990 1431 CURVE SMOOTH",
"930 1453 OFFCURVE",
"856 1464 OFFCURVE",
"767 1464 CURVE SMOOTH",
"643 1464 OFFCURVE",
"480 1437 OFFCURVE",
"360 1291 CURVE SMOOTH",
"300 1218 OFFCURVE",
"270 1135 OFFCURVE",
"270 1041 CURVE SMOOTH",
"270 883 OFFCURVE",
"356 760 OFFCURVE",
"480 698 CURVE SMOOTH",
"708 583 OFFCURVE",
"887 606 OFFCURVE",
"887 373 CURVE SMOOTH",
"887 207 OFFCURVE",
"707 126 OFFCURVE",
"542 126 CURVE SMOOTH",
"383 126 OFFCURVE",
"294 173 OFFCURVE",
"207 255 CURVE SMOOTH",
"186 275 OFFCURVE",
"167 284 OFFCURVE",
"152 284 CURVE SMOOTH",
"140 284 OFFCURVE",
"130 279 OFFCURVE",
"121 268 CURVE SMOOTH",
"64 198 LINE SMOOTH",
"56 189 OFFCURVE",
"53 179 OFFCURVE",
"53 169 CURVE SMOOTH",
"53 151 OFFCURVE",
"63 133 OFFCURVE",
"84 112 CURVE SMOOTH"
);
}
);
width = 1217;
},
{
layerId = "18E77EB5-4A27-4F30-B34A-BA542DA126C8";
paths = (
{
closed = 1;
nodes = (
"209 3 OFFCURVE",
"320 -34 OFFCURVE",
"559 -34 CURVE SMOOTH",
"1016 -34 OFFCURVE",
"1177 207 OFFCURVE",
"1177 425 CURVE SMOOTH",
"1177 601 OFFCURVE",
"1089 730 OFFCURVE",
"933 791 CURVE",
"867 819 OFFCURVE",
"731 854 OFFCURVE",
"650 892 CURVE SMOOTH",
"561 934 OFFCURVE",
"530 998 OFFCURVE",
"530 1068 CURVE SMOOTH",
"530 1127 OFFCURVE",
"573 1190 OFFCURVE",
"638 1214 CURVE SMOOTH",
"671 1226 OFFCURVE",
"716 1232 OFFCURVE",
"773 1232 CURVE SMOOTH",
"886 1232 OFFCURVE",
"983 1196 OFFCURVE",
"1051 1141 CURVE SMOOTH",
"1074 1122 OFFCURVE",
"1095 1114 OFFCURVE",
"1113 1114 CURVE SMOOTH",
"1131 1114 OFFCURVE",
"1147 1122 OFFCURVE",
"1161 1138 CURVE SMOOTH",
"1249 1238 LINE SMOOTH",
"1259 1249 OFFCURVE",
"1264 1260 OFFCURVE",
"1264 1273 CURVE SMOOTH",
"1264 1366 OFFCURVE",
"1030 1468 OFFCURVE",
"799 1468 CURVE SMOOTH",
"623 1468 OFFCURVE",
"440 1432 OFFCURVE",
"325 1277 CURVE SMOOTH",
"268 1200 OFFCURVE",
"240 1120 OFFCURVE",
"240 1035 CURVE SMOOTH",
"240 883 OFFCURVE",
"304 776 OFFCURVE",
"361 735 CURVE SMOOTH",
"614 550 OFFCURVE",
"881 589 OFFCURVE",
"881 397 CURVE SMOOTH",
"881 290 OFFCURVE",
"803 202 OFFCURVE",
"595 202 CURVE SMOOTH",
"462 202 OFFCURVE",
"336 258 OFFCURVE",
"262 314 CURVE SMOOTH",
"237 333 OFFCURVE",
"215 342 OFFCURVE",
"196 342 CURVE SMOOTH",
"179 342 OFFCURVE",
"164 335 OFFCURVE",
"151 319 CURVE SMOOTH",
"64 212 LINE SMOOTH",
"54 200 OFFCURVE",
"49 187 OFFCURVE",
"49 174 CURVE SMOOTH",
"49 154 OFFCURVE",
"60 134 OFFCURVE",
"84 114 CURVE"
);
}
);
width = 1299;
}
);
unicode = 0053;
},
{
glyphname = uni1E9E;
lastChange = "2016-10-15 02:32:41 +0000";
layers = (
{
layerId = UUID0;
paths = (
{
closed = 1;
nodes = (
"192 0 LINE SMOOTH",
"225 0 OFFCURVE",
"246 18 OFFCURVE",
"255 55 CURVE SMOOTH",
"462 952 LINE SMOOTH",
"491 1079 OFFCURVE",
"548 1170 OFFCURVE",
"632 1225 CURVE SMOOTH",
"716 1280 OFFCURVE",
"799 1308 OFFCURVE",
"882 1308 CURVE SMOOTH",
"986 1308 OFFCURVE",
"1035 1281 OFFCURVE",
"1072 1228 CURVE",
"1071 1225 LINE",
"661 816 LINE SMOOTH",
"648 803 OFFCURVE",
"642 788 OFFCURVE",
"642 771 CURVE SMOOTH",
"642 763 OFFCURVE",
"643 755 OFFCURVE",
"646 746 CURVE SMOOTH",
"660 696 LINE SMOOTH",
"665 676 OFFCURVE",
"679 665 OFFCURVE",
"704 663 CURVE SMOOTH",
"851 650 OFFCURVE",
"972 588 OFFCURVE",
"972 451 CURVE SMOOTH",
"972 267 OFFCURVE",
"856 126 OFFCURVE",
"673 126 CURVE SMOOTH",
"547 126 OFFCURVE",
"517 181 OFFCURVE",
"486 181 CURVE SMOOTH",
"472 181 OFFCURVE",
"459 173 OFFCURVE",
"449 156 CURVE SMOOTH",
"408 91 LINE SMOOTH",
"400 79 OFFCURVE",
"397 68 OFFCURVE",
"397 58 CURVE SMOOTH",
"397 20 OFFCURVE",
"485 -10 OFFCURVE",
"523 -18 CURVE SMOOTH",
"559 -26 OFFCURVE",
"608 -30 OFFCURVE",
"670 -30 CURVE SMOOTH",
"972 -30 OFFCURVE",
"1177 178 OFFCURVE",
"1177 468 CURVE SMOOTH",
"1177 636 OFFCURVE",
"1074 754 OFFCURVE",
"893 799 CURVE",
"894 802 LINE",
"1265 1175 LINE SMOOTH",
"1284 1194 OFFCURVE",
"1294 1219 OFFCURVE",
"1294 1248 CURVE SMOOTH",
"1294 1301 OFFCURVE",
"1222 1367 OFFCURVE",
"1136 1415 CURVE SMOOTH",
"1077 1448 OFFCURVE",
"1005 1464 OFFCURVE",
"918 1464 CURVE SMOOTH",
"767 1464 OFFCURVE",
"632 1425 OFFCURVE",
"513 1347 CURVE SMOOTH",
"394 1269 OFFCURVE",
"307 1116 OFFCURVE",
"255 889 CURVE SMOOTH",
"63 55 LINE SMOOTH",
"61 47 OFFCURVE",
"60 40 OFFCURVE",
"60 34 CURVE SMOOTH",
"60 11 OFFCURVE",
"74 0 OFFCURVE",
"100 0 CURVE SMOOTH"
);
}
);
width = 1306;
},
{
layerId = "18E77EB5-4A27-4F30-B34A-BA542DA126C8";
paths = (
{
closed = 1;
nodes = (
"262 0 LINE SMOOTH",
"309 0 OFFCURVE",
"337 25 OFFCURVE",
"349 75 CURVE SMOOTH",
"533 872 LINE SMOOTH",
"566 1017 OFFCURVE",
"622 1112 OFFCURVE",
"701 1160 CURVE SMOOTH",
"780 1208 OFFCURVE",
"856 1232 OFFCURVE",
"928 1232 CURVE SMOOTH",
"987 1232 OFFCURVE",
"1017 1216 OFFCURVE",
"1036 1169 CURVE",
"1035 1166 LINE",
"728 830 LINE SMOOTH",
"705 805 OFFCURVE",
"694 782 OFFCURVE",
"694 761 CURVE SMOOTH",
"694 754 OFFCURVE",
"695 747 OFFCURVE",
"698 740 CURVE SMOOTH",
"720 688 LINE SMOOTH",
"732 660 OFFCURVE",
"751 645 OFFCURVE",
"778 643 CURVE SMOOTH",
"890 634 OFFCURVE",
"983 579 OFFCURVE",
"983 460 CURVE SMOOTH",
"983 329 OFFCURVE",
"908 202 OFFCURVE",
"762 202 CURVE SMOOTH",
"691 202 OFFCURVE",
"651 216 OFFCURVE",
"616 239 CURVE SMOOTH",
"598 251 OFFCURVE",
"582 256 OFFCURVE",
"570 256 CURVE SMOOTH",
"555 256 OFFCURVE",
"544 248 OFFCURVE",
"536 233 CURVE SMOOTH",
"467 97 LINE SMOOTH",
"461 85 OFFCURVE",
"457 74 OFFCURVE",
"457 64 CURVE SMOOTH",
"457 2 OFFCURVE",
"633 -34 OFFCURVE",
"736 -34 CURVE SMOOTH",
"1052 -34 OFFCURVE",
"1285 159 OFFCURVE",
"1285 474 CURVE SMOOTH",
"1285 626 OFFCURVE",
"1230 736 OFFCURVE",
"1056 811 CURVE",
"1057 814 LINE",
"1358 1146 LINE SMOOTH",
"1379 1170 OFFCURVE",
"1393 1199 OFFCURVE",
"1393 1227 CURVE SMOOTH",
"1393 1292 OFFCURVE",
"1315 1365 OFFCURVE",
"1232 1416 CURVE SMOOTH",
"1175 1451 OFFCURVE",
"1097 1468 OFFCURVE",
"999 1468 CURVE SMOOTH",
"608 1468 OFFCURVE",
"340 1299 OFFCURVE",
"227 809 CURVE SMOOTH",
"57 75 LINE SMOOTH",
"55 65 OFFCURVE",
"54 56 OFFCURVE",
"54 48 CURVE SMOOTH",
"54 16 OFFCURVE",
"72 0 OFFCURVE",
"110 0 CURVE SMOOTH"
);
}
);
width = 1408;
}
);
unicode = 1E9E;
},
{
glyphname = T;
lastChange = "2016-10-15 02:32:41 +0000";
layers = (
{
layerId = UUID0;
paths = (
{
closed = 1;
nodes = (
"695 1262 LINE",
"417 55 LINE SMOOTH",
"415 47 OFFCURVE",
"414 40 OFFCURVE",
"414 34 CURVE SMOOTH",
"414 11 OFFCURVE",
"428 0 OFFCURVE",
"454 0 CURVE SMOOTH",
"546 0 LINE SMOOTH",
"579 0 OFFCURVE",
"600 18 OFFCURVE",
"609 55 CURVE SMOOTH",
"887 1262 LINE",
"1320 1262 LINE SMOOTH",
"1357 1262 OFFCURVE",
"1379 1277 OFFCURVE",
"1386 1307 CURVE SMOOTH",
"1405 1389 LINE SMOOTH",
"1406 1394 OFFCURVE",
"1407 1398 OFFCURVE",
"1407 1402 CURVE SMOOTH",
"1407 1423 OFFCURVE",
"1391 1434 OFFCURVE",
"1360 1434 CURVE SMOOTH",
"302 1434 LINE SMOOTH",
"265 1434 OFFCURVE",
"244 1419 OFFCURVE",
"237 1389 CURVE SMOOTH",
"218 1307 LINE SMOOTH",
"217 1302 OFFCURVE",
"216 1297 OFFCURVE",
"216 1293 CURVE SMOOTH",
"216 1272 OFFCURVE",
"231 1262 OFFCURVE",
"262 1262 CURVE SMOOTH"
);
}
);
width = 1240;
},
{
layerId = "18E77EB5-4A27-4F30-B34A-BA542DA126C8";
paths = (
{
closed = 1;
nodes = (
"629 1178 LINE",
"370 55 LINE SMOOTH",
"368 47 OFFCURVE",
"367 40 OFFCURVE",
"367 34 CURVE SMOOTH",
"367 11 OFFCURVE",
"381 0 OFFCURVE",
"407 0 CURVE SMOOTH",
"599 0 LINE SMOOTH",
"632 0 OFFCURVE",
"653 18 OFFCURVE",
"662 55 CURVE SMOOTH",
"921 1178 LINE",
"1289 1178 LINE SMOOTH",
"1339 1178 OFFCURVE",
"1369 1200 OFFCURVE",
"1379 1243 CURVE SMOOTH",
"1408 1369 LINE SMOOTH",
"1410 1376 OFFCURVE",
"1410 1383 OFFCURVE",
"1410 1389 CURVE SMOOTH",
"1410 1419 OFFCURVE",
"1390 1434 OFFCURVE",
"1348 1434 CURVE SMOOTH",
"320 1434 LINE SMOOTH",
"270 1434 OFFCURVE",
"240 1412 OFFCURVE",
"230 1369 CURVE SMOOTH",
"201 1243 LINE SMOOTH",
"199 1236 OFFCURVE",
"198 1229 OFFCURVE",
"198 1223 CURVE SMOOTH",
"198 1193 OFFCURVE",
"219 1178 OFFCURVE",
"261 1178 CURVE SMOOTH"
);
}
);
width = 1246;
}
);
unicode = 0054;
},
{
glyphname = U;
lastChange = "2016-10-15 02:32:41 +0000";
layers = (
{
layerId = UUID0;
paths = (
{
closed = 1;
nodes = (
"176 547 LINE SMOOTH",
"159 473 OFFCURVE",
"150 407 OFFCURVE",
"150 348 CURVE SMOOTH",
"150 78 OFFCURVE",
"369 -30 OFFCURVE",
"574 -30 CURVE SMOOTH",
"932 -30 OFFCURVE",
"1140 121 OFFCURVE",
"1238 547 CURVE SMOOTH",
"1430 1379 LINE SMOOTH",
"1432 1387 OFFCURVE",
"1433 1393 OFFCURVE",
"1433 1399 CURVE SMOOTH",
"1433 1423 OFFCURVE",
"1419 1434 OFFCURVE",
"1393 1434 CURVE SMOOTH",
"1301 1434 LINE SMOOTH",
"1268 1434 OFFCURVE",
"1246 1416 OFFCURVE",
"1238 1379 CURVE SMOOTH",
"1053 577 LINE SMOOTH",
"1010 390 OFFCURVE",
"950 268 OFFCURVE",
"872 211 CURVE SMOOTH",
"794 154 OFFCURVE",
"707 126 OFFCURVE",
"610 126 CURVE SMOOTH",
"425 126 OFFCURVE",
"342 179 OFFCURVE",
"342 338 CURVE SMOOTH",
"342 400 OFFCURVE",
"353 480 OFFCURVE",
"375 577 CURVE SMOOTH",
"560 1379 LINE SMOOTH",
"562 1387 OFFCURVE",
"563 1393 OFFCURVE",
"563 1399 CURVE SMOOTH",
"563 1423 OFFCURVE",
"549 1434 OFFCURVE",
"523 1434 CURVE SMOOTH",
"431 1434 LINE SMOOTH",
"398 1434 OFFCURVE",
"376 1416 OFFCURVE",
"368 1379 CURVE SMOOTH"
);
}
);
width = 1402;
},
{
layerId = "18E77EB5-4A27-4F30-B34A-BA542DA126C8";
paths = (
{
closed = 1;
nodes = (
"178 597 LINE SMOOTH",
"159 515 OFFCURVE",
"150 441 OFFCURVE",
"150 376 CURVE SMOOTH",
"150 90 OFFCURVE",
"355 -34 OFFCURVE",
"607 -34 CURVE SMOOTH",
"794 -34 OFFCURVE",
"939 10 OFFCURVE",
"1042 99 CURVE SMOOTH",
"1145 188 OFFCURVE",
"1224 354 OFFCURVE",
"1280 597 CURVE SMOOTH",
"1460 1379 LINE SMOOTH",
"1461 1385 OFFCURVE",
"1462 1390 OFFCURVE",
"1462 1395 CURVE SMOOTH",
"1462 1421 OFFCURVE",
"1442 1434 OFFCURVE",
"1403 1434 CURVE SMOOTH",
"1251 1434 LINE SMOOTH",
"1204 1434 OFFCURVE",
"1176 1416 OFFCURVE",
"1168 1379 CURVE SMOOTH",
"990 607 LINE SMOOTH",
"953 447 OFFCURVE",
"902 339 OFFCURVE",
"836 284 CURVE SMOOTH",
"770 229 OFFCURVE",
"704 202 OFFCURVE",
"637 202 CURVE SMOOTH",
"521 202 OFFCURVE",
"439 243 OFFCURVE",
"439 378 CURVE SMOOTH",
"439 435 OFFCURVE",
"450 512 OFFCURVE",
"472 607 CURVE SMOOTH",
"650 1379 LINE SMOOTH",
"651 1385 OFFCURVE",
"652 1390 OFFCURVE",
"652 1395 CURVE SMOOTH",
"652 1421 OFFCURVE",
"632 1434 OFFCURVE",
"593 1434 CURVE SMOOTH",
"441 1434 LINE SMOOTH",
"394 1434 OFFCURVE",
"366 1416 OFFCURVE",
"358 1379 CURVE SMOOTH"
);
}
);
width = 1422;
}
);
unicode = 0055;
},
{
glyphname = V;
lastChange = "2016-10-15 02:32:41 +0000";
layers = (
{
layerId = UUID0;
paths = (
{
closed = 1;
nodes = (
"427 61 LINE SMOOTH",
"433 20 OFFCURVE",
"450 0 OFFCURVE",
"479 0 CURVE SMOOTH",
"619 0 LINE SMOOTH",
"648 0 OFFCURVE",
"674 20 OFFCURVE",
"699 61 CURVE SMOOTH",
"1488 1368 LINE SMOOTH",
"1500 1387 OFFCURVE",
"1506 1402 OFFCURVE",
"1506 1413 CURVE SMOOTH",
"1506 1427 OFFCURVE",
"1496 1434 OFFCURVE",
"1476 1434 CURVE SMOOTH",
"1362 1434 LINE SMOOTH",
"1326 1434 OFFCURVE",
"1298 1418 OFFCURVE",
"1279 1385 CURVE SMOOTH",
"747 490 LINE SMOOTH",
"711 429 OFFCURVE",
"608 246 OFFCURVE",
"579 173 CURVE",
"575 173 LINE",
"575 247 OFFCURVE",
"562 419 OFFCURVE",
"553 490 CURVE SMOOTH",
"435 1385 LINE SMOOTH",
"431 1418 OFFCURVE",
"411 1434 OFFCURVE",
"374 1434 CURVE SMOOTH",
"284 1434 LINE SMOOTH",
"255 1434 OFFCURVE",
"241 1418 OFFCURVE",
"241 1386 CURVE SMOOTH",
"241 1381 OFFCURVE",
"241 1374 OFFCURVE",
"242 1368 CURVE SMOOTH"
);
}
);
width = 1338;
},
{
layerId = "18E77EB5-4A27-4F30-B34A-BA542DA126C8";
paths = (
{
closed = 1;
nodes = (
"420 81 LINE",
"427 27 OFFCURVE",
"451 0 OFFCURVE",
"495 0 CURVE SMOOTH",
"635 0 LINE SMOOTH",
"678 0 OFFCURVE",
"715 27 OFFCURVE",
"748 81 CURVE SMOOTH",
"1523 1368 LINE SMOOTH",
"1532 1384 OFFCURVE",
"1538 1397 OFFCURVE",
"1537 1407 CURVE",
"1537 1425 OFFCURVE",
"1522 1434 OFFCURVE",
"1491 1434 CURVE SMOOTH",
"1312 1434 LINE SMOOTH",
"1267 1434 OFFCURVE",
"1231 1411 OFFCURVE",
"1204 1365 CURVE SMOOTH",
"705 530 LINE SMOOTH",
"656 447 OFFCURVE",
"658 445 OFFCURVE",
"633 373 CURVE",
"629 373 LINE",
"634 406 OFFCURVE",
"636 430 OFFCURVE",
"636 446 CURVE SMOOTH",
"636 462 OFFCURVE",
"634 490 OFFCURVE",
"629 530 CURVE SMOOTH",
"516 1365 LINE SMOOTH",
"510 1411 OFFCURVE",
"485 1434 OFFCURVE",
"440 1434 CURVE SMOOTH",
"301 1434 LINE SMOOTH",
"259 1434 OFFCURVE",
"238 1417 OFFCURVE",
"238 1382 CURVE SMOOTH",
"238 1378 OFFCURVE",
"238 1373 OFFCURVE",
"239 1368 CURVE SMOOTH"
);
}
);
width = 1370;
}
);
unicode = 0056;
},
{
glyphname = W;
lastChange = "2016-10-15 02:32:41 +0000";
layers = (
{
layerId = UUID0;
paths = (
{
closed = 1;
nodes = (
"295 77 LINE SMOOTH",
"297 26 OFFCURVE",
"316 0 OFFCURVE",
"351 0 CURVE SMOOTH",
"476 0 LINE SMOOTH",
"509 0 OFFCURVE",
"539 28 OFFCURVE",
"566 84 CURVE SMOOTH",
"1019 1043 LINE SMOOTH",
"1066 1143 OFFCURVE",
"1075 1173 OFFCURVE",
"1105 1259 CURVE",
"1107 1259 LINE",
"1107 1198 OFFCURVE",
"1103 1166 OFFCURVE",
"1103 1110 CURVE SMOOTH",
"1103 1091 OFFCURVE",
"1103 1068 OFFCURVE",
"1104 1043 CURVE SMOOTH",
"1130 84 LINE SMOOTH",
"1131 28 OFFCURVE",
"1148 0 OFFCURVE",
"1182 0 CURVE SMOOTH",
"1307 0 LINE SMOOTH",
"1343 0 OFFCURVE",
"1374 26 OFFCURVE",
"1399 77 CURVE SMOOTH",
"2032 1374 LINE SMOOTH",
"2040 1390 OFFCURVE",
"2043 1403 OFFCURVE",
"2044 1413 CURVE",
"2044 1427 OFFCURVE",
"2036 1434 OFFCURVE",
"2020 1434 CURVE SMOOTH",
"1888 1434 LINE SMOOTH",
"1866 1434 OFFCURVE",
"1848 1419 OFFCURVE",
"1834 1388 CURVE SMOOTH",
"1400 427 LINE SMOOTH",
"1374 369 OFFCURVE",
"1313 247 OFFCURVE",
"1280 173 CURVE",
"1275 173 LINE",
"1275 249 OFFCURVE",
"1276 323 OFFCURVE",
"1276 384 CURVE SMOOTH",
"1276 399 OFFCURVE",
"1276 413 OFFCURVE",
"1276 426 CURVE SMOOTH",
"1258 1380 LINE SMOOTH",
"1257 1416 OFFCURVE",
"1240 1434 OFFCURVE",
"1206 1434 CURVE SMOOTH",
"1071 1434 LINE SMOOTH",
"1037 1434 OFFCURVE",
"1012 1416 OFFCURVE",
"995 1380 CURVE SMOOTH",
"556 426 LINE SMOOTH",
"508 322 OFFCURVE",
"476 252 OFFCURVE",
"444 173 CURVE",
"439 173 LINE",
"439 267 OFFCURVE",
"442 322 OFFCURVE",
"442 391 CURVE SMOOTH",
"442 403 OFFCURVE",
"442 415 OFFCURVE",
"442 427 CURVE SMOOTH",
"419 1388 LINE SMOOTH",
"418 1419 OFFCURVE",
"408 1434 OFFCURVE",
"387 1434 CURVE SMOOTH",
"280 1434 LINE SMOOTH",
"253 1434 OFFCURVE",
"240 1416 OFFCURVE",
"240 1382 CURVE SMOOTH",
"240 1379 OFFCURVE",
"240 1377 OFFCURVE",
"240 1374 CURVE SMOOTH"
);
}
);
width = 1888;
},
{
layerId = "18E77EB5-4A27-4F30-B34A-BA542DA126C8";
paths = (
{
closed = 1;
nodes = (
"287 97 LINE SMOOTH",
"289 32 OFFCURVE",
"314 0 OFFCURVE",
"359 0 CURVE SMOOTH",
"534 0 LINE SMOOTH",
"572 0 OFFCURVE",
"608 32 OFFCURVE",
"641 96 CURVE SMOOTH",
"1075 934 LINE SMOOTH",
"1126 1033 OFFCURVE",
"1118 1017 OFFCURVE",
"1144 1099 CURVE",
"1146 1099 LINE",
"1139 1047 OFFCURVE",
"1135 1024 OFFCURVE",
"1135 1010 CURVE SMOOTH",
"1135 994 OFFCURVE",
"1137 969 OFFCURVE",
"1139 934 CURVE SMOOTH",
"1185 96 LINE SMOOTH",
"1188 32 OFFCURVE",
"1208 0 OFFCURVE",
"1248 0 CURVE SMOOTH",
"1423 0 LINE SMOOTH",
"1468 0 OFFCURVE",
"1506 32 OFFCURVE",
"1539 97 CURVE SMOOTH",
"2170 1354 LINE SMOOTH",
"2180 1374 OFFCURVE",
"2185 1389 OFFCURVE",
"2185 1402 CURVE SMOOTH",
"2185 1423 OFFCURVE",
"2170 1434 OFFCURVE",
"2142 1434 CURVE SMOOTH",
"1942 1434 LINE SMOOTH",
"1911 1434 OFFCURVE",
"1885 1412 OFFCURVE",
"1864 1368 CURVE SMOOTH",
"1443 476 LINE SMOOTH",
"1429 447 OFFCURVE",
"1417 410 OFFCURVE",
"1403 363 CURVE",
"1398 363 LINE",
"1409 437 OFFCURVE",
"1414 462 OFFCURVE",
"1414 506 CURVE SMOOTH",
"1414 528 OFFCURVE",
"1413 555 OFFCURVE",
"1411 588 CURVE SMOOTH",
"1366 1360 LINE SMOOTH",
"1363 1409 OFFCURVE",
"1341 1434 OFFCURVE",
"1299 1434 CURVE SMOOTH",
"1115 1434 LINE SMOOTH",
"1073 1434 OFFCURVE",
"1039 1409 OFFCURVE",
"1014 1360 CURVE SMOOTH",
"613 588 LINE SMOOTH",
"553 472 OFFCURVE",
"553 468 OFFCURVE",
"522 363 CURVE",
"517 363 LINE",
"529 443 OFFCURVE",
"529 452 OFFCURVE",
"529 506 CURVE SMOOTH",
"529 526 OFFCURVE",
"528 551 OFFCURVE",
"528 582 CURVE SMOOTH",
"520 1368 LINE",
"519 1412 OFFCURVE",
"502 1434 OFFCURVE",
"472 1434 CURVE SMOOTH",
"302 1434 LINE SMOOTH",
"259 1434 OFFCURVE",
"238 1409 OFFCURVE",
"238 1361 CURVE SMOOTH",
"238 1358 OFFCURVE",
"238 1356 OFFCURVE",
"238 1354 CURVE SMOOTH"
);
}
);
width = 2022;
}
);
unicode = 0057;
},
{
glyphname = X;
lastChange = "2016-10-15 02:32:41 +0000";
layers = (
{
layerId = UUID0;
paths = (
{
closed = 1;
nodes = (
"103 0 LINE SMOOTH",
"133 0 OFFCURVE",
"159 13 OFFCURVE",
"182 39 CURVE SMOOTH",
"679 607 LINE",
"933 39 LINE SMOOTH",
"944 13 OFFCURVE",
"964 0 OFFCURVE",
"994 0 CURVE SMOOTH",
"1099 0 LINE SMOOTH",
"1128 0 OFFCURVE",
"1143 10 OFFCURVE",
"1143 29 CURVE SMOOTH",
"1143 39 OFFCURVE",
"1139 51 OFFCURVE",
"1132 66 CURVE SMOOTH",
"806 727 LINE",
"1397 1368 LINE SMOOTH",
"1417 1389 OFFCURVE",
"1427 1406 OFFCURVE",
"1427 1417 CURVE SMOOTH",
"1427 1428 OFFCURVE",
"1416 1434 OFFCURVE",
"1394 1434 CURVE SMOOTH",
"1256 1434 LINE SMOOTH",
"1226 1434 OFFCURVE",
"1200 1421 OFFCURVE",
"1177 1395 CURVE SMOOTH",
"721 873 LINE",
"486 1395 LINE SMOOTH",
"474 1421 OFFCURVE",
"454 1434 OFFCURVE",
"425 1434 CURVE SMOOTH",
"327 1434 LINE SMOOTH",
"298 1434 OFFCURVE",
"284 1424 OFFCURVE",
"284 1404 CURVE SMOOTH",
"284 1394 OFFCURVE",
"287 1382 OFFCURVE",
"294 1368 CURVE SMOOTH",
"593 752 LINE",
"-45 66 LINE SMOOTH",
"-65 44 OFFCURVE",
"-75 28 OFFCURVE",
"-75 17 CURVE SMOOTH",
"-75 6 OFFCURVE",
"-64 0 OFFCURVE",
"-42 0 CURVE SMOOTH"
);
}
);
width = 1298;
},
{
layerId = "18E77EB5-4A27-4F30-B34A-BA542DA126C8";
paths = (
{
closed = 1;
nodes = (
"226 0 LINE SMOOTH",
"263 0 OFFCURVE",
"298 20 OFFCURVE",
"330 59 CURVE SMOOTH",
"709 528 LINE",
"909 59 LINE SMOOTH",
"926 20 OFFCURVE",
"951 0 OFFCURVE",
"985 0 CURVE SMOOTH",
"1164 0 LINE SMOOTH",
"1211 0 OFFCURVE",
"1235 14 OFFCURVE",
"1235 42 CURVE SMOOTH",
"1235 54 OFFCURVE",
"1231 69 OFFCURVE",
"1222 86 CURVE SMOOTH",
"898 722 LINE",
"1477 1348 LINE SMOOTH",
"1501 1373 OFFCURVE",
"1513 1393 OFFCURVE",
"1513 1408 CURVE SMOOTH",
"1513 1425 OFFCURVE",
"1495 1434 OFFCURVE",
"1459 1434 CURVE SMOOTH",
"1224 1434 LINE SMOOTH",
"1187 1434 OFFCURVE",
"1152 1414 OFFCURVE",
"1120 1375 CURVE SMOOTH",
"782 958 LINE",
"607 1375 LINE SMOOTH",
"590 1414 OFFCURVE",
"564 1434 OFFCURVE",
"531 1434 CURVE SMOOTH",
"355 1434 LINE SMOOTH",
"307 1434 OFFCURVE",
"284 1420 OFFCURVE",
"284 1392 CURVE SMOOTH",
"284 1380 OFFCURVE",
"288 1365 OFFCURVE",
"297 1348 CURVE SMOOTH",
"594 764 LINE",
"-30 86 LINE SMOOTH",
"-54 60 OFFCURVE",
"-66 40 OFFCURVE",
"-66 26 CURVE SMOOTH",
"-66 9 OFFCURVE",
"-48 0 OFFCURVE",
"-12 0 CURVE SMOOTH"
);
}
);
width = 1392;
}
);
unicode = 0058;
},
{
glyphname = Y;
lastChange = "2016-10-15 02:32:41 +0000";
layers = (
{
layerId = UUID0;
paths = (
{
closed = 1;
nodes = (
"571 590 LINE",
"448 55 LINE SMOOTH",
"446 47 OFFCURVE",
"445 40 OFFCURVE",
"445 34 CURVE SMOOTH",
"445 11 OFFCURVE",
"459 0 OFFCURVE",
"485 0 CURVE SMOOTH",
"577 0 LINE SMOOTH",
"610 0 OFFCURVE",
"631 18 OFFCURVE",
"640 55 CURVE SMOOTH",
"763 590 LINE",
"1444 1368 LINE SMOOTH",
"1461 1388 OFFCURVE",
"1470 1403 OFFCURVE",
"1470 1414 CURVE SMOOTH",
"1470 1427 OFFCURVE",
"1458 1434 OFFCURVE",
"1432 1434 CURVE SMOOTH",
"1307 1434 LINE SMOOTH",
"1278 1434 OFFCURVE",
"1251 1418 OFFCURVE",
"1224 1385 CURVE SMOOTH",
"866 948 LINE SMOOTH",
"781 845 OFFCURVE",
"740 793 OFFCURVE",
"681 709 CURVE",
"677 709 LINE",
"660 784 OFFCURVE",
"618 899 OFFCURVE",
"602 948 CURVE",
"446 1385 LINE SMOOTH",
"434 1418 OFFCURVE",
"414 1434 OFFCURVE",
"385 1434 CURVE SMOOTH",
"292 1434 LINE SMOOTH",
"259 1434 OFFCURVE",
"242 1423 OFFCURVE",
"242 1400 CURVE SMOOTH",
"242 1391 OFFCURVE",
"245 1380 OFFCURVE",
"250 1368 CURVE SMOOTH"
);
}
);
width = 1302;
},
{
layerId = "18E77EB5-4A27-4F30-B34A-BA542DA126C8";
paths = (
{
closed = 1;
nodes = (
"539 525 LINE",
"431 55 LINE SMOOTH",
"429 49 OFFCURVE",
"429 44 OFFCURVE",
"429 39 CURVE SMOOTH",
"429 13 OFFCURVE",
"448 0 OFFCURVE",
"488 0 CURVE SMOOTH",
"640 0 LINE SMOOTH",
"686 0 OFFCURVE",
"714 18 OFFCURVE",
"723 55 CURVE SMOOTH",
"831 525 LINE",
"1508 1348 LINE SMOOTH",
"1528 1372 OFFCURVE",
"1537 1391 OFFCURVE",
"1537 1405 CURVE SMOOTH",
"1537 1424 OFFCURVE",
"1519 1434 OFFCURVE",
"1481 1434 CURVE SMOOTH",
"1276 1434 LINE SMOOTH",
"1241 1434 OFFCURVE",
"1205 1411 OFFCURVE",
"1168 1365 CURVE SMOOTH",
"869 994 LINE SMOOTH",
"807 917 OFFCURVE",
"742 843 OFFCURVE",
"715 748 CURVE",
"711 748 LINE",
"711 801 OFFCURVE",
"704 847 OFFCURVE",
"692 885 CURVE SMOOTH",
"657 994 LINE",
"530 1365 LINE SMOOTH",
"514 1411 OFFCURVE",
"489 1434 OFFCURVE",
"454 1434 CURVE SMOOTH",
"309 1434 LINE SMOOTH",
"259 1434 OFFCURVE",
"234 1417 OFFCURVE",
"234 1384 CURVE SMOOTH",
"234 1374 OFFCURVE",
"237 1362 OFFCURVE",
"242 1348 CURVE SMOOTH"
);
}
);
width = 1368;
}
);
unicode = 0059;
},
{
glyphname = Z;
lastChange = "2016-10-15 02:32:41 +0000";
layers = (
{
layerId = UUID0;
paths = (
{
closed = 1;
nodes = (
"976 0 LINE SMOOTH",
"1013 0 OFFCURVE",
"1034 15 OFFCURVE",
"1041 45 CURVE SMOOTH",
"1058 119 LINE SMOOTH",
"1059 124 OFFCURVE",
"1060 128 OFFCURVE",
"1060 132 CURVE SMOOTH",
"1060 153 OFFCURVE",
"1044 164 OFFCURVE",
"1014 164 CURVE SMOOTH",
"334 164 LINE SMOOTH",
"299 164 OFFCURVE",
"272 163 OFFCURVE",
"253 162 CURVE",
"254 166 LINE",
"1288 1297 LINE SMOOTH",
"1307 1318 OFFCURVE",
"1318 1338 OFFCURVE",
"1323 1358 CURVE SMOOTH",
"1330 1389 LINE SMOOTH",
"1331 1394 OFFCURVE",
"1332 1398 OFFCURVE",
"1332 1402 CURVE SMOOTH",
"1332 1423 OFFCURVE",
"1316 1434 OFFCURVE",
"1285 1434 CURVE SMOOTH",
"363 1434 LINE SMOOTH",
"326 1434 OFFCURVE",
"305 1419 OFFCURVE",
"298 1389 CURVE SMOOTH",
"281 1315 LINE SMOOTH",
"280 1310 OFFCURVE",
"279 1306 OFFCURVE",
"279 1302 CURVE SMOOTH",
"279 1280 OFFCURVE",
"295 1270 OFFCURVE",
"325 1270 CURVE SMOOTH",
"947 1270 LINE SMOOTH",
"974 1270 OFFCURVE",
"1001 1271 OFFCURVE",
"1028 1272 CURVE",
"1027 1268 LINE",
"17 182 LINE SMOOTH",
"-10 153 OFFCURVE",
"-27 123 OFFCURVE",
"-34 93 CURVE SMOOTH",
"-45 45 LINE SMOOTH",
"-46 40 OFFCURVE",
"-47 36 OFFCURVE",
"-47 32 CURVE SMOOTH",
"-47 10 OFFCURVE",
"-31 0 OFFCURVE",
"0 0 CURVE SMOOTH"
);
}
);
width = 1216;
},
{
layerId = "18E77EB5-4A27-4F30-B34A-BA542DA126C8";
paths = (
{
closed = 1;
nodes = (
"996 0 LINE SMOOTH",
"1046 0 OFFCURVE",
"1076 22 OFFCURVE",
"1086 65 CURVE SMOOTH",
"1113 183 LINE SMOOTH",
"1115 190 OFFCURVE",
"1115 197 OFFCURVE",
"1115 203 CURVE SMOOTH",
"1115 233 OFFCURVE",
"1095 248 OFFCURVE",
"1053 248 CURVE SMOOTH",
"517 248 LINE SMOOTH",
"477 248 OFFCURVE",
"437 246 OFFCURVE",
"396 243 CURVE",
"398 250 LINE",
"1285 1197 LINE SMOOTH",
"1316 1230 OFFCURVE",
"1336 1265 OFFCURVE",
"1344 1302 CURVE SMOOTH",
"1359 1369 LINE SMOOTH",
"1361 1376 OFFCURVE",
"1361 1383 OFFCURVE",
"1361 1389 CURVE SMOOTH",
"1361 1419 OFFCURVE",
"1341 1434 OFFCURVE",
"1299 1434 CURVE SMOOTH",
"387 1434 LINE SMOOTH",
"337 1434 OFFCURVE",
"307 1412 OFFCURVE",
"297 1369 CURVE SMOOTH",
"270 1251 LINE SMOOTH",
"268 1244 OFFCURVE",
"267 1237 OFFCURVE",
"267 1231 CURVE SMOOTH",
"267 1201 OFFCURVE",
"288 1186 OFFCURVE",
"330 1186 CURVE SMOOTH",
"775 1186 LINE SMOOTH",
"815 1186 OFFCURVE",
"855 1188 OFFCURVE",
"896 1191 CURVE",
"894 1184 LINE",
"58 290 LINE SMOOTH",
"14 243 OFFCURVE",
"-14 195 OFFCURVE",
"-25 147 CURVE SMOOTH",
"-44 65 LINE SMOOTH",
"-46 58 OFFCURVE",
"-47 51 OFFCURVE",
"-47 45 CURVE SMOOTH",
"-47 15 OFFCURVE",
"-26 0 OFFCURVE",
"16 0 CURVE SMOOTH"
);
}
);
width = 1252;
}
);
unicode = 005A;
},
{
glyphname = uni0190;
lastChange = "2016-10-15 02:32:41 +0000";
layers = (
{
layerId = UUID0;
paths = (
{
closed = 1;
nodes = (
"85 84 OFFCURVE",
"277 -30 OFFCURVE",
"519 -30 CURVE SMOOTH",
"771 -30 OFFCURVE",
"1030 120 OFFCURVE",
"1030 184 CURVE SMOOTH",
"1030 192 OFFCURVE",
"1027 200 OFFCURVE",
"1021 207 CURVE SMOOTH",
"966 279 LINE SMOOTH",
"957 290 OFFCURVE",
"947 296 OFFCURVE",
"936 296 CURVE SMOOTH",
"921 296 OFFCURVE",
"903 287 OFFCURVE",
"884 269 CURVE SMOOTH",
"811 201 OFFCURVE",
"678 126 OFFCURVE",
"553 126 CURVE SMOOTH",
"401 126 OFFCURVE",
"290 163 OFFCURVE",
"290 343 CURVE SMOOTH",
"290 515 OFFCURVE",
"478 675 OFFCURVE",
"661 675 CURVE SMOOTH",
"774 675 LINE SMOOTH",
"805 675 OFFCURVE",
"824 689 OFFCURVE",
"831 718 CURVE SMOOTH",
"847 788 LINE SMOOTH",
"848 793 OFFCURVE",
"849 798 OFFCURVE",
"849 802 CURVE SMOOTH",
"849 823 OFFCURVE",
"835 833 OFFCURVE",
"810 833 CURVE SMOOTH",
"704 833 LINE SMOOTH",
"611 833 OFFCURVE",
"550 856 OFFCURVE",
"523 901 CURVE SMOOTH",
"496 946 OFFCURVE",
"482 994 OFFCURVE",
"482 1041 CURVE SMOOTH",
"482 1227 OFFCURVE",
"628 1308 OFFCURVE",
"755 1308 CURVE SMOOTH",
"890 1308 OFFCURVE",
"966 1278 OFFCURVE",
"1038 1199 CURVE SMOOTH",
"1057 1178 OFFCURVE",
"1073 1168 OFFCURVE",
"1087 1168 CURVE SMOOTH",
"1095 1168 OFFCURVE",
"1102 1171 OFFCURVE",
"1108 1177 CURVE SMOOTH",
"1177 1239 LINE SMOOTH",
"1188 1248 OFFCURVE",
"1193 1259 OFFCURVE",
"1193 1271 CURVE SMOOTH",
"1193 1333 OFFCURVE",
"1047 1416 OFFCURVE",
"982 1436 CURVE SMOOTH",
"919 1455 OFFCURVE",
"848 1464 OFFCURVE",
"771 1464 CURVE SMOOTH",
"618 1464 OFFCURVE",
"499 1420 OFFCURVE",
"414 1331 CURVE SMOOTH",
"329 1242 OFFCURVE",
"287 1151 OFFCURVE",
"287 1056 CURVE SMOOTH",
"287 913 OFFCURVE",
"323 833 OFFCURVE",
"472 767 CURVE",
"472 763 LINE",
"238 715 OFFCURVE",
"85 534 OFFCURVE",
"85 306 CURVE SMOOTH"
);
}
);
width = 1194;
},
{
layerId = "18E77EB5-4A27-4F30-B34A-BA542DA126C8";
paths = (
{
closed = 1;
nodes = (
"78 119 OFFCURVE",
"244 -34 OFFCURVE",
"592 -34 CURVE SMOOTH",
"797 -34 OFFCURVE",
"957 35 OFFCURVE",
"1080 128 CURVE SMOOTH",
"1104 146 OFFCURVE",
"1116 165 OFFCURVE",
"1116 185 CURVE SMOOTH",
"1116 198 OFFCURVE",
"1111 212 OFFCURVE",
"1100 226 CURVE SMOOTH",
"1024 327 LINE SMOOTH",
"1013 342 OFFCURVE",
"999 349 OFFCURVE",
"982 349 CURVE SMOOTH",
"938 349 OFFCURVE",
"848 278 OFFCURVE",
"781 240 CURVE SMOOTH",
"737 215 OFFCURVE",
"683 202 OFFCURVE",
"618 202 CURVE SMOOTH",
"575 202 OFFCURVE",
"525 209 OFFCURVE",
"467 224 CURVE SMOOTH",
"409 239 OFFCURVE",
"380 285 OFFCURVE",
"380 362 CURVE SMOOTH",
"380 521 OFFCURVE",
"551 636 OFFCURVE",
"684 636 CURVE SMOOTH",
"805 636 LINE SMOOTH",
"847 636 OFFCURVE",
"873 657 OFFCURVE",
"883 699 CURVE SMOOTH",
"908 807 LINE SMOOTH",
"910 815 OFFCURVE",
"911 823 OFFCURVE",
"911 829 CURVE SMOOTH",
"911 858 OFFCURVE",
"894 872 OFFCURVE",
"859 872 CURVE SMOOTH",
"724 872 LINE SMOOTH",
"653 872 OFFCURVE",
"606 888 OFFCURVE",
"585 921 CURVE SMOOTH",
"564 953 OFFCURVE",
"553 984 OFFCURVE",
"553 1013 CURVE SMOOTH",
"553 1122 OFFCURVE",
"645 1232 OFFCURVE",
"768 1232 CURVE SMOOTH",
"893 1232 OFFCURVE",
"956 1210 OFFCURVE",
"1030 1148 CURVE SMOOTH",
"1058 1124 OFFCURVE",
"1082 1113 OFFCURVE",
"1103 1113 CURVE SMOOTH",
"1117 1113 OFFCURVE",
"1129 1118 OFFCURVE",
"1140 1128 CURVE SMOOTH",
"1227 1210 LINE SMOOTH",
"1244 1226 OFFCURVE",
"1253 1241 OFFCURVE",
"1253 1258 CURVE SMOOTH",
"1253 1275 OFFCURVE",
"1243 1293 OFFCURVE",
"1225 1311 CURVE SMOOTH",
"1094 1438 OFFCURVE",
"961 1468 OFFCURVE",
"789 1468 CURVE SMOOTH",
"653 1468 OFFCURVE",
"533 1421 OFFCURVE",
"428 1328 CURVE SMOOTH",
"324 1235 OFFCURVE",
"272 1127 OFFCURVE",
"272 1006 CURVE SMOOTH",
"272 870 OFFCURVE",
"386 791 OFFCURVE",
"472 768 CURVE",
"472 764 LINE",
"232 710 OFFCURVE",
"78 550 OFFCURVE",
"78 315 CURVE SMOOTH"
);
}
);
width = 1254;
}
);
unicode = 0190;
},
{
glyphname = uni0191;
lastChange = "2016-10-15 02:32:41 +0000";
layers = (
{
layerId = UUID0;
paths = (
{
closed = 1;
nodes = (
"-305 -405 OFFCURVE",
"-250 -417 OFFCURVE",
"-194 -417 CURVE SMOOTH",
"28 -417 OFFCURVE",
"169 -315 OFFCURVE",
"240 -9 CURVE SMOOTH",
"388 632 LINE",
"975 632 LINE SMOOTH",
"1012 632 OFFCURVE",
"1033 647 OFFCURVE",
"1040 677 CURVE SMOOTH",
"1057 751 LINE SMOOTH",
"1058 756 OFFCURVE",
"1059 760 OFFCURVE",
"1059 764 CURVE SMOOTH",
"1059 785 OFFCURVE",
"1043 796 OFFCURVE",
"1013 796 CURVE SMOOTH",
"426 796 LINE",
"535 1270 LINE",
"1208 1270 LINE SMOOTH",
"1245 1270 OFFCURVE",
"1267 1285 OFFCURVE",
"1274 1315 CURVE SMOOTH",
"1291 1389 LINE SMOOTH",
"1292 1394 OFFCURVE",
"1293 1398 OFFCURVE",
"1293 1402 CURVE SMOOTH",
"1293 1423 OFFCURVE",
"1277 1434 OFFCURVE",
"1246 1434 CURVE SMOOTH",
"431 1434 LINE SMOOTH",
"398 1434 OFFCURVE",
"376 1416 OFFCURVE",
"368 1379 CURVE SMOOTH",
"59 38 LINE SMOOTH",
"1 -215 OFFCURVE",
"-84 -261 OFFCURVE",
"-175 -261 CURVE SMOOTH",
"-206 -261 OFFCURVE",
"-241 -251 OFFCURVE",
"-282 -232 CURVE SMOOTH",
"-295 -226 OFFCURVE",
"-306 -223 OFFCURVE",
"-315 -223 CURVE SMOOTH",
"-331 -223 OFFCURVE",
"-343 -232 OFFCURVE",
"-350 -249 CURVE SMOOTH",
"-379 -320 LINE SMOOTH",
"-383 -330 OFFCURVE",
"-386 -339 OFFCURVE",
"-386 -347 CURVE SMOOTH",
"-386 -363 OFFCURVE",
"-377 -375 OFFCURVE",
"-360 -382 CURVE SMOOTH"
);
}
);
width = 1166;
},
{
layerId = "18E77EB5-4A27-4F30-B34A-BA542DA126C8";
paths = (
{
closed = 1;
nodes = (
"-275 -410 OFFCURVE",
"-214 -420 OFFCURVE",
"-145 -420 CURVE SMOOTH",
"108 -420 OFFCURVE",
"267 -281 OFFCURVE",
"340 35 CURVE SMOOTH",
"468 590 LINE",
"955 590 LINE SMOOTH",
"1005 590 OFFCURVE",
"1035 612 OFFCURVE",
"1045 655 CURVE SMOOTH",
"1072 773 LINE SMOOTH",
"1074 780 OFFCURVE",
"1074 787 OFFCURVE",
"1074 793 CURVE SMOOTH",
"1074 823 OFFCURVE",
"1054 838 OFFCURVE",
"1012 838 CURVE SMOOTH",
"525 838 LINE",
"606 1186 LINE",
"1175 1186 LINE SMOOTH",
"1225 1186 OFFCURVE",
"1255 1208 OFFCURVE",
"1265 1251 CURVE SMOOTH",
"1292 1369 LINE SMOOTH",
"1294 1376 OFFCURVE",
"1294 1383 OFFCURVE",
"1294 1389 CURVE SMOOTH",
"1294 1419 OFFCURVE",
"1274 1434 OFFCURVE",
"1232 1434 CURVE SMOOTH",
"441 1434 LINE SMOOTH",
"393 1434 OFFCURVE",
"365 1409 OFFCURVE",
"354 1359 CURVE SMOOTH",
"61 91 LINE SMOOTH",
"10 -127 OFFCURVE",
"-48 -184 OFFCURVE",
"-149 -184 CURVE SMOOTH",
"-180 -184 OFFCURVE",
"-211 -178 OFFCURVE",
"-240 -167 CURVE SMOOTH",
"-249 -163 OFFCURVE",
"-258 -162 OFFCURVE",
"-265 -162 CURVE SMOOTH",
"-287 -162 OFFCURVE",
"-302 -177 OFFCURVE",
"-312 -206 CURVE SMOOTH",
"-351 -320 LINE SMOOTH",
"-355 -331 OFFCURVE",
"-357 -341 OFFCURVE",
"-357 -350 CURVE SMOOTH",
"-357 -369 OFFCURVE",
"-348 -382 OFFCURVE",
"-329 -389 CURVE SMOOTH"
);
}
);
width = 1176;
}
);
unicode = 0191;
},
{
glyphname = uni0194;
lastChange = "2016-10-15 02:32:41 +0000";
layers = (
{
layerId = UUID0;
paths = (
{
closed = 1;
nodes = (
"536 552 LINE",
"393 420 OFFCURVE",
"283 282 OFFCURVE",
"283 183 CURVE SMOOTH",
"283 23 OFFCURVE",
"395 -30 OFFCURVE",
"539 -30 CURVE SMOOTH",
"732 -30 OFFCURVE",
"860 98 OFFCURVE",
"860 263 CURVE SMOOTH",
"860 315 OFFCURVE",
"832 403 OFFCURVE",
"748 536 CURVE",
"1424 1368 LINE SMOOTH",
"1440 1388 OFFCURVE",
"1448 1403 OFFCURVE",
"1448 1414 CURVE SMOOTH",
"1448 1427 OFFCURVE",
"1436 1434 OFFCURVE",
"1412 1434 CURVE SMOOTH",
"1288 1434 LINE SMOOTH",
"1257 1434 OFFCURVE",
"1230 1418 OFFCURVE",
"1205 1385 CURVE SMOOTH",
"838 898 LINE SMOOTH",
"761 797 OFFCURVE",
"724 746 OFFCURVE",
"666 656 CURVE",
"662 656 LINE",
"652 700 OFFCURVE",
"640 739 OFFCURVE",
"630 774 CURVE SMOOTH",
"453 1385 LINE SMOOTH",
"443 1418 OFFCURVE",
"423 1434 OFFCURVE",
"392 1434 CURVE SMOOTH",
"292 1434 LINE SMOOTH",
"260 1434 OFFCURVE",
"244 1422 OFFCURVE",
"244 1398 CURVE SMOOTH",
"244 1389 OFFCURVE",
"246 1379 OFFCURVE",
"250 1368 CURVE SMOOTH"
);
},
{
closed = 1;
nodes = (
"475 265 OFFCURVE",
"538 363 OFFCURVE",
"615 424 CURVE",
"619 424 LINE",
"661 338 OFFCURVE",
"668 303 OFFCURVE",
"668 256 CURVE SMOOTH",
"668 200 OFFCURVE",
"621 126 OFFCURVE",
"559 126 CURVE SMOOTH",
"499 126 OFFCURVE",
"475 143 OFFCURVE",
"475 203 CURVE SMOOTH"
);
}
);
width = 1282;
},
{
layerId = "18E77EB5-4A27-4F30-B34A-BA542DA126C8";
paths = (
{
closed = 1;
nodes = (
"503 542 LINE",
"380 466 OFFCURVE",
"264 338 OFFCURVE",
"264 204 CURVE SMOOTH",
"264 68 OFFCURVE",
"354 -34 OFFCURVE",
"564 -34 CURVE SMOOTH",
"697 -34 OFFCURVE",
"797 -1 OFFCURVE",
"863 65 CURVE SMOOTH",
"929 131 OFFCURVE",
"962 201 OFFCURVE",
"962 272 CURVE SMOOTH",
"962 365 OFFCURVE",
"913 445 OFFCURVE",
"845 528 CURVE",
"1488 1348 LINE SMOOTH",
"1507 1372 OFFCURVE",
"1516 1390 OFFCURVE",
"1516 1404 CURVE SMOOTH",
"1516 1424 OFFCURVE",
"1498 1434 OFFCURVE",
"1461 1434 CURVE SMOOTH",
"1266 1434 LINE SMOOTH",
"1229 1434 OFFCURVE",
"1193 1411 OFFCURVE",
"1158 1365 CURVE SMOOTH",
"865 974 LINE",
"781 865 LINE SMOOTH",
"748 823 OFFCURVE",
"724 777 OFFCURVE",
"708 728 CURVE",
"704 728 LINE",
"704 827 OFFCURVE",
"672 907 OFFCURVE",
"653 974 CURVE SMOOTH",
"540 1365 LINE SMOOTH",
"527 1411 OFFCURVE",
"501 1434 OFFCURVE",
"464 1434 CURVE SMOOTH",
"309 1434 LINE SMOOTH",
"259 1434 OFFCURVE",
"234 1418 OFFCURVE",
"234 1386 CURVE SMOOTH",
"234 1377 OFFCURVE",
"236 1367 OFFCURVE",
"240 1356 CURVE SMOOTH"
);
},
{
closed = 1;
nodes = (
"538 279 OFFCURVE",
"572 345 OFFCURVE",
"643 394 CURVE",
"647 394 LINE",
"686 345 OFFCURVE",
"688 308 OFFCURVE",
"688 292 CURVE SMOOTH",
"688 240 OFFCURVE",
"645 196 OFFCURVE",
"594 196 CURVE SMOOTH",
"562 196 OFFCURVE",
"538 209 OFFCURVE",
"538 254 CURVE SMOOTH"
);
}
);
width = 1348;
}
);
unicode = 0194;
},
{
glyphname = uni0196;
lastChange = "2016-10-15 02:32:41 +0000";
layers = (
{
layerId = UUID0;
paths = (
{
closed = 1;
nodes = (
"139 388 LINE SMOOTH",
"126 332 OFFCURVE",
"120 282 OFFCURVE",
"120 237 CURVE SMOOTH",
"120 62 OFFCURVE",
"216 -30 OFFCURVE",
"390 -30 CURVE SMOOTH",
"491 -30 OFFCURVE",
"672 32 OFFCURVE",
"672 83 CURVE SMOOTH",
"672 89 OFFCURVE",
"670 96 OFFCURVE",
"667 103 CURVE SMOOTH",
"640 159 LINE SMOOTH",
"632 174 OFFCURVE",
"621 182 OFFCURVE",
"605 182 CURVE SMOOTH",
"595 182 OFFCURVE",
"583 179 OFFCURVE",
"570 173 CURVE SMOOTH",
"503 142 OFFCURVE",
"459 126 OFFCURVE",
"411 126 CURVE SMOOTH",
"338 126 OFFCURVE",
"307 167 OFFCURVE",
"307 236 CURVE SMOOTH",
"307 258 OFFCURVE",
"310 283 OFFCURVE",
"316 310 CURVE SMOOTH",
"560 1379 LINE SMOOTH",
"562 1387 OFFCURVE",
"563 1393 OFFCURVE",
"563 1399 CURVE SMOOTH",
"563 1423 OFFCURVE",
"549 1434 OFFCURVE",
"523 1434 CURVE SMOOTH",
"431 1434 LINE SMOOTH",
"398 1434 OFFCURVE",
"376 1416 OFFCURVE",
"368 1379 CURVE SMOOTH"
);
}
);
width = 815;
},
{
layerId = "18E77EB5-4A27-4F30-B34A-BA542DA126C8";
paths = (
{
closed = 1;
nodes = (
"160 518 LINE SMOOTH",
"144 450 OFFCURVE",
"136 388 OFFCURVE",
"136 331 CURVE SMOOTH",
"136 101 OFFCURVE",
"263 -34 OFFCURVE",
"484 -34 CURVE SMOOTH",
"578 -34 OFFCURVE",
"800 -3 OFFCURVE",
"800 76 CURVE SMOOTH",
"800 83 OFFCURVE",
"799 89 OFFCURVE",
"797 97 CURVE SMOOTH",
"766 208 LINE SMOOTH",
"760 231 OFFCURVE",
"746 242 OFFCURVE",
"723 242 CURVE SMOOTH",
"712 242 OFFCURVE",
"700 239 OFFCURVE",
"685 234 CURVE SMOOTH",
"636 215 OFFCURVE",
"591 202 OFFCURVE",
"538 202 CURVE SMOOTH",
"461 202 OFFCURVE",
"421 246 OFFCURVE",
"421 336 CURVE",
"420 368 OFFCURVE",
"426 405 OFFCURVE",
"436 448 CURVE SMOOTH",
"646 1359 LINE SMOOTH",
"648 1369 OFFCURVE",
"649 1378 OFFCURVE",
"649 1385 CURVE SMOOTH",
"649 1418 OFFCURVE",
"631 1434 OFFCURVE",
"593 1434 CURVE SMOOTH",
"441 1434 LINE SMOOTH",
"393 1434 OFFCURVE",
"365 1409 OFFCURVE",
"354 1359 CURVE SMOOTH"
);
}
);
width = 938;
}
);
unicode = 0196;
},
{
glyphname = uni0197;
lastChange = "2016-10-15 02:32:41 +0000";
layers = (
{
layerId = UUID0;
paths = (
{
closed = 1;
nodes = (
"277 0 LINE SMOOTH",
"310 0 OFFCURVE",
"331 18 OFFCURVE",
"340 55 CURVE SMOOTH",
"476 644 LINE",
"626 644 LINE SMOOTH",
"663 644 OFFCURVE",
"684 659 OFFCURVE",
"691 689 CURVE SMOOTH",
"708 763 LINE SMOOTH",
"709 768 OFFCURVE",
"710 772 OFFCURVE",
"710 777 CURVE SMOOTH",
"710 798 OFFCURVE",
"695 808 OFFCURVE",
"664 808 CURVE SMOOTH",
"514 808 LINE",
"645 1379 LINE SMOOTH",
"647 1387 OFFCURVE",
"648 1393 OFFCURVE",
"648 1399 CURVE SMOOTH",
"648 1423 OFFCURVE",
"634 1434 OFFCURVE",
"608 1434 CURVE SMOOTH",
"516 1434 LINE SMOOTH",
"483 1434 OFFCURVE",
"461 1416 OFFCURVE",
"453 1379 CURVE SMOOTH",
"322 808 LINE",
"172 808 LINE SMOOTH",
"135 808 OFFCURVE",
"113 793 OFFCURVE",
"106 763 CURVE SMOOTH",
"89 689 LINE SMOOTH",
"88 684 OFFCURVE",
"87 680 OFFCURVE",
"87 676 CURVE SMOOTH",
"87 654 OFFCURVE",
"103 644 OFFCURVE",
"134 644 CURVE SMOOTH",
"284 644 LINE",
"148 55 LINE SMOOTH",
"146 47 OFFCURVE",
"145 40 OFFCURVE",
"145 34 CURVE SMOOTH",
"145 11 OFFCURVE",
"159 0 OFFCURVE",
"185 0 CURVE SMOOTH"
);
}
);
width = 702;
},
{
layerId = "18E77EB5-4A27-4F30-B34A-BA542DA126C8";
paths = (
{
closed = 1;
nodes = (
"278 622 LINE",
"151 75 LINE SMOOTH",
"149 65 OFFCURVE",
"148 56 OFFCURVE",
"148 48 CURVE SMOOTH",
"148 16 OFFCURVE",
"166 0 OFFCURVE",
"204 0 CURVE SMOOTH",
"356 0 LINE SMOOTH",
"403 0 OFFCURVE",
"431 25 OFFCURVE",
"443 75 CURVE SMOOTH",
"570 622 LINE",
"703 622 LINE SMOOTH",
"753 622 OFFCURVE",
"783 644 OFFCURVE",
"793 687 CURVE SMOOTH",
"820 805 LINE SMOOTH",
"822 812 OFFCURVE",
"822 819 OFFCURVE",
"822 825 CURVE SMOOTH",
"822 855 OFFCURVE",
"802 870 OFFCURVE",
"760 870 CURVE SMOOTH",
"627 870 LINE",
"740 1359 LINE SMOOTH",
"742 1369 OFFCURVE",
"743 1378 OFFCURVE",
"743 1385 CURVE SMOOTH",
"743 1418 OFFCURVE",
"725 1434 OFFCURVE",
"687 1434 CURVE SMOOTH",
"535 1434 LINE SMOOTH",
"487 1434 OFFCURVE",
"459 1409 OFFCURVE",
"448 1359 CURVE SMOOTH",
"335 870 LINE",
"202 870 LINE SMOOTH",
"152 870 OFFCURVE",
"122 848 OFFCURVE",
"112 805 CURVE SMOOTH",
"85 687 LINE SMOOTH",
"83 680 OFFCURVE",
"82 673 OFFCURVE",
"82 667 CURVE SMOOTH",
"82 637 OFFCURVE",
"103 622 OFFCURVE",
"145 622 CURVE SMOOTH"
);
}
);
width = 800;
}
);
unicode = 0197;
},
{
glyphname = uni01B2;
lastChange = "2016-10-15 02:32:41 +0000";
layers = (
{
layerId = UUID0;
paths = (
{
closed = 1;
nodes = (
"176 547 LINE SMOOTH",
"159 472 OFFCURVE",
"150 405 OFFCURVE",
"150 346 CURVE SMOOTH",
"150 84 OFFCURVE",
"345 -30 OFFCURVE",
"566 -30 CURVE SMOOTH",
"805 -30 OFFCURVE",
"990 66 OFFCURVE",
"1120 258 CURVE SMOOTH",
"1250 451 OFFCURVE",
"1315 682 OFFCURVE",
"1315 952 CURVE SMOOTH",
"1315 1156 OFFCURVE",
"1257 1310 OFFCURVE",
"1178 1426 CURVE SMOOTH",
"1164 1447 OFFCURVE",
"1148 1458 OFFCURVE",
"1131 1458 CURVE SMOOTH",
"1120 1458 OFFCURVE",
"1110 1454 OFFCURVE",
"1099 1446 CURVE SMOOTH",
"1024 1394 LINE SMOOTH",
"1007 1382 OFFCURVE",
"998 1369 OFFCURVE",
"998 1355 CURVE SMOOTH",
"998 1345 OFFCURVE",
"1002 1335 OFFCURVE",
"1009 1325 CURVE SMOOTH",
"1084 1215 OFFCURVE",
"1110 1104 OFFCURVE",
"1110 880 CURVE SMOOTH",
"1110 648 OFFCURVE",
"1055 464 OFFCURVE",
"944 329 CURVE SMOOTH",
"833 194 OFFCURVE",
"716 126 OFFCURVE",
"593 126 CURVE SMOOTH",
"502 126 OFFCURVE",
"432 152 OFFCURVE",
"382 204 CURVE SMOOTH",
"355 231 OFFCURVE",
"343 279 OFFCURVE",
"343 346 CURVE SMOOTH",
"343 406 OFFCURVE",
"353 484 OFFCURVE",
"375 577 CURVE SMOOTH",
"560 1379 LINE SMOOTH",
"562 1387 OFFCURVE",
"563 1393 OFFCURVE",
"563 1399 CURVE SMOOTH",
"563 1423 OFFCURVE",
"549 1434 OFFCURVE",
"523 1434 CURVE SMOOTH",
"431 1434 LINE SMOOTH",
"398 1434 OFFCURVE",
"376 1416 OFFCURVE",
"368 1379 CURVE SMOOTH"
);
}
);
width = 1341;
},
{
layerId = "18E77EB5-4A27-4F30-B34A-BA542DA126C8";
paths = (
{
closed = 1;
nodes = (
"178 597 LINE SMOOTH",
"159 515 OFFCURVE",
"150 441 OFFCURVE",
"150 376 CURVE SMOOTH",
"150 87 OFFCURVE",
"359 -34 OFFCURVE",
"637 -34 CURVE SMOOTH",
"857 -34 OFFCURVE",
"1033 62 OFFCURVE",
"1166 253 CURVE SMOOTH",
"1299 444 OFFCURVE",
"1365 676 OFFCURVE",
"1365 947 CURVE SMOOTH",
"1365 1052 OFFCURVE",
"1315 1247 OFFCURVE",
"1208 1407 CURVE SMOOTH",
"1186 1440 OFFCURVE",
"1162 1456 OFFCURVE",
"1136 1456 CURVE SMOOTH",
"1121 1456 OFFCURVE",
"1105 1450 OFFCURVE",
"1088 1439 CURVE SMOOTH",
"954 1347 LINE SMOOTH",
"937 1335 OFFCURVE",
"928 1319 OFFCURVE",
"928 1300 CURVE SMOOTH",
"928 1259 OFFCURVE",
"985 1174 OFFCURVE",
"1020 1074 CURVE SMOOTH",
"1042 1010 OFFCURVE",
"1053 950 OFFCURVE",
"1053 893 CURVE SMOOTH",
"1053 732 OFFCURVE",
"1014 576 OFFCURVE",
"937 426 CURVE SMOOTH",
"860 277 OFFCURVE",
"771 202 OFFCURVE",
"669 202 CURVE SMOOTH",
"591 202 OFFCURVE",
"528 224 OFFCURVE",
"481 269 CURVE SMOOTH",
"456 293 OFFCURVE",
"443 336 OFFCURVE",
"443 399 CURVE SMOOTH",
"443 454 OFFCURVE",
"453 523 OFFCURVE",
"472 607 CURVE SMOOTH",
"650 1379 LINE SMOOTH",
"651 1385 OFFCURVE",
"652 1390 OFFCURVE",
"652 1395 CURVE SMOOTH",
"652 1421 OFFCURVE",
"632 1434 OFFCURVE",
"593 1434 CURVE SMOOTH",
"441 1434 LINE SMOOTH",
"394 1434 OFFCURVE",
"366 1416 OFFCURVE",
"358 1379 CURVE SMOOTH"
);
}
);
width = 1377;
}
);
unicode = 01B2;
},
{
glyphname = uni0244;
lastChange = "2016-10-15 02:32:41 +0000";
layers = (
{
layerId = UUID0;
paths = (
{
closed = 1;
nodes = (
"283 644 LINE",
"261 547 LINE SMOOTH",
"244 473 OFFCURVE",
"235 407 OFFCURVE",
"235 348 CURVE SMOOTH",
"235 78 OFFCURVE",
"454 -30 OFFCURVE",
"659 -30 CURVE SMOOTH",
"1019 -30 OFFCURVE",
"1222 122 OFFCURVE",
"1323 547 CURVE SMOOTH",
"1346 644 LINE",
"1496 644 LINE SMOOTH",
"1533 644 OFFCURVE",
"1554 659 OFFCURVE",
"1561 689 CURVE SMOOTH",
"1578 763 LINE SMOOTH",
"1579 768 OFFCURVE",
"1580 772 OFFCURVE",
"1580 777 CURVE SMOOTH",
"1580 798 OFFCURVE",
"1565 808 OFFCURVE",
"1534 808 CURVE SMOOTH",
"1383 808 LINE",
"1515 1379 LINE SMOOTH",
"1517 1387 OFFCURVE",
"1518 1393 OFFCURVE",
"1518 1399 CURVE SMOOTH",
"1518 1423 OFFCURVE",
"1504 1434 OFFCURVE",
"1478 1434 CURVE SMOOTH",
"1386 1434 LINE SMOOTH",
"1353 1434 OFFCURVE",
"1331 1416 OFFCURVE",
"1323 1379 CURVE SMOOTH",
"1191 808 LINE",
"513 808 LINE",
"645 1379 LINE SMOOTH",
"647 1387 OFFCURVE",
"648 1393 OFFCURVE",
"648 1399 CURVE SMOOTH",
"648 1423 OFFCURVE",
"634 1434 OFFCURVE",
"608 1434 CURVE SMOOTH",
"516 1434 LINE SMOOTH",
"483 1434 OFFCURVE",
"461 1416 OFFCURVE",
"453 1379 CURVE SMOOTH",
"321 808 LINE",
"172 808 LINE SMOOTH",
"135 808 OFFCURVE",
"113 793 OFFCURVE",
"106 763 CURVE SMOOTH",
"89 689 LINE SMOOTH",
"88 684 OFFCURVE",
"87 680 OFFCURVE",
"87 676 CURVE SMOOTH",
"87 654 OFFCURVE",
"103 644 OFFCURVE",
"134 644 CURVE SMOOTH"
);
},
{
closed = 1;
nodes = (
"475 644 LINE",
"1153 644 LINE",
"1138 577 LINE SMOOTH",
"1096 390 OFFCURVE",
"1033 268 OFFCURVE",
"957 211 CURVE SMOOTH",
"880 154 OFFCURVE",
"791 126 OFFCURVE",
"695 126 CURVE SMOOTH",
"510 126 OFFCURVE",
"427 179 OFFCURVE",
"427 338 CURVE",
"426 400 OFFCURVE",
"438 480 OFFCURVE",
"460 577 CURVE SMOOTH"
);
}
);
width = 1572;
},
{
layerId = "18E77EB5-4A27-4F30-B34A-BA542DA126C8";
paths = (
{
closed = 1;
nodes = (
"278 622 LINE",
"272 597 LINE SMOOTH",
"252 515 OFFCURVE",
"244 440 OFFCURVE",
"244 376 CURVE SMOOTH",
"244 90 OFFCURVE",
"449 -34 OFFCURVE",
"701 -34 CURVE SMOOTH",
"888 -34 OFFCURVE",
"1033 11 OFFCURVE",
"1136 100 CURVE",
"1240 188 OFFCURVE",
"1316 355 OFFCURVE",
"1374 597 CURVE SMOOTH",
"1380 622 LINE",
"1513 622 LINE SMOOTH",
"1563 622 OFFCURVE",
"1593 644 OFFCURVE",
"1603 687 CURVE SMOOTH",
"1630 805 LINE SMOOTH",
"1632 812 OFFCURVE",
"1632 819 OFFCURVE",
"1632 825 CURVE SMOOTH",
"1632 855 OFFCURVE",
"1612 870 OFFCURVE",
"1570 870 CURVE SMOOTH",
"1437 870 LINE",
"1554 1379 LINE SMOOTH",
"1555 1385 OFFCURVE",
"1556 1390 OFFCURVE",
"1556 1395 CURVE SMOOTH",
"1556 1421 OFFCURVE",
"1536 1434 OFFCURVE",
"1497 1434 CURVE SMOOTH",
"1345 1434 LINE SMOOTH",
"1298 1434 OFFCURVE",
"1270 1416 OFFCURVE",
"1262 1379 CURVE SMOOTH",
"1145 870 LINE",
"627 870 LINE",
"744 1379 LINE SMOOTH",
"745 1385 OFFCURVE",
"746 1390 OFFCURVE",
"746 1395 CURVE SMOOTH",
"746 1421 OFFCURVE",
"726 1434 OFFCURVE",
"687 1434 CURVE SMOOTH",
"535 1434 LINE SMOOTH",
"488 1434 OFFCURVE",
"460 1416 OFFCURVE",
"452 1379 CURVE SMOOTH",
"335 870 LINE",
"202 870 LINE SMOOTH",
"152 870 OFFCURVE",
"122 848 OFFCURVE",
"112 805 CURVE SMOOTH",
"85 687 LINE SMOOTH",
"83 680 OFFCURVE",
"82 673 OFFCURVE",
"82 667 CURVE SMOOTH",
"82 637 OFFCURVE",
"103 622 OFFCURVE",
"145 622 CURVE SMOOTH"
);
},
{
closed = 1;
nodes = (
"569 622 LINE",
"1087 622 LINE",
"1084 607 LINE SMOOTH",
"1047 447 OFFCURVE",
"996 339 OFFCURVE",
"930 284 CURVE SMOOTH",
"864 229 OFFCURVE",
"798 202 OFFCURVE",
"731 202 CURVE SMOOTH",
"615 202 OFFCURVE",
"533 243 OFFCURVE",
"533 378 CURVE SMOOTH",
"533 435 OFFCURVE",
"544 512 OFFCURVE",
"566 607 CURVE SMOOTH"
);
}
);
width = 1610;
}
);
unicode = 0244;
},
{
glyphname = uni0245;
lastChange = "2016-10-15 02:32:41 +0000";
layers = (
{
layerId = UUID0;
paths = (
{
closed = 1;
nodes = (
"67 0 LINE SMOOTH",
"103 0 OFFCURVE",
"130 16 OFFCURVE",
"150 49 CURVE SMOOTH",
"682 944 LINE SMOOTH",
"717 1004 OFFCURVE",
"821 1188 OFFCURVE",
"850 1261 CURVE",
"854 1261 LINE",
"854 1187 OFFCURVE",
"867 1014 OFFCURVE",
"876 944 CURVE SMOOTH",
"994 49 LINE SMOOTH",
"998 16 OFFCURVE",
"1018 0 OFFCURVE",
"1055 0 CURVE SMOOTH",
"1145 0 LINE SMOOTH",
"1174 0 OFFCURVE",
"1188 16 OFFCURVE",
"1188 48 CURVE SMOOTH",
"1188 53 OFFCURVE",
"1188 59 OFFCURVE",
"1187 66 CURVE SMOOTH",
"1002 1373 LINE SMOOTH",
"996 1414 OFFCURVE",
"979 1434 OFFCURVE",
"950 1434 CURVE SMOOTH",
"810 1434 LINE SMOOTH",
"781 1434 OFFCURVE",
"755 1414 OFFCURVE",
"730 1373 CURVE SMOOTH",
"-59 66 LINE SMOOTH",
"-71 47 OFFCURVE",
"-77 32 OFFCURVE",
"-77 21 CURVE SMOOTH",
"-77 7 OFFCURVE",
"-67 0 OFFCURVE",
"-47 0 CURVE SMOOTH"
);
}
);
width = 1338;
},
{
layerId = "18E77EB5-4A27-4F30-B34A-BA542DA126C8";
paths = (
{
closed = 1;
nodes = (
"149 0 LINE SMOOTH",
"194 0 OFFCURVE",
"230 23 OFFCURVE",
"257 69 CURVE SMOOTH",
"756 904 LINE SMOOTH",
"805 986 OFFCURVE",
"803 989 OFFCURVE",
"828 1061 CURVE",
"832 1061 LINE",
"827 1028 OFFCURVE",
"825 1004 OFFCURVE",
"825 988 CURVE SMOOTH",
"825 972 OFFCURVE",
"826 944 OFFCURVE",
"832 904 CURVE SMOOTH",
"945 69 LINE SMOOTH",
"951 23 OFFCURVE",
"976 0 OFFCURVE",
"1021 0 CURVE SMOOTH",
"1160 0 LINE SMOOTH",
"1202 0 OFFCURVE",
"1223 17 OFFCURVE",
"1223 52 CURVE SMOOTH",
"1223 56 OFFCURVE",
"1223 61 OFFCURVE",
"1222 66 CURVE SMOOTH",
"1041 1353 LINE SMOOTH",
"1033 1407 OFFCURVE",
"1009 1434 OFFCURVE",
"966 1434 CURVE SMOOTH",
"826 1434 LINE SMOOTH",
"783 1434 OFFCURVE",
"746 1407 OFFCURVE",
"713 1353 CURVE SMOOTH",
"-62 66 LINE SMOOTH",
"-72 50 OFFCURVE",
"-77 37 OFFCURVE",
"-77 27 CURVE SMOOTH",
"-77 9 OFFCURVE",
"-61 0 OFFCURVE",
"-30 0 CURVE SMOOTH"
);
}
);
width = 1370;
}
);
unicode = 0245;
},
{
glyphname = uni2C6E;
lastChange = "2016-10-15 02:32:41 +0000";
layers = (
{
layerId = UUID0;
paths = (
{
closed = 1;
nodes = (
"192 0 LINE SMOOTH",
"225 0 OFFCURVE",
"246 18 OFFCURVE",
"255 55 CURVE SMOOTH",
"497 1104 LINE SMOOTH",
"502 1128 OFFCURVE",
"507 1155 OFFCURVE",
"513 1184 CURVE",
"517 1184 LINE",
"627 61 LINE SMOOTH",
"631 20 OFFCURVE",
"648 0 OFFCURVE",
"679 0 CURVE SMOOTH",
"789 0 LINE SMOOTH",
"820 0 OFFCURVE",
"846 20 OFFCURVE",
"869 61 CURVE SMOOTH",
"1497 1184 LINE",
"1501 1184 LINE",
"1494 1161 OFFCURVE",
"1488 1134 OFFCURVE",
"1481 1104 CURVE SMOOTH",
"1235 38 LINE SMOOTH",
"1177 -212 OFFCURVE",
"1093 -261 OFFCURVE",
"1001 -261 CURVE SMOOTH",
"970 -261 OFFCURVE",
"935 -251 OFFCURVE",
"894 -232 CURVE SMOOTH",
"881 -226 OFFCURVE",
"870 -223 OFFCURVE",
"861 -223 CURVE SMOOTH",
"845 -223 OFFCURVE",
"833 -232 OFFCURVE",
"826 -249 CURVE SMOOTH",
"797 -320 LINE SMOOTH",
"793 -330 OFFCURVE",
"790 -339 OFFCURVE",
"790 -347 CURVE SMOOTH",
"790 -397 OFFCURVE",
"925 -417 OFFCURVE",
"982 -417 CURVE SMOOTH",
"1204 -417 OFFCURVE",
"1345 -315 OFFCURVE",
"1416 -9 CURVE SMOOTH",
"1736 1379 LINE SMOOTH",
"1738 1387 OFFCURVE",
"1739 1393 OFFCURVE",
"1739 1399 CURVE SMOOTH",
"1739 1423 OFFCURVE",
"1725 1434 OFFCURVE",
"1699 1434 CURVE SMOOTH",
"1474 1434 LINE SMOOTH",
"1449 1434 OFFCURVE",
"1425 1414 OFFCURVE",
"1403 1374 CURVE SMOOTH",
"910 477 LINE SMOOTH",
"848 365 OFFCURVE",
"809 290 OFFCURVE",
"773 206 CURVE",
"767 206 LINE",
"766 286 OFFCURVE",
"763 368 OFFCURVE",
"754 477 CURVE SMOOTH",
"675 1374 LINE SMOOTH",
"671 1414 OFFCURVE",
"657 1434 OFFCURVE",
"632 1434 CURVE SMOOTH",
"431 1434 LINE SMOOTH",
"398 1434 OFFCURVE",
"376 1416 OFFCURVE",
"368 1379 CURVE SMOOTH",
"63 55 LINE SMOOTH",
"61 47 OFFCURVE",
"60 40 OFFCURVE",
"60 34 CURVE SMOOTH",
"60 11 OFFCURVE",
"74 0 OFFCURVE",
"100 0 CURVE SMOOTH"
);
}
);
width = 1708;
},
{
layerId = "18E77EB5-4A27-4F30-B34A-BA542DA126C8";
paths = (
{
closed = 1;
nodes = (
"262 0 LINE SMOOTH",
"309 0 OFFCURVE",
"337 25 OFFCURVE",
"349 75 CURVE SMOOTH",
"540 901 LINE SMOOTH",
"549 940 OFFCURVE",
"556 980 OFFCURVE",
"563 1021 CURVE",
"570 1021 LINE",
"642 81 LINE SMOOTH",
"646 27 OFFCURVE",
"668 0 OFFCURVE",
"709 0 CURVE SMOOTH",
"879 0 LINE SMOOTH",
"920 0 OFFCURVE",
"955 27 OFFCURVE",
"984 81 CURVE SMOOTH",
"1490 1021 LINE",
"1497 1021 LINE",
"1484 977 OFFCURVE",
"1472 937 OFFCURVE",
"1464 901 CURVE SMOOTH",
"1277 91 LINE SMOOTH",
"1226 -128 OFFCURVE",
"1168 -184 OFFCURVE",
"1067 -184 CURVE SMOOTH",
"1036 -184 OFFCURVE",
"1005 -178 OFFCURVE",
"976 -167 CURVE SMOOTH",
"967 -163 OFFCURVE",
"958 -162 OFFCURVE",
"951 -162 CURVE SMOOTH",
"929 -162 OFFCURVE",
"914 -177 OFFCURVE",
"904 -206 CURVE SMOOTH",
"865 -320 LINE SMOOTH",
"861 -331 OFFCURVE",
"859 -341 OFFCURVE",
"859 -350 CURVE SMOOTH",
"859 -406 OFFCURVE",
"991 -420 OFFCURVE",
"1071 -420 CURVE SMOOTH",
"1324 -420 OFFCURVE",
"1483 -281 OFFCURVE",
"1556 35 CURVE SMOOTH",
"1862 1359 LINE SMOOTH",
"1864 1369 OFFCURVE",
"1865 1378 OFFCURVE",
"1865 1385 CURVE SMOOTH",
"1865 1418 OFFCURVE",
"1847 1434 OFFCURVE",
"1809 1434 CURVE SMOOTH",
"1505 1434 LINE SMOOTH",
"1466 1434 OFFCURVE",
"1433 1407 OFFCURVE",
"1404 1354 CURVE SMOOTH",
"930 477 LINE SMOOTH",
"883 390 OFFCURVE",
"876 370 OFFCURVE",
"852 297 CURVE",
"846 297 LINE",
"851 340 OFFCURVE",
"853 372 OFFCURVE",
"853 398 CURVE SMOOTH",
"853 419 OFFCURVE",
"852 445 OFFCURVE",
"850 477 CURVE SMOOTH",
"782 1354 LINE SMOOTH",
"778 1407 OFFCURVE",
"756 1434 OFFCURVE",
"717 1434 CURVE SMOOTH",
"441 1434 LINE SMOOTH",
"393 1434 OFFCURVE",
"365 1409 OFFCURVE",
"354 1359 CURVE SMOOTH",
"57 75 LINE SMOOTH",
"55 65 OFFCURVE",
"54 56 OFFCURVE",
"54 48 CURVE SMOOTH",
"54 16 OFFCURVE",
"72 0 OFFCURVE",
"110 0 CURVE SMOOTH"
);
}
);
width = 1828;
}
);
unicode = 2C6E;
},
{
glyphname = a;
lastChange = "2016-10-15 02:32:41 +0000";
layers = (
{
layerId = UUID0;
paths = (
{
closed = 1;
nodes = (
"66 97 OFFCURVE",
"194 -17 OFFCURVE",
"387 -17 CURVE SMOOTH",
"522 -17 OFFCURVE",
"635 82 OFFCURVE",
"699 165 CURVE",
"701 165 LINE",
"676 45 LINE SMOOTH",
"675 40 OFFCURVE",
"674 35 OFFCURVE",
"674 31 CURVE SMOOTH",
"674 10 OFFCURVE",
"687 0 OFFCURVE",
"711 0 CURVE SMOOTH",
"792 0 LINE SMOOTH",
"822 0 OFFCURVE",
"840 15 OFFCURVE",
"847 45 CURVE SMOOTH",
"1069 1005 LINE SMOOTH",
"1070 1010 OFFCURVE",
"1071 1015 OFFCURVE",
"1071 1020 CURVE SMOOTH",
"1071 1040 OFFCURVE",
"1058 1050 OFFCURVE",
"1034 1050 CURVE SMOOTH",
"950 1050 LINE SMOOTH",
"927 1050 OFFCURVE",
"911 1035 OFFCURVE",
"901 1005 CURVE SMOOTH",
"880 942 LINE",
"878 942 LINE",
"840 1007 OFFCURVE",
"764 1067 OFFCURVE",
"644 1067 CURVE SMOOTH",
"507 1067 OFFCURVE",
"376 991 OFFCURVE",
"252 840 CURVE SMOOTH",
"128 689 OFFCURVE",
"66 522 OFFCURVE",
"66 339 CURVE SMOOTH"
);
},
{
closed = 1;
nodes = (
"252 496 OFFCURVE",
"293 638 OFFCURVE",
"375 757 CURVE SMOOTH",
"457 877 OFFCURVE",
"545 937 OFFCURVE",
"638 937 CURVE SMOOTH",
"748 937 OFFCURVE",
"838 891 OFFCURVE",
"838 770 CURVE",
"771 480 LINE SMOOTH",
"732 314 OFFCURVE",
"552 113 OFFCURVE",
"433 113 CURVE SMOOTH",
"360 113 OFFCURVE",
"310 138 OFFCURVE",
"287 189 CURVE SMOOTH",
"263 240 OFFCURVE",
"252 288 OFFCURVE",
"252 332 CURVE SMOOTH"
);
}
);
width = 1099;
},
{
layerId = "18E77EB5-4A27-4F30-B34A-BA542DA126C8";
paths = (
{
closed = 1;
nodes = (
"62 175 OFFCURVE",
"183 -20 OFFCURVE",
"398 -20 CURVE SMOOTH",
"511 -20 OFFCURVE",
"595 42 OFFCURVE",
"674 138 CURVE",
"678 138 LINE",
"664 60 LINE SMOOTH",
"663 54 OFFCURVE",
"662 48 OFFCURVE",
"662 42 CURVE SMOOTH",
"662 14 OFFCURVE",
"678 0 OFFCURVE",
"709 0 CURVE SMOOTH",
"862 0 LINE SMOOTH",
"902 0 OFFCURVE",
"927 20 OFFCURVE",
"936 60 CURVE SMOOTH",
"1151 990 LINE SMOOTH",
"1153 997 OFFCURVE",
"1153 1004 OFFCURVE",
"1153 1010 CURVE SMOOTH",
"1153 1037 OFFCURVE",
"1137 1050 OFFCURVE",
"1104 1050 CURVE SMOOTH",
"951 1050 LINE SMOOTH",
"925 1050 OFFCURVE",
"903 1030 OFFCURVE",
"884 990 CURVE SMOOTH",
"867 954 LINE",
"863 954 LINE",
"799 1048 OFFCURVE",
"711 1070 OFFCURVE",
"652 1070 CURVE SMOOTH",
"502 1070 OFFCURVE",
"365 1002 OFFCURVE",
"244 865 CURVE SMOOTH",
"123 728 OFFCURVE",
"62 566 OFFCURVE",
"62 379 CURVE SMOOTH"
);
},
{
closed = 1;
nodes = (
"358 615 OFFCURVE",
"480 874 OFFCURVE",
"648 874 CURVE SMOOTH",
"763 874 OFFCURVE",
"800 801 OFFCURVE",
"800 680 CURVE",
"763 522 LINE SMOOTH",
"709 291 OFFCURVE",
"597 176 OFFCURVE",
"483 176 CURVE SMOOTH",
"420 176 OFFCURVE",
"358 245 OFFCURVE",
"358 360 CURVE SMOOTH"
);
}
);
width = 1178;
}
);
unicode = 0061;
},
{
glyphname = aogonek;
lastChange = "2016-10-15 02:32:41 +0000";
layers = (
{
layerId = UUID0;
paths = (
{
closed = 1;
nodes = (
"66 97 OFFCURVE",
"194 -17 OFFCURVE",
"387 -17 CURVE SMOOTH",
"522 -17 OFFCURVE",
"635 82 OFFCURVE",
"699 165 CURVE",
"701 165 LINE",
"676 45 LINE SMOOTH",
"671 20 OFFCURVE",
"662 3 OFFCURVE",
"649 -6 CURVE SMOOTH",
"449 -138 OFFCURVE",
"421 -173 OFFCURVE",
"421 -284 CURVE SMOOTH",
"421 -361 OFFCURVE",
"484 -417 OFFCURVE",
"617 -417 CURVE SMOOTH",
"657 -417 OFFCURVE",
"696 -415 OFFCURVE",
"735 -408 CURVE SMOOTH",
"748 -406 OFFCURVE",
"753 -396 OFFCURVE",
"753 -380 CURVE",
"747 -303 LINE SMOOTH",
"746 -288 OFFCURVE",
"740 -280 OFFCURVE",
"727 -280 CURVE SMOOTH",
"706 -280 OFFCURVE",
"679 -287 OFFCURVE",
"647 -287 CURVE SMOOTH",
"599 -287 OFFCURVE",
"581 -269 OFFCURVE",
"581 -233 CURVE SMOOTH",
"581 -170 OFFCURVE",
"698 -91 OFFCURVE",
"820 0 CURVE SMOOTH",
"833 10 OFFCURVE",
"842 25 OFFCURVE",
"847 45 CURVE SMOOTH",
"1069 1005 LINE SMOOTH",
"1070 1010 OFFCURVE",
"1071 1015 OFFCURVE",
"1071 1020 CURVE SMOOTH",
"1071 1040 OFFCURVE",
"1058 1050 OFFCURVE",
"1034 1050 CURVE SMOOTH",
"950 1050 LINE SMOOTH",
"927 1050 OFFCURVE",
"911 1035 OFFCURVE",
"901 1005 CURVE SMOOTH",
"880 942 LINE",
"878 942 LINE",
"840 1007 OFFCURVE",
"764 1067 OFFCURVE",
"644 1067 CURVE SMOOTH",
"507 1067 OFFCURVE",
"376 991 OFFCURVE",
"252 840 CURVE SMOOTH",
"128 689 OFFCURVE",
"66 522 OFFCURVE",
"66 339 CURVE SMOOTH"
);
},
{
closed = 1;
nodes = (
"252 496 OFFCURVE",
"293 638 OFFCURVE",
"375 757 CURVE SMOOTH",
"457 877 OFFCURVE",
"545 937 OFFCURVE",
"638 937 CURVE SMOOTH",
"748 937 OFFCURVE",
"838 891 OFFCURVE",
"838 770 CURVE",
"771 480 LINE SMOOTH",
"732 314 OFFCURVE",
"552 113 OFFCURVE",
"433 113 CURVE SMOOTH",
"360 113 OFFCURVE",
"310 138 OFFCURVE",
"287 189 CURVE SMOOTH",
"263 240 OFFCURVE",
"252 288 OFFCURVE",
"252 332 CURVE SMOOTH"
);
}
);
width = 1099;
},
{
layerId = "18E77EB5-4A27-4F30-B34A-BA542DA126C8";
paths = (
{
closed = 1;
nodes = (
"62 175 OFFCURVE",
"183 -20 OFFCURVE",
"398 -20 CURVE SMOOTH",
"511 -20 OFFCURVE",
"595 42 OFFCURVE",
"674 138 CURVE",
"678 138 LINE",
"664 60 LINE SMOOTH",
"658 27 OFFCURVE",
"643 5 OFFCURVE",
"620 -7 CURVE",
"443 -122 OFFCURVE",
"420 -192 OFFCURVE",
"420 -266 CURVE SMOOTH",
"420 -355 OFFCURVE",
"499 -420 OFFCURVE",
"664 -420 CURVE SMOOTH",
"716 -420 OFFCURVE",
"765 -417 OFFCURVE",
"811 -411 CURVE SMOOTH",
"834 -408 OFFCURVE",
"846 -393 OFFCURVE",
"845 -368 CURVE SMOOTH",
"842 -253 LINE SMOOTH",
"841 -230 OFFCURVE",
"830 -219 OFFCURVE",
"810 -219 CURVE SMOOTH",
"781 -219 OFFCURVE",
"749 -224 OFFCURVE",
"717 -224 CURVE SMOOTH",
"681 -224 OFFCURVE",
"656 -217 OFFCURVE",
"656 -189 CURVE SMOOTH",
"656 -151 OFFCURVE",
"734 -102 OFFCURVE",
"882 -11 CURVE SMOOTH",
"911 6 OFFCURVE",
"929 29 OFFCURVE",
"936 60 CURVE SMOOTH",
"1151 990 LINE SMOOTH",
"1153 997 OFFCURVE",
"1153 1004 OFFCURVE",
"1153 1010 CURVE SMOOTH",
"1153 1037 OFFCURVE",
"1137 1050 OFFCURVE",
"1104 1050 CURVE SMOOTH",
"951 1050 LINE SMOOTH",
"925 1050 OFFCURVE",
"903 1030 OFFCURVE",
"884 990 CURVE SMOOTH",
"867 954 LINE",
"863 954 LINE",
"799 1048 OFFCURVE",
"711 1070 OFFCURVE",
"652 1070 CURVE SMOOTH",
"502 1070 OFFCURVE",
"365 1002 OFFCURVE",
"244 865 CURVE SMOOTH",
"123 728 OFFCURVE",
"62 566 OFFCURVE",
"62 379 CURVE SMOOTH"
);
},
{
closed = 1;
nodes = (
"358 615 OFFCURVE",
"480 874 OFFCURVE",
"648 874 CURVE SMOOTH",
"763 874 OFFCURVE",
"800 801 OFFCURVE",
"800 680 CURVE",
"763 522 LINE SMOOTH",
"709 291 OFFCURVE",
"597 176 OFFCURVE",
"483 176 CURVE SMOOTH",
"420 176 OFFCURVE",
"358 245 OFFCURVE",
"358 360 CURVE SMOOTH"
);
}
);
width = 1178;
}
);
unicode = 0105;
},
{
glyphname = ae;
lastChange = "2016-10-15 02:32:41 +0000";
layers = (
{
layerId = UUID0;
paths = (
{
closed = 1;
nodes = (
"35 77 OFFCURVE",
"107 -17 OFFCURVE",
"363 -17 CURVE SMOOTH",
"492 -17 OFFCURVE",
"648 61 OFFCURVE",
"773 182 CURVE",
"775 182 LINE",
"834 45 OFFCURVE",
"957 -17 OFFCURVE",
"1113 -17 CURVE SMOOTH",
"1237 -17 OFFCURVE",
"1329 4 OFFCURVE",
"1389 45 CURVE SMOOTH",
"1480 108 OFFCURVE",
"1526 152 OFFCURVE",
"1526 181 CURVE SMOOTH",
"1526 189 OFFCURVE",
"1522 196 OFFCURVE",
"1516 202 CURVE SMOOTH",
"1460 253 LINE SMOOTH",
"1454 258 OFFCURVE",
"1448 261 OFFCURVE",
"1441 261 CURVE SMOOTH",
"1411 261 OFFCURVE",
"1404 223 OFFCURVE",
"1304 159 CURVE SMOOTH",
"1257 129 OFFCURVE",
"1202 114 OFFCURVE",
"1137 114 CURVE SMOOTH",
"978 114 OFFCURVE",
"909 224 OFFCURVE",
"909 359 CURVE SMOOTH",
"909 360 OFFCURVE",
"911 374 OFFCURVE",
"915 399 CURVE",
"1139 445 LINE SMOOTH",
"1465 512 OFFCURVE",
"1618 587 OFFCURVE",
"1618 778 CURVE SMOOTH",
"1618 913 OFFCURVE",
"1498 1067 OFFCURVE",
"1292 1067 CURVE SMOOTH",
"1103 1067 OFFCURVE",
"972 974 OFFCURVE",
"923 923 CURVE",
"921 923 LINE",
"872 1031 OFFCURVE",
"771 1067 OFFCURVE",
"630 1067 CURVE SMOOTH",
"521 1067 OFFCURVE",
"358 1026 OFFCURVE",
"242 932 CURVE SMOOTH",
"226 919 OFFCURVE",
"218 906 OFFCURVE",
"218 894 CURVE SMOOTH",
"218 887 OFFCURVE",
"221 879 OFFCURVE",
"227 872 CURVE SMOOTH",
"274 817 LINE SMOOTH",
"281 809 OFFCURVE",
"288 805 OFFCURVE",
"296 805 CURVE SMOOTH",
"306 805 OFFCURVE",
"315 810 OFFCURVE",
"325 820 CURVE SMOOTH",
"420 911 OFFCURVE",
"490 937 OFFCURVE",
"614 937 CURVE SMOOTH",
"744 937 OFFCURVE",
"791 881 OFFCURVE",
"791 785 CURVE SMOOTH",
"791 761 OFFCURVE",
"788 735 OFFCURVE",
"781 706 CURVE SMOOTH",
"765 638 LINE",
"229 612 OFFCURVE",
"35 461 OFFCURVE",
"35 220 CURVE SMOOTH"
);
},
{
closed = 1;
nodes = (
"217 306 OFFCURVE",
"250 363 OFFCURVE",
"315 412 CURVE SMOOTH",
"381 461 OFFCURVE",
"522 493 OFFCURVE",
"739 507 CURVE",
"728 460 OFFCURVE",
"722 416 OFFCURVE",
"722 375 CURVE SMOOTH",
"722 341 OFFCURVE",
"726 308 OFFCURVE",
"734 278 CURVE",
"637 175 OFFCURVE",
"511 118 OFFCURVE",
"378 118 CURVE SMOOTH",
"261 118 OFFCURVE",
"217 159 OFFCURVE",
"217 242 CURVE SMOOTH"
);
},
{
closed = 1;
nodes = (
"920 538 LINE",
"978 827 OFFCURVE",
"1119 937 OFFCURVE",
"1259 937 CURVE SMOOTH",
"1384 937 OFFCURVE",
"1442 877 OFFCURVE",
"1442 786 CURVE SMOOTH",
"1442 672 OFFCURVE",
"1377 631 OFFCURVE",
"1103 575 CURVE SMOOTH"
);
}
);
width = 1698;
},
{
layerId = "18E77EB5-4A27-4F30-B34A-BA542DA126C8";
paths = (
{
closed = 1;
nodes = (
"19 60 OFFCURVE",
"127 -20 OFFCURVE",
"314 -20 CURVE SMOOTH",
"491 -20 OFFCURVE",
"632 48 OFFCURVE",
"732 168 CURVE",
"734 168 LINE",
"808 31 OFFCURVE",
"974 -20 OFFCURVE",
"1141 -20 CURVE SMOOTH",
"1326 -20 OFFCURVE",
"1468 19 OFFCURVE",
"1555 99 CURVE SMOOTH",
"1571 114 OFFCURVE",
"1579 129 OFFCURVE",
"1579 146 CURVE SMOOTH",
"1579 159 OFFCURVE",
"1574 173 OFFCURVE",
"1563 187 CURVE SMOOTH",
"1504 265 LINE SMOOTH",
"1494 278 OFFCURVE",
"1483 284 OFFCURVE",
"1469 284 CURVE SMOOTH",
"1440 284 OFFCURVE",
"1383 232 OFFCURVE",
"1302 203 CURVE SMOOTH",
"1251 184 OFFCURVE",
"1203 176 OFFCURVE",
"1159 176 CURVE SMOOTH",
"1005 176 OFFCURVE",
"968 273 OFFCURVE",
"968 354 CURVE SMOOTH",
"968 364 OFFCURVE",
"968 373 OFFCURVE",
"969 382 CURVE",
"1173 418 LINE SMOOTH",
"1331 446 OFFCURVE",
"1459 480 OFFCURVE",
"1556 520 CURVE SMOOTH",
"1656 561 OFFCURVE",
"1706 646 OFFCURVE",
"1706 774 CURVE SMOOTH",
"1706 925 OFFCURVE",
"1556 1070 OFFCURVE",
"1285 1070 CURVE SMOOTH",
"1129 1070 OFFCURVE",
"1026 1029 OFFCURVE",
"899 912 CURVE",
"896 912 LINE",
"852 1012 OFFCURVE",
"754 1070 OFFCURVE",
"642 1070 CURVE SMOOTH",
"398 1070 OFFCURVE",
"202 970 OFFCURVE",
"202 910 CURVE SMOOTH",
"202 900 OFFCURVE",
"206 888 OFFCURVE",
"215 876 CURVE SMOOTH",
"278 785 LINE SMOOTH",
"285 774 OFFCURVE",
"294 769 OFFCURVE",
"306 769 CURVE SMOOTH",
"334 769 OFFCURVE",
"390 816 OFFCURVE",
"464 846 CURVE SMOOTH",
"510 864 OFFCURVE",
"554 874 OFFCURVE",
"597 874 CURVE SMOOTH",
"684 874 OFFCURVE",
"740 822 OFFCURVE",
"740 746 CURVE SMOOTH",
"740 733 OFFCURVE",
"738 720 OFFCURVE",
"735 706 CURVE SMOOTH",
"726 666 LINE",
"537 658 OFFCURVE",
"372 617 OFFCURVE",
"231 544 CURVE SMOOTH",
"90 471 OFFCURVE",
"19 365 OFFCURVE",
"19 228 CURVE SMOOTH"
);
},
{
closed = 1;
nodes = (
"315 352 OFFCURVE",
"446 463 OFFCURVE",
"687 473 CURVE",
"680 434 OFFCURVE",
"676 399 OFFCURVE",
"676 365 CURVE SMOOTH",
"676 342 OFFCURVE",
"678 319 OFFCURVE",
"682 298 CURVE",
"582 221 OFFCURVE",
"480 176 OFFCURVE",
"415 176 CURVE SMOOTH",
"348 176 OFFCURVE",
"315 196 OFFCURVE",
"315 256 CURVE SMOOTH"
);
},
{
closed = 1;
nodes = (
"982 570 LINE",
"1027 737 OFFCURVE",
"1135 874 OFFCURVE",
"1288 874 CURVE SMOOTH",
"1383 874 OFFCURVE",
"1469 825 OFFCURVE",
"1469 751 CURVE SMOOTH",
"1469 667 OFFCURVE",
"1324 627 OFFCURVE",
"1196 606 CURVE SMOOTH"
);
}
);
width = 1752;
}
);
unicode = 00E6;
},
{
glyphname = b;
lastChange = "2016-10-15 02:32:41 +0000";
layers = (
{
layerId = UUID0;
paths = (
{
closed = 1;
nodes = (
"151 0 LINE SMOOTH",
"174 0 OFFCURVE",
"190 15 OFFCURVE",
"200 45 CURVE SMOOTH",
"223 118 LINE",
"225 118 LINE",
"294 27 OFFCURVE",
"360 -17 OFFCURVE",
"511 -17 CURVE SMOOTH",
"656 -17 OFFCURVE",
"783 55 OFFCURVE",
"890 199 CURVE SMOOTH",
"997 344 OFFCURVE",
"1051 501 OFFCURVE",
"1051 671 CURVE SMOOTH",
"1051 780 OFFCURVE",
"1025 872 OFFCURVE",
"976 950 CURVE SMOOTH",
"926 1028 OFFCURVE",
"839 1067 OFFCURVE",
"712 1067 CURVE SMOOTH",
"609 1067 OFFCURVE",
"459 989 OFFCURVE",
"402 885 CURVE",
"400 885 LINE",
"416 946 LINE",
"528 1431 LINE SMOOTH",
"529 1436 OFFCURVE",
"530 1441 OFFCURVE",
"530 1446 CURVE SMOOTH",
"530 1466 OFFCURVE",
"517 1476 OFFCURVE",
"493 1476 CURVE SMOOTH",
"407 1476 LINE SMOOTH",
"377 1476 OFFCURVE",
"359 1461 OFFCURVE",
"352 1431 CURVE SMOOTH",
"32 45 LINE SMOOTH",
"31 39 OFFCURVE",
"30 34 OFFCURVE",
"30 30 CURVE SMOOTH",
"30 10 OFFCURVE",
"42 0 OFFCURVE",
"67 0 CURVE SMOOTH"
);
},
{
closed = 1;
nodes = (
"330 570 LINE SMOOTH",
"370 741 OFFCURVE",
"533 937 OFFCURVE",
"662 937 CURVE SMOOTH",
"815 937 OFFCURVE",
"865 812 OFFCURVE",
"865 678 CURVE SMOOTH",
"865 383 OFFCURVE",
"701 113 OFFCURVE",
"497 113 CURVE SMOOTH",
"346 113 OFFCURVE",
"279 155 OFFCURVE",
"265 290 CURVE"
);
}
);
width = 1119;
},
{
layerId = "18E77EB5-4A27-4F30-B34A-BA542DA126C8";
paths = (
{
closed = 1;
nodes = (
"234 0 LINE SMOOTH",
"266 0 OFFCURVE",
"289 20 OFFCURVE",
"302 60 CURVE SMOOTH",
"314 96 LINE",
"318 96 LINE",
"384 -9 OFFCURVE",
"502 -20 OFFCURVE",
"596 -20 CURVE SMOOTH",
"737 -20 OFFCURVE",
"861 48 OFFCURVE",
"968 184 CURVE SMOOTH",
"1075 320 OFFCURVE",
"1129 476 OFFCURVE",
"1129 651 CURVE SMOOTH",
"1129 757 OFFCURVE",
"1101 853 OFFCURVE",
"1046 940 CURVE SMOOTH",
"991 1027 OFFCURVE",
"898 1070 OFFCURVE",
"766 1070 CURVE SMOOTH",
"666 1070 OFFCURVE",
"604 1027 OFFCURVE",
"507 912 CURVE",
"503 912 LINE",
"512 938 OFFCURVE",
"520 965 OFFCURVE",
"526 992 CURVE SMOOTH",
"623 1416 LINE SMOOTH",
"625 1423 OFFCURVE",
"625 1430 OFFCURVE",
"625 1436 CURVE SMOOTH",
"625 1463 OFFCURVE",
"609 1476 OFFCURVE",
"577 1476 CURVE SMOOTH",
"417 1476 LINE SMOOTH",
"377 1476 OFFCURVE",
"352 1456 OFFCURVE",
"343 1416 CURVE SMOOTH",
"30 60 LINE SMOOTH",
"28 52 OFFCURVE",
"27 46 OFFCURVE",
"27 40 CURVE SMOOTH",
"27 13 OFFCURVE",
"43 0 OFFCURVE",
"76 0 CURVE SMOOTH"
);
},
{
closed = 1;
nodes = (
"418 528 LINE SMOOTH",
"470 753 OFFCURVE",
"596 874 OFFCURVE",
"688 874 CURVE SMOOTH",
"779 874 OFFCURVE",
"833 809 OFFCURVE",
"833 670 CURVE SMOOTH",
"833 425 OFFCURVE",
"731 176 OFFCURVE",
"548 176 CURVE SMOOTH",
"412 176 OFFCURVE",
"381 243 OFFCURVE",
"381 370 CURVE"
);
}
);
width = 1192;
}
);
unicode = 0062;
},
{
glyphname = c;
lastChange = "2016-10-15 02:32:41 +0000";
layers = (
{
layerId = UUID0;
paths = (
{
closed = 1;
nodes = (
"68 301 OFFCURVE",
"99 205 OFFCURVE",
"161 116 CURVE SMOOTH",
"223 27 OFFCURVE",
"332 -17 OFFCURVE",
"488 -17 CURVE SMOOTH",
"603 -17 OFFCURVE",
"693 8 OFFCURVE",
"758 59 CURVE SMOOTH",
"848 130 OFFCURVE",
"896 174 OFFCURVE",
"896 203 CURVE SMOOTH",
"896 213 OFFCURVE",
"890 222 OFFCURVE",
"880 230 CURVE SMOOTH",
"817 276 LINE SMOOTH",
"809 281 OFFCURVE",
"802 284 OFFCURVE",
"795 284 CURVE SMOOTH",
"759 284 OFFCURVE",
"691 113 OFFCURVE",
"501 113 CURVE SMOOTH",
"325 113 OFFCURVE",
"254 227 OFFCURVE",
"254 387 CURVE SMOOTH",
"254 567 OFFCURVE",
"293 704 OFFCURVE",
"372 797 CURVE SMOOTH",
"451 890 OFFCURVE",
"543 937 OFFCURVE",
"647 937 CURVE SMOOTH",
"778 937 OFFCURVE",
"841 863 OFFCURVE",
"858 824 CURVE SMOOTH",
"867 803 OFFCURVE",
"878 794 OFFCURVE",
"892 794 CURVE SMOOTH",
"898 794 OFFCURVE",
"904 795 OFFCURVE",
"911 799 CURVE SMOOTH",
"977 834 LINE SMOOTH",
"990 841 OFFCURVE",
"997 851 OFFCURVE",
"997 863 CURVE SMOOTH",
"997 906 OFFCURVE",
"938 972 OFFCURVE",
"891 1010 CURVE SMOOTH",
"844 1048 OFFCURVE",
"768 1067 OFFCURVE",
"660 1067 CURVE SMOOTH",
"483 1067 OFFCURVE",
"340 1000 OFFCURVE",
"231 867 CURVE SMOOTH",
"122 734 OFFCURVE",
"68 579 OFFCURVE",
"68 402 CURVE SMOOTH"
);
}
);
width = 1026;
},
{
layerId = "18E77EB5-4A27-4F30-B34A-BA542DA126C8";
paths = (
{
closed = 1;
nodes = (
"58 295 OFFCURVE",
"91 194 OFFCURVE",
"158 108 CURVE SMOOTH",
"224 23 OFFCURVE",
"345 -20 OFFCURVE",
"518 -20 CURVE SMOOTH",
"811 -20 OFFCURVE",
"941 146 OFFCURVE",
"941 192 CURVE SMOOTH",
"941 206 OFFCURVE",
"935 219 OFFCURVE",
"922 231 CURVE SMOOTH",
"841 306 LINE SMOOTH",
"827 319 OFFCURVE",
"814 325 OFFCURVE",
"801 325 CURVE SMOOTH",
"787 325 OFFCURVE",
"773 317 OFFCURVE",
"760 301 CURVE SMOOTH",
"697 222 OFFCURVE",
"640 176 OFFCURVE",
"536 176 CURVE SMOOTH",
"424 176 OFFCURVE",
"354 247 OFFCURVE",
"354 387 CURVE SMOOTH",
"354 702 OFFCURVE",
"516 874 OFFCURVE",
"663 874 CURVE SMOOTH",
"813 874 OFFCURVE",
"825 752 OFFCURVE",
"878 752 CURVE SMOOTH",
"887 752 OFFCURVE",
"895 755 OFFCURVE",
"903 760 CURVE SMOOTH",
"1012 833 LINE SMOOTH",
"1031 846 OFFCURVE",
"1040 860 OFFCURVE",
"1040 875 CURVE SMOOTH",
"1040 922 OFFCURVE",
"951 995 OFFCURVE",
"900 1025 CURVE SMOOTH",
"848 1055 OFFCURVE",
"772 1070 OFFCURVE",
"673 1070 CURVE SMOOTH",
"487 1070 OFFCURVE",
"338 999 OFFCURVE",
"226 857 CURVE SMOOTH",
"114 715 OFFCURVE",
"58 567 OFFCURVE",
"58 412 CURVE SMOOTH"
);
}
);
width = 1086;
}
);
unicode = 0063;
},
{
glyphname = d;
lastChange = "2016-10-15 02:32:41 +0000";
layers = (
{
layerId = UUID0;
paths = (
{
closed = 1;
nodes = (
"70 270 OFFCURVE",
"94 176 OFFCURVE",
"144 99 CURVE SMOOTH",
"193 22 OFFCURVE",
"282 -17 OFFCURVE",
"409 -17 CURVE SMOOTH",
"513 -17 OFFCURVE",
"662 61 OFFCURVE",
"719 165 CURVE",
"721 165 LINE",
"699 45 LINE SMOOTH",
"698 40 OFFCURVE",
"698 35 OFFCURVE",
"698 30 CURVE SMOOTH",
"698 10 OFFCURVE",
"707 0 OFFCURVE",
"728 0 CURVE SMOOTH",
"812 0 LINE SMOOTH",
"842 0 OFFCURVE",
"860 15 OFFCURVE",
"867 45 CURVE SMOOTH",
"1187 1431 LINE SMOOTH",
"1188 1436 OFFCURVE",
"1189 1441 OFFCURVE",
"1189 1446 CURVE SMOOTH",
"1189 1466 OFFCURVE",
"1176 1476 OFFCURVE",
"1152 1476 CURVE SMOOTH",
"1066 1476 LINE SMOOTH",
"1036 1476 OFFCURVE",
"1018 1461 OFFCURVE",
"1011 1431 CURVE SMOOTH",
"910 993 LINE SMOOTH",
"904 968 OFFCURVE",
"900 948 OFFCURVE",
"898 932 CURVE",
"896 932 LINE",
"827 1023 OFFCURVE",
"759 1067 OFFCURVE",
"610 1067 CURVE SMOOTH",
"465 1067 OFFCURVE",
"338 995 OFFCURVE",
"231 850 CURVE SMOOTH",
"124 706 OFFCURVE",
"70 549 OFFCURVE",
"70 379 CURVE SMOOTH"
);
},
{
closed = 1;
nodes = (
"256 667 OFFCURVE",
"421 937 OFFCURVE",
"624 937 CURVE SMOOTH",
"771 937 OFFCURVE",
"842 896 OFFCURVE",
"856 760 CURVE",
"791 480 LINE SMOOTH",
"752 312 OFFCURVE",
"590 113 OFFCURVE",
"459 113 CURVE SMOOTH",
"304 113 OFFCURVE",
"256 239 OFFCURVE",
"256 372 CURVE SMOOTH"
);
}
);
width = 1119;
},
{
layerId = "18E77EB5-4A27-4F30-B34A-BA542DA126C8";
paths = (
{
closed = 1;
nodes = (
"66 293 OFFCURVE",
"93 197 OFFCURVE",
"148 110 CURVE SMOOTH",
"203 23 OFFCURVE",
"297 -20 OFFCURVE",
"429 -20 CURVE SMOOTH",
"528 -20 OFFCURVE",
"591 23 OFFCURVE",
"688 138 CURVE",
"692 138 LINE",
"678 60 LINE SMOOTH",
"677 53 OFFCURVE",
"676 47 OFFCURVE",
"676 41 CURVE SMOOTH",
"676 14 OFFCURVE",
"690 0 OFFCURVE",
"718 0 CURVE SMOOTH",
"876 0 LINE SMOOTH",
"916 0 OFFCURVE",
"941 20 OFFCURVE",
"950 60 CURVE SMOOTH",
"1263 1416 LINE SMOOTH",
"1265 1423 OFFCURVE",
"1265 1430 OFFCURVE",
"1265 1436 CURVE SMOOTH",
"1265 1463 OFFCURVE",
"1249 1476 OFFCURVE",
"1217 1476 CURVE SMOOTH",
"1057 1476 LINE SMOOTH",
"1017 1476 OFFCURVE",
"992 1456 OFFCURVE",
"983 1416 CURVE SMOOTH",
"896 1034 LINE SMOOTH",
"888 1001 OFFCURVE",
"884 975 OFFCURVE",
"881 954 CURVE",
"877 954 LINE",
"811 1058 OFFCURVE",
"693 1070 OFFCURVE",
"599 1070 CURVE SMOOTH",
"458 1070 OFFCURVE",
"333 1002 OFFCURVE",
"226 866 CURVE SMOOTH",
"119 730 OFFCURVE",
"66 574 OFFCURVE",
"66 399 CURVE SMOOTH"
);
},
{
closed = 1;
nodes = (
"362 625 OFFCURVE",
"464 874 OFFCURVE",
"647 874 CURVE SMOOTH",
"783 874 OFFCURVE",
"814 805 OFFCURVE",
"814 680 CURVE",
"777 522 LINE SMOOTH",
"725 300 OFFCURVE",
"600 176 OFFCURVE",
"507 176 CURVE SMOOTH",
"416 176 OFFCURVE",
"362 241 OFFCURVE",
"362 380 CURVE SMOOTH"
);
}
);
width = 1192;
}
);
unicode = 0064;
},
{
glyphname = eth;
lastChange = "2016-10-15 02:32:41 +0000";
layers = (
{
layerId = UUID0;
paths = (
{
closed = 1;
nodes = (
"68 156 OFFCURVE",
"199 -17 OFFCURVE",
"488 -17 CURVE SMOOTH",
"841 -17 OFFCURVE",
"1102 275 OFFCURVE",
"1102 752 CURVE SMOOTH",
"1102 889 OFFCURVE",
"1079 1003 OFFCURVE",
"1034 1095 CURVE SMOOTH",
"989 1188 OFFCURVE",
"949 1255 OFFCURVE",
"912 1298 CURVE",
"1020 1342 LINE SMOOTH",
"1041 1350 OFFCURVE",
"1052 1362 OFFCURVE",
"1052 1377 CURVE SMOOTH",
"1052 1381 OFFCURVE",
"1051 1386 OFFCURVE",
"1049 1391 CURVE SMOOTH",
"1030 1438 LINE SMOOTH",
"1024 1452 OFFCURVE",
"1014 1460 OFFCURVE",
"1000 1460 CURVE SMOOTH",
"993 1460 OFFCURVE",
"984 1458 OFFCURVE",
"975 1454 CURVE SMOOTH",
"816 1390 LINE",
"773 1425 OFFCURVE",
"723 1456 OFFCURVE",
"668 1484 CURVE SMOOTH",
"657 1489 OFFCURVE",
"647 1492 OFFCURVE",
"639 1492 CURVE SMOOTH",
"626 1492 OFFCURVE",
"615 1486 OFFCURVE",
"606 1474 CURVE SMOOTH",
"570 1425 LINE SMOOTH",
"564 1417 OFFCURVE",
"561 1410 OFFCURVE",
"561 1403 CURVE SMOOTH",
"561 1376 OFFCURVE",
"628 1351 OFFCURVE",
"664 1328 CURVE",
"552 1282 LINE SMOOTH",
"531 1273 OFFCURVE",
"520 1262 OFFCURVE",
"520 1247 CURVE SMOOTH",
"520 1243 OFFCURVE",
"521 1238 OFFCURVE",
"523 1233 CURVE SMOOTH",
"542 1186 LINE SMOOTH",
"548 1171 OFFCURVE",
"558 1164 OFFCURVE",
"572 1164 CURVE SMOOTH",
"579 1164 OFFCURVE",
"587 1166 OFFCURVE",
"597 1170 CURVE SMOOTH",
"771 1241 LINE",
"818 1190 OFFCURVE",
"928 1054 OFFCURVE",
"946 903 CURVE",
"942 903 LINE",
"882 1015 OFFCURVE",
"779 1050 OFFCURVE",
"650 1050 CURVE SMOOTH",
"487 1050 OFFCURVE",
"348 984 OFFCURVE",
"236 852 CURVE SMOOTH",
"124 720 OFFCURVE",
"68 570 OFFCURVE",
"68 402 CURVE SMOOTH"
);
},
{
closed = 1;
nodes = (
"254 559 OFFCURVE",
"295 691 OFFCURVE",
"377 782 CURVE SMOOTH",
"460 874 OFFCURVE",
"553 920 OFFCURVE",
"657 920 CURVE SMOOTH",
"831 920 OFFCURVE",
"910 788 OFFCURVE",
"910 650 CURVE SMOOTH",
"910 483 OFFCURVE",
"866 351 OFFCURVE",
"779 256 CURVE SMOOTH",
"692 161 OFFCURVE",
"599 113 OFFCURVE",
"501 113 CURVE SMOOTH",
"334 113 OFFCURVE",
"254 195 OFFCURVE",
"254 387 CURVE SMOOTH"
);
}
);
width = 1153;
},
{
layerId = "18E77EB5-4A27-4F30-B34A-BA542DA126C8";
paths = (
{
closed = 1;
nodes = (
"58 285 OFFCURVE",
"94 189 OFFCURVE",
"167 105 CURVE SMOOTH",
"239 22 OFFCURVE",
"357 -20 OFFCURVE",
"518 -20 CURVE SMOOTH",
"717 -20 OFFCURVE",
"871 48 OFFCURVE",
"983 185 CURVE SMOOTH",
"1095 322 OFFCURVE",
"1151 483 OFFCURVE",
"1151 669 CURVE SMOOTH",
"1151 843 OFFCURVE",
"1120 978 OFFCURVE",
"1058 1077 CURVE SMOOTH",
"997 1175 OFFCURVE",
"943 1246 OFFCURVE",
"896 1291 CURVE",
"931 1307 LINE SMOOTH",
"957 1319 OFFCURVE",
"971 1334 OFFCURVE",
"970 1353 CURVE SMOOTH",
"970 1361 OFFCURVE",
"968 1369 OFFCURVE",
"964 1378 CURVE SMOOTH",
"932 1446 LINE SMOOTH",
"923 1464 OFFCURVE",
"911 1474 OFFCURVE",
"892 1474 CURVE SMOOTH",
"882 1474 OFFCURVE",
"871 1471 OFFCURVE",
"858 1465 CURVE SMOOTH",
"741 1411 LINE",
"693 1442 OFFCURVE",
"604 1499 OFFCURVE",
"560 1499 CURVE SMOOTH",
"541 1499 OFFCURVE",
"527 1490 OFFCURVE",
"515 1474 CURVE SMOOTH",
"458 1396 LINE SMOOTH",
"450 1386 OFFCURVE",
"447 1376 OFFCURVE",
"447 1366 CURVE SMOOTH",
"447 1349 OFFCURVE",
"460 1332 OFFCURVE",
"489 1317 CURVE SMOOTH",
"512 1305 LINE",
"467 1284 LINE SMOOTH",
"441 1272 OFFCURVE",
"427 1257 OFFCURVE",
"427 1238 CURVE SMOOTH",
"427 1230 OFFCURVE",
"430 1222 OFFCURVE",
"434 1213 CURVE SMOOTH",
"466 1145 LINE SMOOTH",
"474 1127 OFFCURVE",
"487 1117 OFFCURVE",
"505 1117 CURVE SMOOTH",
"515 1117 OFFCURVE",
"527 1120 OFFCURVE",
"540 1126 CURVE SMOOTH",
"681 1191 LINE",
"710 1169 OFFCURVE",
"754 1131 OFFCURVE",
"813 1077 CURVE SMOOTH",
"873 1023 OFFCURVE",
"912 952 OFFCURVE",
"930 864 CURVE",
"926 864 LINE",
"872 967 OFFCURVE",
"727 1018 OFFCURVE",
"632 1018 CURVE SMOOTH",
"445 1018 OFFCURVE",
"302 948 OFFCURVE",
"204 808 CURVE SMOOTH",
"107 669 OFFCURVE",
"58 531 OFFCURVE",
"58 394 CURVE SMOOTH"
);
},
{
closed = 1;
nodes = (
"354 628 OFFCURVE",
"495 822 OFFCURVE",
"662 822 CURVE SMOOTH",
"751 822 OFFCURVE",
"854 774 OFFCURVE",
"854 647 CURVE SMOOTH",
"854 371 OFFCURVE",
"701 176 OFFCURVE",
"536 176 CURVE SMOOTH",
"423 176 OFFCURVE",
"354 235 OFFCURVE",
"354 387 CURVE SMOOTH"
);
}
);
width = 1206;
}
);
unicode = 00F0;
},
{
glyphname = dcroat;
lastChange = "2016-10-15 02:32:41 +0000";
layers = (
{
layerId = UUID0;
paths = (
{
closed = 1;
nodes = (
"70 270 OFFCURVE",
"94 176 OFFCURVE",
"144 99 CURVE SMOOTH",
"193 22 OFFCURVE",
"282 -17 OFFCURVE",
"409 -17 CURVE SMOOTH",
"513 -17 OFFCURVE",
"662 61 OFFCURVE",
"719 165 CURVE",
"721 165 LINE",
"699 45 LINE SMOOTH",
"698 40 OFFCURVE",
"698 35 OFFCURVE",
"698 30 CURVE SMOOTH",
"698 10 OFFCURVE",
"707 0 OFFCURVE",
"728 0 CURVE SMOOTH",
"812 0 LINE SMOOTH",
"842 0 OFFCURVE",
"860 15 OFFCURVE",
"867 45 CURVE SMOOTH",
"1136 1208 LINE",
"1250 1208 LINE SMOOTH",
"1280 1208 OFFCURVE",
"1298 1220 OFFCURVE",
"1303 1243 CURVE SMOOTH",
"1317 1305 LINE SMOOTH",
"1318 1308 OFFCURVE",
"1318 1311 OFFCURVE",
"1318 1314 CURVE SMOOTH",
"1318 1331 OFFCURVE",
"1305 1340 OFFCURVE",
"1280 1340 CURVE SMOOTH",
"1166 1340 LINE",
"1187 1431 LINE SMOOTH",
"1188 1436 OFFCURVE",
"1189 1441 OFFCURVE",
"1189 1446 CURVE SMOOTH",
"1189 1466 OFFCURVE",
"1176 1476 OFFCURVE",
"1152 1476 CURVE SMOOTH",
"1066 1476 LINE SMOOTH",
"1036 1476 OFFCURVE",
"1018 1461 OFFCURVE",
"1011 1431 CURVE SMOOTH",
"990 1340 LINE",
"682 1340 LINE SMOOTH",
"652 1340 OFFCURVE",
"634 1328 OFFCURVE",
"629 1305 CURVE SMOOTH",
"615 1243 LINE SMOOTH",
"614 1240 OFFCURVE",
"614 1236 OFFCURVE",
"614 1233 CURVE SMOOTH",
"614 1217 OFFCURVE",
"626 1208 OFFCURVE",
"652 1208 CURVE SMOOTH",
"960 1208 LINE",
"910 993 LINE SMOOTH",
"904 968 OFFCURVE",
"900 948 OFFCURVE",
"898 932 CURVE",
"896 932 LINE",
"827 1023 OFFCURVE",
"759 1067 OFFCURVE",
"610 1067 CURVE SMOOTH",
"465 1067 OFFCURVE",
"338 995 OFFCURVE",
"231 850 CURVE SMOOTH",
"124 706 OFFCURVE",
"70 549 OFFCURVE",
"70 379 CURVE SMOOTH"
);
},
{
closed = 1;
nodes = (
"256 667 OFFCURVE",
"421 937 OFFCURVE",
"624 937 CURVE SMOOTH",
"771 937 OFFCURVE",
"842 896 OFFCURVE",
"856 760 CURVE",
"791 480 LINE SMOOTH",
"752 312 OFFCURVE",
"590 113 OFFCURVE",
"459 113 CURVE SMOOTH",
"304 113 OFFCURVE",
"256 239 OFFCURVE",
"256 372 CURVE SMOOTH"
);
}
);
width = 1156;
},
{
layerId = "18E77EB5-4A27-4F30-B34A-BA542DA126C8";
paths = (
{
closed = 1;
nodes = (
"362 625 OFFCURVE",
"464 874 OFFCURVE",
"647 874 CURVE SMOOTH",
"783 874 OFFCURVE",
"814 805 OFFCURVE",
"814 680 CURVE",
"777 522 LINE SMOOTH",
"724 297 OFFCURVE",
"601 176 OFFCURVE",
"507 176 CURVE SMOOTH",
"416 176 OFFCURVE",
"362 241 OFFCURVE",
"362 380 CURVE SMOOTH"
);
},
{
closed = 1;
nodes = (
"66 293 OFFCURVE",
"93 197 OFFCURVE",
"148 110 CURVE SMOOTH",
"203 23 OFFCURVE",
"297 -20 OFFCURVE",
"429 -20 CURVE SMOOTH",
"528 -20 OFFCURVE",
"591 23 OFFCURVE",
"688 138 CURVE",
"692 138 LINE",
"678 60 LINE SMOOTH",
"677 53 OFFCURVE",
"676 47 OFFCURVE",
"676 41 CURVE SMOOTH",
"676 14 OFFCURVE",
"690 0 OFFCURVE",
"718 0 CURVE SMOOTH",
"876 0 LINE SMOOTH",
"916 0 OFFCURVE",
"941 20 OFFCURVE",
"950 60 CURVE SMOOTH",
"1209 1180 LINE",
"1313 1180 LINE SMOOTH",
"1353 1180 OFFCURVE",
"1377 1197 OFFCURVE",
"1385 1230 CURVE SMOOTH",
"1408 1330 LINE SMOOTH",
"1409 1335 OFFCURVE",
"1409 1340 OFFCURVE",
"1409 1344 CURVE SMOOTH",
"1409 1368 OFFCURVE",
"1393 1380 OFFCURVE",
"1360 1380 CURVE SMOOTH",
"1255 1380 LINE",
"1263 1416 LINE SMOOTH",
"1265 1423 OFFCURVE",
"1265 1430 OFFCURVE",
"1265 1436 CURVE SMOOTH",
"1265 1463 OFFCURVE",
"1249 1476 OFFCURVE",
"1217 1476 CURVE SMOOTH",
"1057 1476 LINE SMOOTH",
"1017 1476 OFFCURVE",
"992 1456 OFFCURVE",
"983 1416 CURVE SMOOTH",
"975 1380 LINE",
"704 1380 LINE SMOOTH",
"664 1380 OFFCURVE",
"639 1363 OFFCURVE",
"632 1330 CURVE SMOOTH",
"609 1230 LINE SMOOTH",
"608 1225 OFFCURVE",
"607 1220 OFFCURVE",
"607 1216 CURVE SMOOTH",
"607 1192 OFFCURVE",
"624 1180 OFFCURVE",
"657 1180 CURVE SMOOTH",
"929 1180 LINE",
"896 1034 LINE SMOOTH",
"888 1001 OFFCURVE",
"884 975 OFFCURVE",
"881 954 CURVE",
"877 954 LINE",
"811 1058 OFFCURVE",
"693 1070 OFFCURVE",
"599 1070 CURVE SMOOTH",
"458 1070 OFFCURVE",
"333 1002 OFFCURVE",
"226 866 CURVE SMOOTH",
"119 730 OFFCURVE",
"66 574 OFFCURVE",
"66 399 CURVE SMOOTH"
);
}
);
width = 1238;
}
);
unicode = 0111;
},
{
glyphname = e;
lastChange = "2016-10-15 02:32:41 +0000";
layers = (
{
layerId = UUID0;
paths = (
{
closed = 1;
nodes = (
"68 285 OFFCURVE",
"100 189 OFFCURVE",
"164 106 CURVE SMOOTH",
"228 24 OFFCURVE",
"331 -17 OFFCURVE",
"473 -17 CURVE SMOOTH",
"602 -17 OFFCURVE",
"702 4 OFFCURVE",
"769 46 CURVE SMOOTH",
"880 117 OFFCURVE",
"907 154 OFFCURVE",
"907 183 CURVE SMOOTH",
"907 191 OFFCURVE",
"905 197 OFFCURVE",
"899 202 CURVE SMOOTH",
"840 253 LINE SMOOTH",
"833 259 OFFCURVE",
"826 262 OFFCURVE",
"819 262 CURVE SMOOTH",
"790 262 OFFCURVE",
"772 210 OFFCURVE",
"682 156 CURVE SMOOTH",
"635 128 OFFCURVE",
"574 114 OFFCURVE",
"497 114 CURVE SMOOTH",
"313 114 OFFCURVE",
"254 231 OFFCURVE",
"254 359 CURVE SMOOTH",
"254 360 OFFCURVE",
"256 374 OFFCURVE",
"260 399 CURVE",
"506 448 LINE SMOOTH",
"645 476 OFFCURVE",
"762 513 OFFCURVE",
"856 560 CURVE SMOOTH",
"951 607 OFFCURVE",
"998 679 OFFCURVE",
"998 778 CURVE SMOOTH",
"998 924 OFFCURVE",
"858 1067 OFFCURVE",
"652 1067 CURVE SMOOTH",
"292 1067 OFFCURVE",
"68 794 OFFCURVE",
"68 396 CURVE SMOOTH"
);
},
{
closed = 1;
nodes = (
"265 538 LINE",
"323 827 OFFCURVE",
"458 937 OFFCURVE",
"619 937 CURVE SMOOTH",
"721 937 OFFCURVE",
"822 877 OFFCURVE",
"822 786 CURVE SMOOTH",
"822 669 OFFCURVE",
"650 613 OFFCURVE",
"470 578 CURVE SMOOTH"
);
}
);
width = 1078;
},
{
layerId = "18E77EB5-4A27-4F30-B34A-BA542DA126C8";
paths = (
{
closed = 1;
nodes = (
"58 294 OFFCURVE",
"91 192 OFFCURVE",
"158 107 CURVE SMOOTH",
"225 22 OFFCURVE",
"350 -20 OFFCURVE",
"534 -20 CURVE SMOOTH",
"723 -20 OFFCURVE",
"864 19 OFFCURVE",
"951 99 CURVE SMOOTH",
"967 114 OFFCURVE",
"975 129 OFFCURVE",
"975 146 CURVE SMOOTH",
"975 159 OFFCURVE",
"970 173 OFFCURVE",
"959 187 CURVE SMOOTH",
"900 265 LINE SMOOTH",
"890 278 OFFCURVE",
"879 284 OFFCURVE",
"865 284 CURVE SMOOTH",
"836 284 OFFCURVE",
"778 232 OFFCURVE",
"699 203 CURVE SMOOTH",
"649 184 OFFCURVE",
"599 176 OFFCURVE",
"552 176 CURVE SMOOTH",
"468 176 OFFCURVE",
"414 195 OFFCURVE",
"391 233 CURVE SMOOTH",
"368 271 OFFCURVE",
"356 311 OFFCURVE",
"356 354 CURVE SMOOTH",
"356 364 OFFCURVE",
"356 373 OFFCURVE",
"357 382 CURVE",
"566 418 LINE SMOOTH",
"735 447 OFFCURVE",
"866 482 OFFCURVE",
"961 522 CURVE SMOOTH",
"1056 562 OFFCURVE",
"1104 646 OFFCURVE",
"1104 774 CURVE SMOOTH",
"1104 926 OFFCURVE",
"947 1070 OFFCURVE",
"679 1070 CURVE SMOOTH",
"485 1070 OFFCURVE",
"333 999 OFFCURVE",
"223 858 CURVE SMOOTH",
"113 717 OFFCURVE",
"58 569 OFFCURVE",
"58 415 CURVE SMOOTH"
);
},
{
closed = 1;
nodes = (
"370 570 LINE",
"415 737 OFFCURVE",
"510 874 OFFCURVE",
"682 874 CURVE SMOOTH",
"786 874 OFFCURVE",
"867 825 OFFCURVE",
"867 751 CURVE SMOOTH",
"867 668 OFFCURVE",
"724 628 OFFCURVE",
"589 606 CURVE SMOOTH"
);
}
);
width = 1150;
}
);
unicode = 0065;
},
{
glyphname = eogonek;
lastChange = "2016-10-15 02:32:41 +0000";
layers = (
{
layerId = UUID0;
paths = (
{
closed = 1;
nodes = (
"68 285 OFFCURVE",
"100 189 OFFCURVE",
"164 106 CURVE SMOOTH",
"228 24 OFFCURVE",
"331 -17 OFFCURVE",
"473 -17 CURVE SMOOTH",
"485 -17 OFFCURVE",
"500 -16 OFFCURVE",
"517 -14 CURVE",
"517 -19 LINE",
"326 -134 OFFCURVE",
"302 -179 OFFCURVE",
"302 -284 CURVE SMOOTH",
"302 -361 OFFCURVE",
"365 -417 OFFCURVE",
"498 -417 CURVE SMOOTH",
"538 -417 OFFCURVE",
"577 -415 OFFCURVE",
"616 -408 CURVE SMOOTH",
"629 -406 OFFCURVE",
"634 -396 OFFCURVE",
"634 -380 CURVE",
"628 -303 LINE SMOOTH",
"627 -288 OFFCURVE",
"621 -280 OFFCURVE",
"608 -280 CURVE SMOOTH",
"587 -280 OFFCURVE",
"560 -287 OFFCURVE",
"528 -287 CURVE SMOOTH",
"480 -287 OFFCURVE",
"462 -269 OFFCURVE",
"462 -233 CURVE SMOOTH",
"462 -198 OFFCURVE",
"500 -152 OFFCURVE",
"575 -96 CURVE SMOOTH",
"701 -3 LINE SMOOTH",
"791 64 OFFCURVE",
"907 134 OFFCURVE",
"907 183 CURVE SMOOTH",
"907 191 OFFCURVE",
"905 197 OFFCURVE",
"899 202 CURVE SMOOTH",
"840 253 LINE SMOOTH",
"833 259 OFFCURVE",
"826 262 OFFCURVE",
"819 262 CURVE SMOOTH",
"790 262 OFFCURVE",
"772 210 OFFCURVE",
"682 156 CURVE SMOOTH",
"635 128 OFFCURVE",
"574 114 OFFCURVE",
"497 114 CURVE SMOOTH",
"313 114 OFFCURVE",
"254 231 OFFCURVE",
"254 359 CURVE SMOOTH",
"254 360 OFFCURVE",
"256 374 OFFCURVE",
"260 399 CURVE",
"506 448 LINE SMOOTH",
"645 476 OFFCURVE",
"761 512 OFFCURVE",
"856 559 CURVE SMOOTH",
"951 606 OFFCURVE",
"998 679 OFFCURVE",
"998 778 CURVE SMOOTH",
"998 924 OFFCURVE",
"858 1067 OFFCURVE",
"652 1067 CURVE SMOOTH",
"292 1067 OFFCURVE",
"68 794 OFFCURVE",
"68 396 CURVE SMOOTH"
);
},
{
closed = 1;
nodes = (
"265 538 LINE",
"323 827 OFFCURVE",
"458 937 OFFCURVE",
"619 937 CURVE SMOOTH",
"721 937 OFFCURVE",
"822 877 OFFCURVE",
"822 786 CURVE SMOOTH",
"822 669 OFFCURVE",
"650 613 OFFCURVE",
"470 578 CURVE SMOOTH"
);
}
);
width = 1078;
},
{
layerId = "18E77EB5-4A27-4F30-B34A-BA542DA126C8";
paths = (
{
closed = 1;
nodes = (
"58 294 OFFCURVE",
"91 192 OFFCURVE",
"158 107 CURVE SMOOTH",
"225 22 OFFCURVE",
"350 -20 OFFCURVE",
"534 -20 CURVE SMOOTH",
"553 -20 OFFCURVE",
"569 -18 OFFCURVE",
"584 -15 CURVE",
"584 -22 LINE",
"475 -93 OFFCURVE",
"398 -150 OFFCURVE",
"386 -195 CURVE SMOOTH",
"380 -218 OFFCURVE",
"377 -242 OFFCURVE",
"377 -266 CURVE SMOOTH",
"377 -355 OFFCURVE",
"456 -420 OFFCURVE",
"621 -420 CURVE SMOOTH",
"673 -420 OFFCURVE",
"722 -417 OFFCURVE",
"768 -411 CURVE SMOOTH",
"791 -408 OFFCURVE",
"803 -393 OFFCURVE",
"802 -368 CURVE SMOOTH",
"799 -253 LINE SMOOTH",
"798 -230 OFFCURVE",
"787 -219 OFFCURVE",
"767 -219 CURVE SMOOTH",
"738 -219 OFFCURVE",
"706 -224 OFFCURVE",
"674 -224 CURVE SMOOTH",
"638 -224 OFFCURVE",
"613 -217 OFFCURVE",
"613 -189 CURVE SMOOTH",
"613 -127 OFFCURVE",
"843 16 OFFCURVE",
"887 48 CURVE SMOOTH",
"921 72 OFFCURVE",
"975 109 OFFCURVE",
"975 146 CURVE SMOOTH",
"975 159 OFFCURVE",
"970 173 OFFCURVE",
"959 187 CURVE SMOOTH",
"900 265 LINE SMOOTH",
"890 278 OFFCURVE",
"879 284 OFFCURVE",
"865 284 CURVE SMOOTH",
"836 284 OFFCURVE",
"778 232 OFFCURVE",
"699 203 CURVE SMOOTH",
"649 184 OFFCURVE",
"599 176 OFFCURVE",
"552 176 CURVE SMOOTH",
"468 176 OFFCURVE",
"414 195 OFFCURVE",
"391 233 CURVE SMOOTH",
"368 271 OFFCURVE",
"356 311 OFFCURVE",
"356 354 CURVE SMOOTH",
"356 364 OFFCURVE",
"356 373 OFFCURVE",
"357 382 CURVE",
"566 418 LINE SMOOTH",
"733 447 OFFCURVE",
"865 481 OFFCURVE",
"960 521 CURVE SMOOTH",
"1056 562 OFFCURVE",
"1104 646 OFFCURVE",
"1104 774 CURVE SMOOTH",
"1104 926 OFFCURVE",
"947 1070 OFFCURVE",
"679 1070 CURVE SMOOTH",
"485 1070 OFFCURVE",
"333 999 OFFCURVE",
"223 858 CURVE SMOOTH",
"113 717 OFFCURVE",
"58 569 OFFCURVE",
"58 415 CURVE SMOOTH"
);
},
{
closed = 1;
nodes = (
"370 570 LINE",
"415 737 OFFCURVE",
"510 874 OFFCURVE",
"682 874 CURVE SMOOTH",
"786 874 OFFCURVE",
"867 825 OFFCURVE",
"867 751 CURVE SMOOTH",
"867 668 OFFCURVE",
"724 628 OFFCURVE",
"589 606 CURVE SMOOTH"
);
}
);
width = 1150;
}
);
unicode = 0119;
},
{
glyphname = f;
lastChange = "2016-10-15 02:32:41 +0000";
layers = (
{
layerId = UUID0;
paths = (
{
closed = 1;
nodes = (
"289 918 LINE",
"-5 -355 LINE SMOOTH",
"-6 -361 OFFCURVE",
"-7 -366 OFFCURVE",
"-7 -370 CURVE SMOOTH",
"-7 -390 OFFCURVE",
"5 -400 OFFCURVE",
"30 -400 CURVE SMOOTH",
"116 -400 LINE SMOOTH",
"146 -400 OFFCURVE",
"164 -385 OFFCURVE",
"171 -355 CURVE SMOOTH",
"465 918 LINE",
"648 918 LINE SMOOTH",
"678 918 OFFCURVE",
"696 930 OFFCURVE",
"701 953 CURVE SMOOTH",
"715 1015 LINE SMOOTH",
"716 1018 OFFCURVE",
"716 1021 OFFCURVE",
"716 1024 CURVE SMOOTH",
"716 1041 OFFCURVE",
"703 1050 OFFCURVE",
"678 1050 CURVE SMOOTH",
"495 1050 LINE",
"523 1170 LINE SMOOTH",
"558 1321 OFFCURVE",
"613 1363 OFFCURVE",
"724 1363 CURVE SMOOTH",
"787 1363 OFFCURVE",
"838 1331 OFFCURVE",
"857 1331 CURVE SMOOTH",
"865 1331 OFFCURVE",
"872 1336 OFFCURVE",
"877 1344 CURVE SMOOTH",
"927 1423 LINE SMOOTH",
"931 1429 OFFCURVE",
"932 1434 OFFCURVE",
"932 1439 CURVE SMOOTH",
"932 1462 OFFCURVE",
"847 1482 OFFCURVE",
"827 1486 CURVE SMOOTH",
"800 1491 OFFCURVE",
"764 1493 OFFCURVE",
"718 1493 CURVE SMOOTH",
"567 1493 OFFCURVE",
"407 1424 OFFCURVE",
"354 1199 CURVE SMOOTH",
"319 1050 LINE",
"212 1050 LINE SMOOTH",
"182 1050 OFFCURVE",
"164 1038 OFFCURVE",
"159 1015 CURVE SMOOTH",
"145 953 LINE SMOOTH",
"144 950 OFFCURVE",
"144 946 OFFCURVE",
"144 943 CURVE SMOOTH",
"144 927 OFFCURVE",
"156 918 OFFCURVE",
"182 918 CURVE SMOOTH"
);
}
);
width = 652;
},
{
layerId = "18E77EB5-4A27-4F30-B34A-BA542DA126C8";
paths = (
{
closed = 1;
nodes = (
"233 850 LINE",
"-41 -340 LINE SMOOTH",
"-43 -348 OFFCURVE",
"-44 -354 OFFCURVE",
"-44 -360 CURVE SMOOTH",
"-44 -387 OFFCURVE",
"-28 -400 OFFCURVE",
"5 -400 CURVE SMOOTH",
"165 -400 LINE SMOOTH",
"205 -400 OFFCURVE",
"230 -380 OFFCURVE",
"239 -340 CURVE SMOOTH",
"513 850 LINE",
"645 850 LINE SMOOTH",
"684 850 OFFCURVE",
"708 867 OFFCURVE",
"716 900 CURVE SMOOTH",
"739 1000 LINE SMOOTH",
"740 1005 OFFCURVE",
"741 1011 OFFCURVE",
"741 1015 CURVE SMOOTH",
"741 1038 OFFCURVE",
"724 1050 OFFCURVE",
"691 1050 CURVE SMOOTH",
"559 1050 LINE",
"569 1090 LINE SMOOTH",
"585 1153 OFFCURVE",
"600 1203 OFFCURVE",
"616 1242 CURVE SMOOTH",
"631 1281 OFFCURVE",
"668 1300 OFFCURVE",
"724 1300 CURVE SMOOTH",
"755 1300 OFFCURVE",
"807 1296 OFFCURVE",
"846 1284 CURVE SMOOTH",
"854 1281 OFFCURVE",
"862 1280 OFFCURVE",
"868 1280 CURVE SMOOTH",
"881 1280 OFFCURVE",
"890 1285 OFFCURVE",
"895 1297 CURVE SMOOTH",
"940 1405 LINE SMOOTH",
"943 1413 OFFCURVE",
"945 1420 OFFCURVE",
"945 1427 CURVE SMOOTH",
"945 1467 OFFCURVE",
"825 1496 OFFCURVE",
"732 1496 CURVE SMOOTH",
"492 1496 OFFCURVE",
"363 1407 OFFCURVE",
"312 1190 CURVE SMOOTH",
"279 1050 LINE",
"223 1050 LINE SMOOTH",
"184 1050 OFFCURVE",
"160 1033 OFFCURVE",
"153 1000 CURVE SMOOTH",
"130 900 LINE SMOOTH",
"129 895 OFFCURVE",
"128 890 OFFCURVE",
"128 885 CURVE SMOOTH",
"128 862 OFFCURVE",
"144 850 OFFCURVE",
"177 850 CURVE SMOOTH"
);
}
);
width = 682;
}
);
unicode = 0066;
},
{
glyphname = g;
lastChange = "2016-10-15 02:32:41 +0000";
layers = (
{
layerId = UUID0;
paths = (
{
closed = 1;
nodes = (
"70 270 OFFCURVE",
"94 176 OFFCURVE",
"144 99 CURVE SMOOTH",
"193 22 OFFCURVE",
"282 -17 OFFCURVE",
"409 -17 CURVE SMOOTH",
"513 -17 OFFCURVE",
"662 61 OFFCURVE",
"719 165 CURVE",
"721 165 LINE",
"714 142 OFFCURVE",
"709 122 OFFCURVE",
"705 104 CURVE SMOOTH",
"684 11 LINE SMOOTH",
"635 -207 OFFCURVE",
"518 -287 OFFCURVE",
"354 -287 CURVE SMOOTH",
"212 -287 OFFCURVE",
"144 -252 OFFCURVE",
"94 -198 CURVE SMOOTH",
"82 -185 OFFCURVE",
"71 -179 OFFCURVE",
"60 -179 CURVE SMOOTH",
"53 -179 OFFCURVE",
"45 -183 OFFCURVE",
"38 -190 CURVE SMOOTH",
"-12 -238 LINE SMOOTH",
"-22 -247 OFFCURVE",
"-26 -258 OFFCURVE",
"-26 -268 CURVE SMOOTH",
"-26 -278 OFFCURVE",
"-23 -288 OFFCURVE",
"-16 -298 CURVE",
"27 -370 OFFCURVE",
"143 -417 OFFCURVE",
"323 -417 CURVE SMOOTH",
"496 -417 OFFCURVE",
"620 -383 OFFCURVE",
"695 -315 CURVE SMOOTH",
"770 -247 OFFCURVE",
"823 -145 OFFCURVE",
"855 -8 CURVE SMOOTH",
"1089 1005 LINE SMOOTH",
"1090 1010 OFFCURVE",
"1091 1015 OFFCURVE",
"1091 1020 CURVE SMOOTH",
"1091 1040 OFFCURVE",
"1078 1050 OFFCURVE",
"1054 1050 CURVE SMOOTH",
"970 1050 LINE SMOOTH",
"947 1050 OFFCURVE",
"930 1035 OFFCURVE",
"921 1005 CURVE SMOOTH",
"898 932 LINE",
"896 932 LINE",
"827 1023 OFFCURVE",
"759 1067 OFFCURVE",
"610 1067 CURVE SMOOTH",
"465 1067 OFFCURVE",
"338 995 OFFCURVE",
"231 850 CURVE SMOOTH",
"124 706 OFFCURVE",
"70 549 OFFCURVE",
"70 379 CURVE SMOOTH"
);
},
{
closed = 1;
nodes = (
"256 667 OFFCURVE",
"421 937 OFFCURVE",
"624 937 CURVE SMOOTH",
"771 937 OFFCURVE",
"842 896 OFFCURVE",
"856 760 CURVE",
"791 480 LINE SMOOTH",
"752 312 OFFCURVE",
"590 113 OFFCURVE",
"459 113 CURVE SMOOTH",
"304 113 OFFCURVE",
"256 239 OFFCURVE",
"256 372 CURVE SMOOTH"
);
}
);
width = 1119;
},
{
layerId = "18E77EB5-4A27-4F30-B34A-BA542DA126C8";
paths = (
{
closed = 1;
nodes = (
"66 305 OFFCURVE",
"94 210 OFFCURVE",
"149 122 CURVE SMOOTH",
"205 33 OFFCURVE",
"299 -11 OFFCURVE",
"431 -11 CURVE SMOOTH",
"530 -11 OFFCURVE",
"593 32 OFFCURVE",
"690 147 CURVE",
"694 147 LINE",
"684 118 OFFCURVE",
"676 91 OFFCURVE",
"671 67 CURVE SMOOTH",
"663 31 LINE SMOOTH",
"640 -75 OFFCURVE",
"598 -144 OFFCURVE",
"538 -176 CURVE SMOOTH",
"478 -208 OFFCURVE",
"412 -224 OFFCURVE",
"340 -224 CURVE SMOOTH",
"225 -224 OFFCURVE",
"152 -195 OFFCURVE",
"103 -170 CURVE SMOOTH",
"91 -164 OFFCURVE",
"79 -161 OFFCURVE",
"69 -161 CURVE SMOOTH",
"51 -161 OFFCURVE",
"36 -170 OFFCURVE",
"25 -190 CURVE SMOOTH",
"-18 -263 LINE SMOOTH",
"-28 -280 OFFCURVE",
"-33 -294 OFFCURVE",
"-33 -306 CURVE SMOOTH",
"-33 -352 OFFCURVE",
"100 -393 OFFCURVE",
"141 -403 CURVE SMOOTH",
"187 -414 OFFCURVE",
"248 -420 OFFCURVE",
"325 -420 CURVE SMOOTH",
"687 -420 OFFCURVE",
"867 -302 OFFCURVE",
"939 11 CURVE SMOOTH",
"1165 990 LINE SMOOTH",
"1167 997 OFFCURVE",
"1167 1004 OFFCURVE",
"1167 1010 CURVE SMOOTH",
"1167 1037 OFFCURVE",
"1151 1050 OFFCURVE",
"1118 1050 CURVE SMOOTH",
"960 1050 LINE SMOOTH",
"929 1050 OFFCURVE",
"906 1030 OFFCURVE",
"893 990 CURVE SMOOTH",
"881 954 LINE",
"877 954 LINE",
"811 1058 OFFCURVE",
"693 1070 OFFCURVE",
"599 1070 CURVE SMOOTH",
"458 1070 OFFCURVE",
"333 1002 OFFCURVE",
"226 866 CURVE SMOOTH",
"119 730 OFFCURVE",
"66 575 OFFCURVE",
"66 402 CURVE SMOOTH"
);
},
{
closed = 1;
nodes = (
"362 508 OFFCURVE",
"387 621 OFFCURVE",
"437 722 CURVE SMOOTH",
"487 823 OFFCURVE",
"557 874 OFFCURVE",
"647 874 CURVE SMOOTH",
"783 874 OFFCURVE",
"814 805 OFFCURVE",
"814 680 CURVE",
"777 522 LINE SMOOTH",
"729 318 OFFCURVE",
"602 185 OFFCURVE",
"509 185 CURVE SMOOTH",
"418 185 OFFCURVE",
"362 264 OFFCURVE",
"362 383 CURVE SMOOTH"
);
}
);
width = 1192;
}
);
unicode = 0067;
},
{
glyphname = h;
lastChange = "2016-10-15 02:32:41 +0000";
layers = (
{
layerId = UUID0;
paths = (
{
closed = 1;
nodes = (
"153 0 LINE SMOOTH",
"183 0 OFFCURVE",
"201 15 OFFCURVE",
"208 45 CURVE SMOOTH",
"326 554 LINE SMOOTH",
"371 750 OFFCURVE",
"518 937 OFFCURVE",
"678 937 CURVE SMOOTH",
"790 937 OFFCURVE",
"861 904 OFFCURVE",
"861 792 CURVE",
"860 751 OFFCURVE",
"854 699 OFFCURVE",
"839 636 CURVE SMOOTH",
"702 45 LINE SMOOTH",
"701 39 OFFCURVE",
"700 34 OFFCURVE",
"700 30 CURVE SMOOTH",
"700 10 OFFCURVE",
"712 0 OFFCURVE",
"737 0 CURVE SMOOTH",
"823 0 LINE SMOOTH",
"853 0 OFFCURVE",
"871 15 OFFCURVE",
"878 45 CURVE SMOOTH",
"1026 684 LINE SMOOTH",
"1037 731 OFFCURVE",
"1042 774 OFFCURVE",
"1042 813 CURVE SMOOTH",
"1042 977 OFFCURVE",
"953 1067 OFFCURVE",
"773 1067 CURVE SMOOTH",
"614 1067 OFFCURVE",
"482 981 OFFCURVE",
"405 885 CURVE",
"401 885 LINE",
"407 906 OFFCURVE",
"412 926 OFFCURVE",
"416 945 CURVE SMOOTH",
"528 1431 LINE SMOOTH",
"529 1436 OFFCURVE",
"530 1442 OFFCURVE",
"530 1446 CURVE SMOOTH",
"530 1466 OFFCURVE",
"517 1476 OFFCURVE",
"494 1476 CURVE SMOOTH",
"408 1476 LINE SMOOTH",
"377 1476 OFFCURVE",
"359 1461 OFFCURVE",
"352 1431 CURVE SMOOTH",
"32 45 LINE SMOOTH",
"31 39 OFFCURVE",
"30 34 OFFCURVE",
"30 30 CURVE SMOOTH",
"30 10 OFFCURVE",
"42 0 OFFCURVE",
"67 0 CURVE SMOOTH"
);
}
);
width = 1128;
},
{
layerId = "18E77EB5-4A27-4F30-B34A-BA542DA126C8";
paths = (
{
closed = 1;
nodes = (
"236 0 LINE SMOOTH",
"276 0 OFFCURVE",
"301 20 OFFCURVE",
"310 60 CURVE SMOOTH",
"393 424 LINE SMOOTH",
"459 712 OFFCURVE",
"568 874 OFFCURVE",
"709 874 CURVE SMOOTH",
"785 874 OFFCURVE",
"824 838 OFFCURVE",
"824 757 CURVE SMOOTH",
"824 708 OFFCURVE",
"813 636 OFFCURVE",
"791 542 CURVE SMOOTH",
"680 60 LINE SMOOTH",
"678 52 OFFCURVE",
"677 46 OFFCURVE",
"677 40 CURVE SMOOTH",
"677 13 OFFCURVE",
"693 0 OFFCURVE",
"726 0 CURVE SMOOTH",
"886 0 LINE SMOOTH",
"926 0 OFFCURVE",
"951 20 OFFCURVE",
"960 60 CURVE SMOOTH",
"1088 614 LINE SMOOTH",
"1103 679 OFFCURVE",
"1110 736 OFFCURVE",
"1110 787 CURVE SMOOTH",
"1110 981 OFFCURVE",
"981 1070 OFFCURVE",
"833 1070 CURVE SMOOTH",
"699 1070 OFFCURVE",
"616 1040 OFFCURVE",
"508 912 CURVE",
"503 912 LINE",
"512 938 OFFCURVE",
"520 965 OFFCURVE",
"526 992 CURVE SMOOTH",
"623 1416 LINE SMOOTH",
"625 1423 OFFCURVE",
"625 1430 OFFCURVE",
"625 1436 CURVE SMOOTH",
"625 1463 OFFCURVE",
"609 1476 OFFCURVE",
"577 1476 CURVE SMOOTH",
"417 1476 LINE SMOOTH",
"377 1476 OFFCURVE",
"352 1456 OFFCURVE",
"343 1416 CURVE SMOOTH",
"30 60 LINE SMOOTH",
"28 52 OFFCURVE",
"27 46 OFFCURVE",
"27 40 CURVE SMOOTH",
"27 13 OFFCURVE",
"43 0 OFFCURVE",
"76 0 CURVE SMOOTH"
);
}
);
width = 1200;
}
);
unicode = 0068;
},
{
glyphname = hbar;
lastChange = "2016-10-15 02:32:41 +0000";
layers = (
{
layerId = UUID0;
paths = (
{
closed = 1;
nodes = (
"371 1208 LINE",
"102 45 LINE SMOOTH",
"101 39 OFFCURVE",
"100 34 OFFCURVE",
"100 30 CURVE SMOOTH",
"100 10 OFFCURVE",
"112 0 OFFCURVE",
"137 0 CURVE SMOOTH",
"223 0 LINE SMOOTH",
"253 0 OFFCURVE",
"271 15 OFFCURVE",
"278 45 CURVE SMOOTH",
"396 554 LINE SMOOTH",
"441 750 OFFCURVE",
"588 937 OFFCURVE",
"748 937 CURVE SMOOTH",
"860 937 OFFCURVE",
"931 904 OFFCURVE",
"931 792 CURVE",
"930 751 OFFCURVE",
"924 699 OFFCURVE",
"909 636 CURVE SMOOTH",
"772 45 LINE SMOOTH",
"771 39 OFFCURVE",
"770 34 OFFCURVE",
"770 30 CURVE SMOOTH",
"770 10 OFFCURVE",
"782 0 OFFCURVE",
"807 0 CURVE SMOOTH",
"893 0 LINE SMOOTH",
"923 0 OFFCURVE",
"941 15 OFFCURVE",
"948 45 CURVE SMOOTH",
"1096 684 LINE SMOOTH",
"1107 731 OFFCURVE",
"1112 774 OFFCURVE",
"1112 813 CURVE SMOOTH",
"1112 977 OFFCURVE",
"1023 1067 OFFCURVE",
"843 1067 CURVE SMOOTH",
"684 1067 OFFCURVE",
"552 981 OFFCURVE",
"475 885 CURVE",
"471 885 LINE",
"477 906 OFFCURVE",
"481 926 OFFCURVE",
"486 945 CURVE SMOOTH",
"547 1208 LINE",
"910 1208 LINE SMOOTH",
"940 1208 OFFCURVE",
"958 1220 OFFCURVE",
"963 1243 CURVE SMOOTH",
"977 1305 LINE SMOOTH",
"978 1308 OFFCURVE",
"978 1311 OFFCURVE",
"978 1314 CURVE SMOOTH",
"978 1331 OFFCURVE",
"965 1340 OFFCURVE",
"940 1340 CURVE SMOOTH",
"577 1340 LINE",
"598 1431 LINE SMOOTH",
"599 1437 OFFCURVE",
"600 1442 OFFCURVE",
"600 1447 CURVE SMOOTH",
"600 1466 OFFCURVE",
"588 1476 OFFCURVE",
"564 1476 CURVE SMOOTH",
"478 1476 LINE SMOOTH",
"447 1476 OFFCURVE",
"429 1461 OFFCURVE",
"422 1431 CURVE SMOOTH",
"401 1340 LINE",
"264 1340 LINE SMOOTH",
"234 1340 OFFCURVE",
"216 1328 OFFCURVE",
"211 1305 CURVE SMOOTH",
"197 1243 LINE SMOOTH",
"196 1240 OFFCURVE",
"196 1236 OFFCURVE",
"196 1233 CURVE SMOOTH",
"196 1217 OFFCURVE",
"208 1208 OFFCURVE",
"234 1208 CURVE SMOOTH"
);
}
);
width = 1198;
},
{
layerId = "18E77EB5-4A27-4F30-B34A-BA542DA126C8";
paths = (
{
closed = 1;
nodes = (
"320 1180 LINE",
"62 60 LINE SMOOTH",
"60 52 OFFCURVE",
"59 46 OFFCURVE",
"59 40 CURVE SMOOTH",
"59 13 OFFCURVE",
"75 0 OFFCURVE",
"108 0 CURVE SMOOTH",
"268 0 LINE SMOOTH",
"308 0 OFFCURVE",
"333 20 OFFCURVE",
"342 60 CURVE SMOOTH",
"426 424 LINE SMOOTH",
"492 712 OFFCURVE",
"601 874 OFFCURVE",
"742 874 CURVE SMOOTH",
"818 874 OFFCURVE",
"857 838 OFFCURVE",
"857 757 CURVE SMOOTH",
"857 708 OFFCURVE",
"846 636 OFFCURVE",
"824 542 CURVE SMOOTH",
"712 60 LINE SMOOTH",
"710 52 OFFCURVE",
"709 46 OFFCURVE",
"709 40 CURVE SMOOTH",
"709 13 OFFCURVE",
"725 0 OFFCURVE",
"758 0 CURVE SMOOTH",
"918 0 LINE SMOOTH",
"958 0 OFFCURVE",
"983 20 OFFCURVE",
"992 60 CURVE SMOOTH",
"1121 614 LINE SMOOTH",
"1136 679 OFFCURVE",
"1143 736 OFFCURVE",
"1143 787 CURVE SMOOTH",
"1143 981 OFFCURVE",
"1014 1070 OFFCURVE",
"866 1070 CURVE SMOOTH",
"732 1070 OFFCURVE",
"649 1040 OFFCURVE",
"541 912 CURVE",
"536 912 LINE",
"545 938 OFFCURVE",
"553 965 OFFCURVE",
"559 992 CURVE SMOOTH",
"600 1180 LINE",
"943 1180 LINE SMOOTH",
"983 1180 OFFCURVE",
"1007 1197 OFFCURVE",
"1015 1230 CURVE SMOOTH",
"1038 1330 LINE SMOOTH",
"1039 1335 OFFCURVE",
"1040 1341 OFFCURVE",
"1040 1345 CURVE SMOOTH",
"1040 1368 OFFCURVE",
"1023 1380 OFFCURVE",
"990 1380 CURVE SMOOTH",
"647 1380 LINE",
"655 1416 LINE SMOOTH",
"657 1423 OFFCURVE",
"657 1430 OFFCURVE",
"657 1436 CURVE SMOOTH",
"657 1463 OFFCURVE",
"641 1476 OFFCURVE",
"609 1476 CURVE SMOOTH",
"449 1476 LINE SMOOTH",
"409 1476 OFFCURVE",
"384 1456 OFFCURVE",
"375 1416 CURVE SMOOTH",
"367 1380 LINE",
"276 1380 LINE SMOOTH",
"236 1380 OFFCURVE",
"211 1363 OFFCURVE",
"204 1330 CURVE SMOOTH",
"181 1230 LINE SMOOTH",
"180 1224 OFFCURVE",
"179 1219 OFFCURVE",
"179 1215 CURVE SMOOTH",
"179 1192 OFFCURVE",
"196 1180 OFFCURVE",
"229 1180 CURVE SMOOTH"
);
}
);
width = 1233;
}
);
unicode = 0127;
},
{
glyphname = dotlessi;
lastChange = "2016-10-15 02:32:41 +0000";
layers = (
{
layerId = UUID0;
paths = (
{
closed = 1;
nodes = (
"153 0 LINE SMOOTH",
"183 0 OFFCURVE",
"201 15 OFFCURVE",
"208 45 CURVE SMOOTH",
"430 1005 LINE SMOOTH",
"431 1010 OFFCURVE",
"432 1015 OFFCURVE",
"432 1020 CURVE SMOOTH",
"432 1040 OFFCURVE",
"419 1050 OFFCURVE",
"395 1050 CURVE SMOOTH",
"309 1050 LINE SMOOTH",
"279 1050 OFFCURVE",
"261 1035 OFFCURVE",
"254 1005 CURVE SMOOTH",
"32 45 LINE SMOOTH",
"31 39 OFFCURVE",
"30 34 OFFCURVE",
"30 30 CURVE SMOOTH",
"30 10 OFFCURVE",
"42 0 OFFCURVE",
"67 0 CURVE SMOOTH"
);
}
);
width = 460;
},
{
layerId = "18E77EB5-4A27-4F30-B34A-BA542DA126C8";
paths = (
{
closed = 1;
nodes = (
"236 0 LINE SMOOTH",
"276 0 OFFCURVE",
"301 20 OFFCURVE",
"310 60 CURVE SMOOTH",
"525 990 LINE SMOOTH",
"527 997 OFFCURVE",
"527 1004 OFFCURVE",
"527 1010 CURVE SMOOTH",
"527 1036 OFFCURVE",
"511 1050 OFFCURVE",
"478 1050 CURVE SMOOTH",
"318 1050 LINE SMOOTH",
"279 1050 OFFCURVE",
"254 1030 OFFCURVE",
"245 990 CURVE SMOOTH",
"30 60 LINE SMOOTH",
"28 52 OFFCURVE",
"27 46 OFFCURVE",
"27 40 CURVE SMOOTH",
"27 13 OFFCURVE",
"43 0 OFFCURVE",
"76 0 CURVE SMOOTH"
);
}
);
width = 552;
}
);
unicode = 0131;
},
{
glyphname = uni0237;
lastChange = "2016-10-15 02:32:41 +0000";
layers = (
{
layerId = UUID0;
paths = (
{
closed = 1;
nodes = (
"-265 -410 OFFCURVE",
"-219 -417 OFFCURVE",
"-153 -417 CURVE SMOOTH",
"-80 -417 OFFCURVE",
"-14 -395 OFFCURVE",
"47 -352 CURVE SMOOTH",
"108 -309 OFFCURVE",
"153 -222 OFFCURVE",
"183 -93 CURVE SMOOTH",
"436 1005 LINE SMOOTH",
"437 1010 OFFCURVE",
"438 1015 OFFCURVE",
"438 1020 CURVE SMOOTH",
"438 1040 OFFCURVE",
"425 1050 OFFCURVE",
"401 1050 CURVE SMOOTH",
"315 1050 LINE SMOOTH",
"285 1050 OFFCURVE",
"267 1035 OFFCURVE",
"260 1005 CURVE SMOOTH",
"29 6 LINE SMOOTH",
"-27 -237 OFFCURVE",
"-77 -287 OFFCURVE",
"-155 -287 CURVE SMOOTH",
"-192 -287 OFFCURVE",
"-223 -281 OFFCURVE",
"-246 -269 CURVE SMOOTH",
"-250 -267 OFFCURVE",
"-254 -266 OFFCURVE",
"-257 -266 CURVE SMOOTH",
"-266 -266 OFFCURVE",
"-272 -272 OFFCURVE",
"-275 -284 CURVE SMOOTH",
"-300 -365 LINE",
"-302 -369 OFFCURVE",
"-302 -374 OFFCURVE",
"-302 -377 CURVE SMOOTH",
"-302 -386 OFFCURVE",
"-298 -393 OFFCURVE",
"-290 -397 CURVE SMOOTH"
);
}
);
width = 466;
},
{
layerId = "18E77EB5-4A27-4F30-B34A-BA542DA126C8";
paths = (
{
closed = 1;
nodes = (
"-252 -415 OFFCURVE",
"-205 -420 OFFCURVE",
"-145 -420 CURVE SMOOTH",
"-31 -420 OFFCURVE",
"63 -392 OFFCURVE",
"137 -336 CURVE SMOOTH",
"211 -280 OFFCURVE",
"267 -169 OFFCURVE",
"305 -4 CURVE SMOOTH",
"535 990 LINE SMOOTH",
"537 997 OFFCURVE",
"537 1004 OFFCURVE",
"537 1010 CURVE SMOOTH",
"537 1037 OFFCURVE",
"521 1050 OFFCURVE",
"488 1050 CURVE SMOOTH",
"328 1050 LINE SMOOTH",
"289 1050 OFFCURVE",
"264 1030 OFFCURVE",
"255 990 CURVE SMOOTH",
"32 26 LINE SMOOTH",
"-5 -134 OFFCURVE",
"-52 -224 OFFCURVE",
"-149 -224 CURVE SMOOTH",
"-161 -224 OFFCURVE",
"-183 -221 OFFCURVE",
"-216 -215 CURVE SMOOTH",
"-221 -214 OFFCURVE",
"-225 -214 OFFCURVE",
"-229 -214 CURVE SMOOTH",
"-250 -214 OFFCURVE",
"-263 -224 OFFCURVE",
"-270 -243 CURVE SMOOTH",
"-307 -349 LINE SMOOTH",
"-310 -358 OFFCURVE",
"-312 -367 OFFCURVE",
"-312 -374 CURVE SMOOTH",
"-312 -390 OFFCURVE",
"-303 -400 OFFCURVE",
"-286 -405 CURVE SMOOTH"
);
}
);
width = 562;
}
);
unicode = 0237;
},
{
glyphname = k;
lastChange = "2016-10-15 02:32:41 +0000";
layers = (
{
layerId = UUID0;
paths = (
{
closed = 1;
nodes = (
"153 0 LINE SMOOTH",
"182 0 OFFCURVE",
"201 15 OFFCURVE",
"208 45 CURVE SMOOTH",
"266 293 LINE",
"477 491 LINE",
"663 37 LINE SMOOTH",
"673 12 OFFCURVE",
"689 0 OFFCURVE",
"711 0 CURVE SMOOTH",
"792 0 LINE SMOOTH",
"823 0 OFFCURVE",
"838 10 OFFCURVE",
"838 31 CURVE SMOOTH",
"838 39 OFFCURVE",
"836 48 OFFCURVE",
"832 59 CURVE SMOOTH",
"604 611 LINE",
"1013 991 LINE SMOOTH",
"1032 1009 OFFCURVE",
"1042 1022 OFFCURVE",
"1042 1032 CURVE SMOOTH",
"1042 1044 OFFCURVE",
"1028 1050 OFFCURVE",
"1000 1050 CURVE SMOOTH",
"889 1050 LINE SMOOTH",
"868 1050 OFFCURVE",
"848 1041 OFFCURVE",
"830 1024 CURVE SMOOTH",
"325 551 LINE",
"323 551 LINE",
"339 611 LINE",
"528 1431 LINE SMOOTH",
"529 1436 OFFCURVE",
"530 1442 OFFCURVE",
"530 1446 CURVE SMOOTH",
"530 1466 OFFCURVE",
"517 1476 OFFCURVE",
"494 1476 CURVE SMOOTH",
"408 1476 LINE SMOOTH",
"377 1476 OFFCURVE",
"359 1461 OFFCURVE",
"352 1431 CURVE SMOOTH",
"32 45 LINE SMOOTH",
"31 39 OFFCURVE",
"30 34 OFFCURVE",
"30 30 CURVE SMOOTH",
"30 10 OFFCURVE",
"42 0 OFFCURVE",
"67 0 CURVE SMOOTH"
);
}
);
width = 1003;
},
{
layerId = "18E77EB5-4A27-4F30-B34A-BA542DA126C8";
paths = (
{
closed = 1;
nodes = (
"236 0 LINE SMOOTH",
"276 0 OFFCURVE",
"301 20 OFFCURVE",
"310 60 CURVE SMOOTH",
"355 257 LINE",
"538 430 LINE",
"690 52 LINE SMOOTH",
"704 17 OFFCURVE",
"727 0 OFFCURVE",
"760 0 CURVE SMOOTH",
"903 0 LINE SMOOTH",
"941 0 OFFCURVE",
"960 13 OFFCURVE",
"960 38 CURVE SMOOTH",
"960 48 OFFCURVE",
"957 60 OFFCURVE",
"951 74 CURVE SMOOTH",
"728 605 LINE",
"1114 976 LINE SMOOTH",
"1137 998 OFFCURVE",
"1149 1016 OFFCURVE",
"1149 1028 CURVE SMOOTH",
"1149 1043 OFFCURVE",
"1133 1050 OFFCURVE",
"1100 1050 CURVE SMOOTH",
"909 1050 LINE SMOOTH",
"879 1050 OFFCURVE",
"850 1036 OFFCURVE",
"822 1009 CURVE SMOOTH",
"444 639 LINE",
"440 639 LINE",
"449 667 OFFCURVE",
"456 694 OFFCURVE",
"462 719 CURVE SMOOTH",
"623 1416 LINE SMOOTH",
"625 1423 OFFCURVE",
"625 1430 OFFCURVE",
"625 1436 CURVE SMOOTH",
"625 1463 OFFCURVE",
"609 1476 OFFCURVE",
"577 1476 CURVE SMOOTH",
"417 1476 LINE SMOOTH",
"377 1476 OFFCURVE",
"352 1456 OFFCURVE",
"343 1416 CURVE SMOOTH",
"30 60 LINE SMOOTH",
"28 52 OFFCURVE",
"27 46 OFFCURVE",
"27 40 CURVE SMOOTH",
"27 13 OFFCURVE",
"43 0 OFFCURVE",
"76 0 CURVE SMOOTH"
);
}
);
width = 1119;
}
);
unicode = 006B;
},
{
glyphname = l;
lastChange = "2016-10-15 02:32:41 +0000";
layers = (
{
layerId = UUID0;
paths = (
{
closed = 1;
nodes = (
"153 0 LINE SMOOTH",
"183 0 OFFCURVE",
"201 15 OFFCURVE",
"208 45 CURVE SMOOTH",
"535 1458 LINE SMOOTH",
"536 1463 OFFCURVE",
"536 1467 OFFCURVE",
"536 1471 CURVE SMOOTH",
"536 1485 OFFCURVE",
"529 1493 OFFCURVE",
"513 1493 CURVE SMOOTH",
"478 1493 LINE SMOOTH",
"470 1493 OFFCURVE",
"457 1481 OFFCURVE",
"439 1458 CURVE SMOOTH",
"339 1331 LINE SMOOTH",
"330 1319 OFFCURVE",
"324 1306 OFFCURVE",
"321 1293 CURVE SMOOTH",
"32 45 LINE SMOOTH",
"31 39 OFFCURVE",
"30 34 OFFCURVE",
"30 30 CURVE SMOOTH",
"30 10 OFFCURVE",
"42 0 OFFCURVE",
"67 0 CURVE SMOOTH"
);
}
);
width = 460;
},
{
layerId = "18E77EB5-4A27-4F30-B34A-BA542DA126C8";
paths = (
{
closed = 1;
nodes = (
"236 0 LINE SMOOTH",
"276 0 OFFCURVE",
"301 20 OFFCURVE",
"310 60 CURVE SMOOTH",
"628 1436 LINE SMOOTH",
"630 1443 OFFCURVE",
"630 1450 OFFCURVE",
"630 1456 CURVE SMOOTH",
"630 1482 OFFCURVE",
"614 1496 OFFCURVE",
"581 1496 CURVE SMOOTH",
"511 1496 LINE SMOOTH",
"492 1496 OFFCURVE",
"471 1483 OFFCURVE",
"451 1458 CURVE SMOOTH",
"342 1323 LINE",
"323 1298 OFFCURVE",
"310 1271 OFFCURVE",
"303 1241 CURVE SMOOTH",
"30 60 LINE SMOOTH",
"28 52 OFFCURVE",
"27 46 OFFCURVE",
"27 40 CURVE SMOOTH",
"27 13 OFFCURVE",
"43 0 OFFCURVE",
"76 0 CURVE SMOOTH"
);
}
);
width = 552;
}
);
unicode = 006C;
},
{
glyphname = lslash;
lastChange = "2016-10-15 02:32:41 +0000";
layers = (
{
layerId = UUID0;
paths = (
{
closed = 1;
nodes = (
"266 625 LINE",
"268 625 LINE",
"252 565 LINE",
"132 45 LINE SMOOTH",
"131 39 OFFCURVE",
"130 34 OFFCURVE",
"130 30 CURVE SMOOTH",
"130 10 OFFCURVE",
"142 0 OFFCURVE",
"167 0 CURVE SMOOTH",
"253 0 LINE SMOOTH",
"283 0 OFFCURVE",
"301 15 OFFCURVE",
"308 45 CURVE SMOOTH",
"473 760 LINE",
"671 883 LINE SMOOTH",
"697 899 OFFCURVE",
"712 919 OFFCURVE",
"718 943 CURVE SMOOTH",
"742 1049 LINE SMOOTH",
"743 1054 OFFCURVE",
"744 1058 OFFCURVE",
"744 1062 CURVE SMOOTH",
"744 1070 OFFCURVE",
"740 1075 OFFCURVE",
"733 1075 CURVE SMOOTH",
"726 1075 OFFCURVE",
"715 1070 OFFCURVE",
"700 1061 CURVE SMOOTH",
"514 946 LINE",
"520 966 OFFCURVE",
"525 986 OFFCURVE",
"530 1006 CURVE SMOOTH",
"635 1458 LINE SMOOTH",
"636 1462 OFFCURVE",
"636 1466 OFFCURVE",
"636 1470 CURVE SMOOTH",
"636 1484 OFFCURVE",
"629 1493 OFFCURVE",
"613 1493 CURVE SMOOTH",
"578 1493 LINE SMOOTH",
"571 1493 OFFCURVE",
"557 1481 OFFCURVE",
"539 1458 CURVE SMOOTH",
"439 1331 LINE SMOOTH",
"430 1320 OFFCURVE",
"424 1307 OFFCURVE",
"421 1293 CURVE SMOOTH",
"309 811 LINE",
"112 688 LINE SMOOTH",
"87 672 OFFCURVE",
"71 652 OFFCURVE",
"65 627 CURVE SMOOTH",
"40 521 LINE SMOOTH",
"39 516 OFFCURVE",
"38 512 OFFCURVE",
"38 508 CURVE SMOOTH",
"38 499 OFFCURVE",
"42 495 OFFCURVE",
"49 495 CURVE SMOOTH",
"56 495 OFFCURVE",
"67 500 OFFCURVE",
"83 510 CURVE SMOOTH"
);
}
);
width = 660;
},
{
layerId = "18E77EB5-4A27-4F30-B34A-BA542DA126C8";
paths = (
{
closed = 1;
nodes = (
"207 547 LINE",
"211 547 LINE",
"203 522 OFFCURVE",
"196 496 OFFCURVE",
"189 467 CURVE SMOOTH",
"95 60 LINE SMOOTH",
"93 52 OFFCURVE",
"92 46 OFFCURVE",
"92 40 CURVE SMOOTH",
"92 13 OFFCURVE",
"108 0 OFFCURVE",
"141 0 CURVE SMOOTH",
"301 0 LINE SMOOTH",
"341 0 OFFCURVE",
"366 20 OFFCURVE",
"375 60 CURVE SMOOTH",
"536 758 LINE",
"690 854 LINE SMOOTH",
"724 875 OFFCURVE",
"744 901 OFFCURVE",
"751 930 CURVE SMOOTH",
"787 1088 LINE SMOOTH",
"788 1094 OFFCURVE",
"789 1100 OFFCURVE",
"789 1104 CURVE SMOOTH",
"789 1115 OFFCURVE",
"785 1121 OFFCURVE",
"776 1121 CURVE SMOOTH",
"767 1121 OFFCURVE",
"754 1115 OFFCURVE",
"736 1104 CURVE SMOOTH",
"596 1016 LINE",
"592 1016 LINE",
"600 1041 OFFCURVE",
"607 1067 OFFCURVE",
"614 1096 CURVE SMOOTH",
"693 1436 LINE SMOOTH",
"695 1443 OFFCURVE",
"695 1450 OFFCURVE",
"695 1456 CURVE SMOOTH",
"695 1483 OFFCURVE",
"679 1496 OFFCURVE",
"646 1496 CURVE SMOOTH",
"576 1496 LINE SMOOTH",
"557 1496 OFFCURVE",
"536 1483 OFFCURVE",
"516 1458 CURVE SMOOTH",
"407 1323 LINE SMOOTH",
"388 1300 OFFCURVE",
"375 1272 OFFCURVE",
"368 1241 CURVE SMOOTH",
"267 805 LINE",
"124 715 LINE SMOOTH",
"90 694 OFFCURVE",
"70 668 OFFCURVE",
"63 638 CURVE SMOOTH",
"27 480 LINE SMOOTH",
"25 473 OFFCURVE",
"25 468 OFFCURVE",
"25 464 CURVE SMOOTH",
"25 453 OFFCURVE",
"29 448 OFFCURVE",
"37 448 CURVE SMOOTH",
"46 448 OFFCURVE",
"60 453 OFFCURVE",
"78 465 CURVE SMOOTH"
);
}
);
width = 692;
}
);
unicode = 0142;
},
{
glyphname = m;
lastChange = "2016-10-15 02:32:41 +0000";
layers = (
{
layerId = UUID0;
paths = (
{
closed = 1;
nodes = (
"153 0 LINE SMOOTH",
"183 0 OFFCURVE",
"201 15 OFFCURVE",
"208 45 CURVE SMOOTH",
"326 554 LINE SMOOTH",
"371 750 OFFCURVE",
"530 937 OFFCURVE",
"648 937 CURVE SMOOTH",
"756 937 OFFCURVE",
"803 901 OFFCURVE",
"803 807 CURVE SMOOTH",
"803 762 OFFCURVE",
"794 702 OFFCURVE",
"777 626 CURVE SMOOTH",
"642 45 LINE SMOOTH",
"641 39 OFFCURVE",
"640 34 OFFCURVE",
"640 30 CURVE SMOOTH",
"640 10 OFFCURVE",
"652 0 OFFCURVE",
"677 0 CURVE SMOOTH",
"763 0 LINE SMOOTH",
"793 0 OFFCURVE",
"811 15 OFFCURVE",
"818 45 CURVE SMOOTH",
"936 554 LINE SMOOTH",
"979 739 OFFCURVE",
"1139 937 OFFCURVE",
"1258 937 CURVE SMOOTH",
"1366 937 OFFCURVE",
"1413 901 OFFCURVE",
"1413 807 CURVE SMOOTH",
"1413 762 OFFCURVE",
"1404 702 OFFCURVE",
"1387 626 CURVE SMOOTH",
"1252 45 LINE SMOOTH",
"1251 39 OFFCURVE",
"1250 34 OFFCURVE",
"1250 30 CURVE SMOOTH",
"1250 10 OFFCURVE",
"1262 0 OFFCURVE",
"1287 0 CURVE SMOOTH",
"1373 0 LINE SMOOTH",
"1403 0 OFFCURVE",
"1421 15 OFFCURVE",
"1428 45 CURVE SMOOTH",
"1576 684 LINE SMOOTH",
"1586 729 OFFCURVE",
"1591 771 OFFCURVE",
"1591 809 CURVE SMOOTH",
"1591 974 OFFCURVE",
"1488 1067 OFFCURVE",
"1343 1067 CURVE SMOOTH",
"1190 1067 OFFCURVE",
"1054 940 OFFCURVE",
"972 833 CURVE",
"968 833 LINE",
"968 957 OFFCURVE",
"880 1067 OFFCURVE",
"733 1067 CURVE SMOOTH",
"614 1067 OFFCURVE",
"481 979 OFFCURVE",
"405 885 CURVE",
"401 885 LINE",
"428 1005 LINE SMOOTH",
"429 1010 OFFCURVE",
"430 1015 OFFCURVE",
"430 1020 CURVE SMOOTH",
"430 1040 OFFCURVE",
"417 1050 OFFCURVE",
"393 1050 CURVE SMOOTH",
"309 1050 LINE SMOOTH",
"279 1050 OFFCURVE",
"261 1035 OFFCURVE",
"254 1005 CURVE SMOOTH",
"32 45 LINE SMOOTH",
"31 39 OFFCURVE",
"30 34 OFFCURVE",
"30 30 CURVE SMOOTH",
"30 10 OFFCURVE",
"42 0 OFFCURVE",
"67 0 CURVE SMOOTH"
);
}
);
width = 1678;
},
{
layerId = "18E77EB5-4A27-4F30-B34A-BA542DA126C8";
paths = (
{
closed = 1;
nodes = (
"236 0 LINE SMOOTH",
"276 0 OFFCURVE",
"301 20 OFFCURVE",
"310 60 CURVE SMOOTH",
"391 412 LINE SMOOTH",
"465 735 OFFCURVE",
"594 874 OFFCURVE",
"684 874 CURVE SMOOTH",
"744 874 OFFCURVE",
"770 835 OFFCURVE",
"770 755 CURVE",
"769 698 OFFCURVE",
"757 613 OFFCURVE",
"731 500 CURVE SMOOTH",
"630 60 LINE SMOOTH",
"628 52 OFFCURVE",
"627 46 OFFCURVE",
"627 40 CURVE SMOOTH",
"627 13 OFFCURVE",
"643 0 OFFCURVE",
"676 0 CURVE SMOOTH",
"836 0 LINE SMOOTH",
"876 0 OFFCURVE",
"901 20 OFFCURVE",
"910 60 CURVE SMOOTH",
"991 412 LINE SMOOTH",
"1037 611 OFFCURVE",
"1086 738 OFFCURVE",
"1137 792 CURVE SMOOTH",
"1188 847 OFFCURVE",
"1237 874 OFFCURVE",
"1284 874 CURVE SMOOTH",
"1344 874 OFFCURVE",
"1371 837 OFFCURVE",
"1371 753 CURVE SMOOTH",
"1371 697 OFFCURVE",
"1359 621 OFFCURVE",
"1336 520 CURVE SMOOTH",
"1230 60 LINE SMOOTH",
"1228 52 OFFCURVE",
"1227 46 OFFCURVE",
"1227 40 CURVE SMOOTH",
"1227 13 OFFCURVE",
"1243 0 OFFCURVE",
"1276 0 CURVE SMOOTH",
"1436 0 LINE SMOOTH",
"1476 0 OFFCURVE",
"1501 20 OFFCURVE",
"1510 60 CURVE SMOOTH",
"1635 600 LINE SMOOTH",
"1652 672 OFFCURVE",
"1660 734 OFFCURVE",
"1660 788 CURVE SMOOTH",
"1660 986 OFFCURVE",
"1526 1070 OFFCURVE",
"1392 1070 CURVE SMOOTH",
"1220 1070 OFFCURVE",
"1107 988 OFFCURVE",
"1010 839 CURVE",
"1006 839 LINE",
"1006 953 OFFCURVE",
"940 1070 OFFCURVE",
"772 1070 CURVE SMOOTH",
"671 1070 OFFCURVE",
"567 990 OFFCURVE",
"506 900 CURVE",
"502 900 LINE",
"523 990 LINE SMOOTH",
"525 997 OFFCURVE",
"525 1004 OFFCURVE",
"525 1010 CURVE SMOOTH",
"525 1036 OFFCURVE",
"509 1050 OFFCURVE",
"476 1050 CURVE SMOOTH",
"318 1050 LINE SMOOTH",
"279 1050 OFFCURVE",
"254 1030 OFFCURVE",
"245 990 CURVE SMOOTH",
"30 60 LINE SMOOTH",
"28 52 OFFCURVE",
"27 46 OFFCURVE",
"27 40 CURVE SMOOTH",
"27 13 OFFCURVE",
"43 0 OFFCURVE",
"76 0 CURVE SMOOTH"
);
}
);
width = 1750;
}
);
unicode = 006D;
},
{
glyphname = n;
lastChange = "2016-10-15 02:32:41 +0000";
layers = (
{
layerId = UUID0;
paths = (
{
closed = 1;
nodes = (
"153 0 LINE SMOOTH",
"183 0 OFFCURVE",
"201 15 OFFCURVE",
"208 45 CURVE SMOOTH",
"326 554 LINE SMOOTH",
"371 750 OFFCURVE",
"518 937 OFFCURVE",
"678 937 CURVE SMOOTH",
"790 937 OFFCURVE",
"861 904 OFFCURVE",
"861 792 CURVE",
"860 751 OFFCURVE",
"854 699 OFFCURVE",
"839 636 CURVE SMOOTH",
"702 45 LINE SMOOTH",
"701 39 OFFCURVE",
"700 34 OFFCURVE",
"700 30 CURVE SMOOTH",
"700 10 OFFCURVE",
"712 0 OFFCURVE",
"737 0 CURVE SMOOTH",
"823 0 LINE SMOOTH",
"853 0 OFFCURVE",
"871 15 OFFCURVE",
"878 45 CURVE SMOOTH",
"1026 684 LINE SMOOTH",
"1037 731 OFFCURVE",
"1042 774 OFFCURVE",
"1042 813 CURVE SMOOTH",
"1042 977 OFFCURVE",
"953 1067 OFFCURVE",
"773 1067 CURVE SMOOTH",
"614 1067 OFFCURVE",
"482 981 OFFCURVE",
"405 885 CURVE",
"401 885 LINE",
"428 1005 LINE SMOOTH",
"429 1010 OFFCURVE",
"430 1015 OFFCURVE",
"430 1020 CURVE SMOOTH",
"430 1040 OFFCURVE",
"417 1050 OFFCURVE",
"393 1050 CURVE SMOOTH",
"309 1050 LINE SMOOTH",
"279 1050 OFFCURVE",
"261 1035 OFFCURVE",
"254 1005 CURVE SMOOTH",
"32 45 LINE SMOOTH",
"31 39 OFFCURVE",
"30 34 OFFCURVE",
"30 30 CURVE SMOOTH",
"30 10 OFFCURVE",
"42 0 OFFCURVE",
"67 0 CURVE SMOOTH"
);
}
);
width = 1128;
},
{
layerId = "18E77EB5-4A27-4F30-B34A-BA542DA126C8";
paths = (
{
closed = 1;
nodes = (
"236 0 LINE SMOOTH",
"276 0 OFFCURVE",
"301 20 OFFCURVE",
"310 60 CURVE SMOOTH",
"393 424 LINE SMOOTH",
"459 712 OFFCURVE",
"568 874 OFFCURVE",
"709 874 CURVE SMOOTH",
"785 874 OFFCURVE",
"824 838 OFFCURVE",
"824 757 CURVE SMOOTH",
"824 708 OFFCURVE",
"813 636 OFFCURVE",
"791 542 CURVE SMOOTH",
"680 60 LINE SMOOTH",
"678 52 OFFCURVE",
"677 46 OFFCURVE",
"677 40 CURVE SMOOTH",
"677 13 OFFCURVE",
"693 0 OFFCURVE",
"726 0 CURVE SMOOTH",
"886 0 LINE SMOOTH",
"926 0 OFFCURVE",
"951 20 OFFCURVE",
"960 60 CURVE SMOOTH",
"1088 614 LINE SMOOTH",
"1103 679 OFFCURVE",
"1110 736 OFFCURVE",
"1110 787 CURVE SMOOTH",
"1110 981 OFFCURVE",
"981 1070 OFFCURVE",
"833 1070 CURVE SMOOTH",
"699 1070 OFFCURVE",
"616 1040 OFFCURVE",
"508 912 CURVE",
"504 912 LINE",
"523 990 LINE SMOOTH",
"525 998 OFFCURVE",
"526 1005 OFFCURVE",
"526 1011 CURVE SMOOTH",
"526 1037 OFFCURVE",
"509 1050 OFFCURVE",
"476 1050 CURVE SMOOTH",
"318 1050 LINE SMOOTH",
"279 1050 OFFCURVE",
"254 1030 OFFCURVE",
"245 990 CURVE SMOOTH",
"30 60 LINE SMOOTH",
"28 52 OFFCURVE",
"27 46 OFFCURVE",
"27 40 CURVE SMOOTH",
"27 13 OFFCURVE",
"43 0 OFFCURVE",
"76 0 CURVE SMOOTH"
);
}
);
width = 1200;
}
);
unicode = 006E;
},
{
glyphname = eng;
lastChange = "2016-10-15 02:32:41 +0000";
layers = (
{
layerId = UUID0;
paths = (
{
closed = 1;
nodes = (
"153 0 LINE SMOOTH",
"183 0 OFFCURVE",
"201 15 OFFCURVE",
"208 45 CURVE SMOOTH",
"326 554 LINE SMOOTH",
"371 750 OFFCURVE",
"518 937 OFFCURVE",
"678 937 CURVE SMOOTH",
"790 937 OFFCURVE",
"861 904 OFFCURVE",
"861 792 CURVE",
"860 751 OFFCURVE",
"854 699 OFFCURVE",
"839 636 CURVE SMOOTH",
"692 6 LINE",
"637 -237 OFFCURVE",
"585 -287 OFFCURVE",
"508 -287 CURVE SMOOTH",
"471 -287 OFFCURVE",
"440 -281 OFFCURVE",
"417 -269 CURVE SMOOTH",
"413 -267 OFFCURVE",
"409 -266 OFFCURVE",
"406 -266 CURVE SMOOTH",
"397 -266 OFFCURVE",
"391 -272 OFFCURVE",
"388 -284 CURVE SMOOTH",
"363 -365 LINE",
"361 -369 OFFCURVE",
"361 -374 OFFCURVE",
"361 -377 CURVE SMOOTH",
"361 -406 OFFCURVE",
"423 -417 OFFCURVE",
"510 -417 CURVE SMOOTH",
"583 -417 OFFCURVE",
"649 -395 OFFCURVE",
"710 -352 CURVE SMOOTH",
"771 -309 OFFCURVE",
"816 -222 OFFCURVE",
"846 -93 CURVE SMOOTH",
"1026 684 LINE SMOOTH",
"1037 731 OFFCURVE",
"1042 774 OFFCURVE",
"1042 813 CURVE SMOOTH",
"1042 977 OFFCURVE",
"953 1067 OFFCURVE",
"773 1067 CURVE SMOOTH",
"614 1067 OFFCURVE",
"482 981 OFFCURVE",
"405 885 CURVE",
"401 885 LINE",
"428 1005 LINE SMOOTH",
"429 1010 OFFCURVE",
"430 1015 OFFCURVE",
"430 1020 CURVE SMOOTH",
"430 1040 OFFCURVE",
"417 1050 OFFCURVE",
"393 1050 CURVE SMOOTH",
"309 1050 LINE SMOOTH",
"279 1050 OFFCURVE",
"261 1035 OFFCURVE",
"254 1005 CURVE SMOOTH",
"32 45 LINE SMOOTH",
"31 39 OFFCURVE",
"30 34 OFFCURVE",
"30 30 CURVE SMOOTH",
"30 10 OFFCURVE",
"42 0 OFFCURVE",
"67 0 CURVE SMOOTH"
);
}
);
width = 1128;
},
{
layerId = "18E77EB5-4A27-4F30-B34A-BA542DA126C8";
paths = (
{
closed = 1;
nodes = (
"236 0 LINE SMOOTH",
"276 0 OFFCURVE",
"301 20 OFFCURVE",
"310 60 CURVE SMOOTH",
"393 424 LINE SMOOTH",
"459 712 OFFCURVE",
"568 874 OFFCURVE",
"709 874 CURVE SMOOTH",
"785 874 OFFCURVE",
"824 838 OFFCURVE",
"824 757 CURVE SMOOTH",
"824 708 OFFCURVE",
"813 636 OFFCURVE",
"791 542 CURVE SMOOTH",
"672 26 LINE SMOOTH",
"635 -134 OFFCURVE",
"588 -224 OFFCURVE",
"491 -224 CURVE SMOOTH",
"479 -224 OFFCURVE",
"457 -221 OFFCURVE",
"424 -215 CURVE SMOOTH",
"419 -214 OFFCURVE",
"415 -214 OFFCURVE",
"411 -214 CURVE SMOOTH",
"390 -214 OFFCURVE",
"377 -224 OFFCURVE",
"370 -243 CURVE SMOOTH",
"333 -349 LINE SMOOTH",
"330 -358 OFFCURVE",
"328 -367 OFFCURVE",
"328 -374 CURVE SMOOTH",
"328 -415 OFFCURVE",
"409 -420 OFFCURVE",
"495 -420 CURVE SMOOTH",
"609 -420 OFFCURVE",
"703 -392 OFFCURVE",
"777 -336 CURVE SMOOTH",
"851 -280 OFFCURVE",
"907 -169 OFFCURVE",
"945 -4 CURVE SMOOTH",
"1088 614 LINE SMOOTH",
"1103 679 OFFCURVE",
"1110 736 OFFCURVE",
"1110 787 CURVE SMOOTH",
"1110 981 OFFCURVE",
"981 1070 OFFCURVE",
"833 1070 CURVE SMOOTH",
"699 1070 OFFCURVE",
"616 1040 OFFCURVE",
"508 912 CURVE",
"504 912 LINE",
"523 990 LINE SMOOTH",
"525 998 OFFCURVE",
"526 1005 OFFCURVE",
"526 1011 CURVE SMOOTH",
"526 1037 OFFCURVE",
"509 1050 OFFCURVE",
"476 1050 CURVE SMOOTH",
"318 1050 LINE SMOOTH",
"279 1050 OFFCURVE",
"254 1030 OFFCURVE",
"245 990 CURVE SMOOTH",
"30 60 LINE SMOOTH",
"28 52 OFFCURVE",
"27 46 OFFCURVE",
"27 40 CURVE SMOOTH",
"27 13 OFFCURVE",
"43 0 OFFCURVE",
"76 0 CURVE SMOOTH"
);
}
);
width = 1200;
}
);
unicode = 014B;
},
{
glyphname = o;
lastChange = "2016-10-15 02:32:41 +0000";
layers = (
{
layerId = UUID0;
paths = (
{
closed = 1;
nodes = (
"68 302 OFFCURVE",
"99 207 OFFCURVE",
"161 117 CURVE SMOOTH",
"223 28 OFFCURVE",
"332 -17 OFFCURVE",
"488 -17 CURVE SMOOTH",
"665 -17 OFFCURVE",
"807 50 OFFCURVE",
"916 183 CURVE SMOOTH",
"1025 317 OFFCURVE",
"1080 472 OFFCURVE",
"1080 648 CURVE SMOOTH",
"1080 748 OFFCURVE",
"1049 843 OFFCURVE",
"987 932 CURVE SMOOTH",
"925 1022 OFFCURVE",
"816 1067 OFFCURVE",
"660 1067 CURVE SMOOTH",
"483 1067 OFFCURVE",
"340 1000 OFFCURVE",
"231 866 CURVE SMOOTH",
"122 733 OFFCURVE",
"68 578 OFFCURVE",
"68 402 CURVE SMOOTH"
);
},
{
closed = 1;
nodes = (
"254 746 OFFCURVE",
"443 937 OFFCURVE",
"647 937 CURVE SMOOTH",
"821 937 OFFCURVE",
"894 827 OFFCURVE",
"894 663 CURVE SMOOTH",
"894 307 OFFCURVE",
"706 113 OFFCURVE",
"501 113 CURVE SMOOTH",
"324 113 OFFCURVE",
"254 223 OFFCURVE",
"254 387 CURVE SMOOTH"
);
}
);
width = 1148;
},
{
layerId = "18E77EB5-4A27-4F30-B34A-BA542DA126C8";
paths = (
{
closed = 1;
nodes = (
"58 295 OFFCURVE",
"91 194 OFFCURVE",
"158 108 CURVE SMOOTH",
"224 23 OFFCURVE",
"345 -20 OFFCURVE",
"518 -20 CURVE SMOOTH",
"718 -20 OFFCURVE",
"873 52 OFFCURVE",
"984 196 CURVE SMOOTH",
"1095 341 OFFCURVE",
"1150 488 OFFCURVE",
"1150 638 CURVE SMOOTH",
"1150 755 OFFCURVE",
"1117 856 OFFCURVE",
"1050 941 CURVE SMOOTH",
"982 1027 OFFCURVE",
"863 1070 OFFCURVE",
"690 1070 CURVE SMOOTH",
"490 1070 OFFCURVE",
"335 998 OFFCURVE",
"224 853 CURVE SMOOTH",
"113 709 OFFCURVE",
"58 562 OFFCURVE",
"58 412 CURVE SMOOTH"
);
},
{
closed = 1;
nodes = (
"354 696 OFFCURVE",
"509 874 OFFCURVE",
"672 874 CURVE SMOOTH",
"785 874 OFFCURVE",
"854 796 OFFCURVE",
"854 663 CURVE SMOOTH",
"854 359 OFFCURVE",
"702 176 OFFCURVE",
"536 176 CURVE SMOOTH",
"423 176 OFFCURVE",
"354 254 OFFCURVE",
"354 387 CURVE SMOOTH"
);
}
);
width = 1206;
}
);
unicode = 006F;
},
{
glyphname = oslash;
lastChange = "2016-10-15 02:32:41 +0000";
layers = (
{
layerId = UUID0;
paths = (
{
closed = 1;
nodes = (
"68 336 OFFCURVE",
"82 272 OFFCURVE",
"109 211 CURVE",
"16 131 LINE SMOOTH",
"2 119 OFFCURVE",
"-4 108 OFFCURVE",
"-4 97 CURVE SMOOTH",
"-4 89 OFFCURVE",
"-1 82 OFFCURVE",
"5 75 CURVE SMOOTH",
"44 31 LINE SMOOTH",
"52 22 OFFCURVE",
"60 18 OFFCURVE",
"69 18 CURVE SMOOTH",
"79 18 OFFCURVE",
"90 23 OFFCURVE",
"102 33 CURVE SMOOTH",
"177 97 LINE",
"240 21 OFFCURVE",
"344 -17 OFFCURVE",
"488 -17 CURVE SMOOTH",
"665 -17 OFFCURVE",
"807 50 OFFCURVE",
"916 183 CURVE SMOOTH",
"1025 317 OFFCURVE",
"1080 472 OFFCURVE",
"1080 648 CURVE SMOOTH",
"1080 714 OFFCURVE",
"1066 778 OFFCURVE",
"1039 839 CURVE",
"1132 919 LINE SMOOTH",
"1146 931 OFFCURVE",
"1152 942 OFFCURVE",
"1152 953 CURVE SMOOTH",
"1152 961 OFFCURVE",
"1149 968 OFFCURVE",
"1143 975 CURVE SMOOTH",
"1104 1019 LINE SMOOTH",
"1096 1028 OFFCURVE",
"1088 1032 OFFCURVE",
"1079 1032 CURVE SMOOTH",
"1069 1032 OFFCURVE",
"1058 1027 OFFCURVE",
"1046 1017 CURVE SMOOTH",
"971 953 LINE",
"908 1029 OFFCURVE",
"804 1067 OFFCURVE",
"660 1067 CURVE SMOOTH",
"483 1067 OFFCURVE",
"340 1000 OFFCURVE",
"231 866 CURVE SMOOTH",
"122 733 OFFCURVE",
"68 578 OFFCURVE",
"68 402 CURVE SMOOTH"
);
},
{
closed = 1;
nodes = (
"254 746 OFFCURVE",
"443 937 OFFCURVE",
"647 937 CURVE SMOOTH",
"740 937 OFFCURVE",
"807 907 OFFCURVE",
"847 846 CURVE",
"256 338 LINE",
"255 354 OFFCURVE",
"254 370 OFFCURVE",
"254 387 CURVE SMOOTH"
);
},
{
closed = 1;
nodes = (
"892 712 LINE",
"893 697 OFFCURVE",
"894 680 OFFCURVE",
"894 663 CURVE SMOOTH",
"894 307 OFFCURVE",
"706 113 OFFCURVE",
"501 113 CURVE SMOOTH",
"408 113 OFFCURVE",
"341 143 OFFCURVE",
"301 204 CURVE"
);
}
);
width = 1148;
},
{
layerId = "18E77EB5-4A27-4F30-B34A-BA542DA126C8";
paths = (
{
closed = 1;
nodes = (
"58 340 OFFCURVE",
"71 274 OFFCURVE",
"96 213 CURVE",
"40 164 LINE SMOOTH",
"22 148 OFFCURVE",
"13 133 OFFCURVE",
"13 118 CURVE SMOOTH",
"13 108 OFFCURVE",
"18 97 OFFCURVE",
"27 87 CURVE SMOOTH",
"94 12 LINE SMOOTH",
"105 -1 OFFCURVE",
"118 -7 OFFCURVE",
"130 -7 CURVE SMOOTH",
"143 -7 OFFCURVE",
"157 0 OFFCURVE",
"172 13 CURVE SMOOTH",
"217 53 LINE",
"287 4 OFFCURVE",
"387 -20 OFFCURVE",
"518 -20 CURVE SMOOTH",
"718 -20 OFFCURVE",
"873 52 OFFCURVE",
"984 196 CURVE SMOOTH",
"1095 341 OFFCURVE",
"1150 488 OFFCURVE",
"1150 638 CURVE SMOOTH",
"1150 711 OFFCURVE",
"1137 777 OFFCURVE",
"1112 837 CURVE",
"1168 886 LINE SMOOTH",
"1186 902 OFFCURVE",
"1195 917 OFFCURVE",
"1195 931 CURVE SMOOTH",
"1195 942 OFFCURVE",
"1190 952 OFFCURVE",
"1181 963 CURVE SMOOTH",
"1114 1038 LINE SMOOTH",
"1103 1050 OFFCURVE",
"1090 1057 OFFCURVE",
"1078 1057 CURVE SMOOTH",
"1065 1057 OFFCURVE",
"1051 1050 OFFCURVE",
"1036 1037 CURVE SMOOTH",
"991 997 LINE",
"921 1046 OFFCURVE",
"821 1070 OFFCURVE",
"690 1070 CURVE SMOOTH",
"490 1070 OFFCURVE",
"335 998 OFFCURVE",
"224 853 CURVE SMOOTH",
"113 709 OFFCURVE",
"58 562 OFFCURVE",
"58 412 CURVE SMOOTH"
);
},
{
closed = 1;
nodes = (
"350 447 LINE SMOOTH",
"350 661 OFFCURVE",
"506 874 OFFCURVE",
"672 874 CURVE SMOOTH",
"727 874 OFFCURVE",
"769 859 OFFCURVE",
"797 828 CURVE",
"350 436 LINE"
);
},
{
closed = 1;
nodes = (
"858 614 LINE",
"858 603 LINE SMOOTH",
"858 391 OFFCURVE",
"703 176 OFFCURVE",
"536 176 CURVE SMOOTH",
"481 176 OFFCURVE",
"439 191 OFFCURVE",
"411 222 CURVE"
);
}
);
width = 1206;
}
);
unicode = 00F8;
},
{
glyphname = p;
lastChange = "2016-10-15 02:32:41 +0000";
layers = (
{
layerId = UUID0;
paths = (
{
closed = 1;
nodes = (
"61 -400 LINE SMOOTH",
"91 -400 OFFCURVE",
"109 -385 OFFCURVE",
"116 -355 CURVE SMOOTH",
"211 57 LINE SMOOTH",
"216 79 OFFCURVE",
"220 99 OFFCURVE",
"223 118 CURVE",
"225 118 LINE",
"294 27 OFFCURVE",
"360 -17 OFFCURVE",
"511 -17 CURVE SMOOTH",
"656 -17 OFFCURVE",
"783 55 OFFCURVE",
"890 199 CURVE SMOOTH",
"997 344 OFFCURVE",
"1051 501 OFFCURVE",
"1051 671 CURVE SMOOTH",
"1051 780 OFFCURVE",
"1025 872 OFFCURVE",
"976 950 CURVE SMOOTH",
"926 1028 OFFCURVE",
"839 1067 OFFCURVE",
"712 1067 CURVE SMOOTH",
"609 1067 OFFCURVE",
"459 989 OFFCURVE",
"402 885 CURVE",
"400 885 LINE",
"422 1005 LINE SMOOTH",
"423 1010 OFFCURVE",
"423 1015 OFFCURVE",
"423 1019 CURVE SMOOTH",
"423 1040 OFFCURVE",
"413 1050 OFFCURVE",
"393 1050 CURVE SMOOTH",
"309 1050 LINE SMOOTH",
"279 1050 OFFCURVE",
"261 1035 OFFCURVE",
"254 1005 CURVE SMOOTH",
"-60 -355 LINE SMOOTH",
"-61 -361 OFFCURVE",
"-62 -366 OFFCURVE",
"-62 -370 CURVE SMOOTH",
"-62 -390 OFFCURVE",
"-50 -400 OFFCURVE",
"-25 -400 CURVE SMOOTH"
);
},
{
closed = 1;
nodes = (
"330 570 LINE SMOOTH",
"370 741 OFFCURVE",
"533 937 OFFCURVE",
"662 937 CURVE SMOOTH",
"815 937 OFFCURVE",
"865 812 OFFCURVE",
"865 678 CURVE SMOOTH",
"865 383 OFFCURVE",
"701 113 OFFCURVE",
"497 113 CURVE SMOOTH",
"346 113 OFFCURVE",
"279 155 OFFCURVE",
"265 290 CURVE"
);
}
);
width = 1119;
},
{
layerId = "18E77EB5-4A27-4F30-B34A-BA542DA126C8";
paths = (
{
closed = 1;
nodes = (
"144 -400 LINE SMOOTH",
"184 -400 OFFCURVE",
"209 -380 OFFCURVE",
"218 -340 CURVE SMOOTH",
"300 16 LINE SMOOTH",
"306 41 OFFCURVE",
"311 68 OFFCURVE",
"314 96 CURVE",
"318 96 LINE",
"384 -9 OFFCURVE",
"502 -20 OFFCURVE",
"596 -20 CURVE SMOOTH",
"737 -20 OFFCURVE",
"861 48 OFFCURVE",
"968 184 CURVE SMOOTH",
"1075 320 OFFCURVE",
"1129 476 OFFCURVE",
"1129 651 CURVE SMOOTH",
"1129 757 OFFCURVE",
"1101 853 OFFCURVE",
"1046 940 CURVE SMOOTH",
"991 1027 OFFCURVE",
"898 1070 OFFCURVE",
"766 1070 CURVE SMOOTH",
"666 1070 OFFCURVE",
"604 1027 OFFCURVE",
"507 912 CURVE",
"503 912 LINE",
"517 990 LINE SMOOTH",
"518 997 OFFCURVE",
"519 1003 OFFCURVE",
"519 1009 CURVE SMOOTH",
"519 1036 OFFCURVE",
"505 1050 OFFCURVE",
"476 1050 CURVE SMOOTH",
"318 1050 LINE SMOOTH",
"279 1050 OFFCURVE",
"254 1030 OFFCURVE",
"245 990 CURVE SMOOTH",
"-62 -340 LINE SMOOTH",
"-64 -348 OFFCURVE",
"-65 -354 OFFCURVE",
"-65 -360 CURVE SMOOTH",
"-65 -387 OFFCURVE",
"-49 -400 OFFCURVE",
"-16 -400 CURVE SMOOTH"
);
},
{
closed = 1;
nodes = (
"418 528 LINE SMOOTH",
"470 753 OFFCURVE",
"596 874 OFFCURVE",
"688 874 CURVE SMOOTH",
"779 874 OFFCURVE",
"833 809 OFFCURVE",
"833 670 CURVE SMOOTH",
"833 425 OFFCURVE",
"731 176 OFFCURVE",
"548 176 CURVE SMOOTH",
"412 176 OFFCURVE",
"381 243 OFFCURVE",
"381 370 CURVE"
);
}
);
width = 1192;
}
);
unicode = 0070;
},
{
glyphname = thorn;
lastChange = "2016-10-15 02:32:41 +0000";
layers = (
{
layerId = UUID0;
paths = (
{
closed = 1;
nodes = (
"61 -400 LINE SMOOTH",
"91 -400 OFFCURVE",
"109 -385 OFFCURVE",
"116 -355 CURVE SMOOTH",
"211 57 LINE SMOOTH",
"216 79 OFFCURVE",
"220 99 OFFCURVE",
"223 118 CURVE",
"225 118 LINE",
"294 27 OFFCURVE",
"360 -17 OFFCURVE",
"511 -17 CURVE SMOOTH",
"656 -17 OFFCURVE",
"783 55 OFFCURVE",
"890 199 CURVE SMOOTH",
"997 344 OFFCURVE",
"1051 501 OFFCURVE",
"1051 671 CURVE SMOOTH",
"1051 780 OFFCURVE",
"1025 872 OFFCURVE",
"976 950 CURVE SMOOTH",
"926 1028 OFFCURVE",
"839 1067 OFFCURVE",
"712 1067 CURVE SMOOTH",
"609 1067 OFFCURVE",
"459 989 OFFCURVE",
"402 885 CURVE",
"400 885 LINE",
"416 946 LINE",
"528 1431 LINE SMOOTH",
"529 1436 OFFCURVE",
"530 1441 OFFCURVE",
"530 1446 CURVE SMOOTH",
"530 1466 OFFCURVE",
"517 1476 OFFCURVE",
"493 1476 CURVE SMOOTH",
"407 1476 LINE SMOOTH",
"377 1476 OFFCURVE",
"359 1461 OFFCURVE",
"352 1431 CURVE SMOOTH",
"-60 -355 LINE SMOOTH",
"-61 -361 OFFCURVE",
"-62 -366 OFFCURVE",
"-62 -370 CURVE SMOOTH",
"-62 -390 OFFCURVE",
"-50 -400 OFFCURVE",
"-25 -400 CURVE SMOOTH"
);
},
{
closed = 1;
nodes = (
"330 570 LINE SMOOTH",
"370 741 OFFCURVE",
"533 937 OFFCURVE",
"662 937 CURVE SMOOTH",
"815 937 OFFCURVE",
"865 812 OFFCURVE",
"865 678 CURVE SMOOTH",
"865 383 OFFCURVE",
"701 113 OFFCURVE",
"497 113 CURVE SMOOTH",
"346 113 OFFCURVE",
"279 155 OFFCURVE",
"265 290 CURVE"
);
}
);
width = 1119;
},
{
layerId = "18E77EB5-4A27-4F30-B34A-BA542DA126C8";
paths = (
{
closed = 1;
nodes = (
"144 -400 LINE SMOOTH",
"184 -400 OFFCURVE",
"209 -380 OFFCURVE",
"218 -340 CURVE SMOOTH",
"300 16 LINE SMOOTH",
"306 41 OFFCURVE",
"311 68 OFFCURVE",
"314 96 CURVE",
"318 96 LINE",
"384 -9 OFFCURVE",
"502 -20 OFFCURVE",
"596 -20 CURVE SMOOTH",
"737 -20 OFFCURVE",
"861 48 OFFCURVE",
"968 184 CURVE SMOOTH",
"1075 320 OFFCURVE",
"1129 476 OFFCURVE",
"1129 651 CURVE SMOOTH",
"1129 757 OFFCURVE",
"1101 853 OFFCURVE",
"1046 940 CURVE SMOOTH",
"991 1027 OFFCURVE",
"898 1070 OFFCURVE",
"766 1070 CURVE SMOOTH",
"666 1070 OFFCURVE",
"604 1027 OFFCURVE",
"507 912 CURVE",
"503 912 LINE",
"512 938 OFFCURVE",
"520 965 OFFCURVE",
"526 992 CURVE SMOOTH",
"623 1416 LINE SMOOTH",
"625 1423 OFFCURVE",
"625 1430 OFFCURVE",
"625 1436 CURVE SMOOTH",
"625 1463 OFFCURVE",
"609 1476 OFFCURVE",
"577 1476 CURVE SMOOTH",
"417 1476 LINE SMOOTH",
"377 1476 OFFCURVE",
"352 1456 OFFCURVE",
"343 1416 CURVE SMOOTH",
"-62 -340 LINE SMOOTH",
"-64 -348 OFFCURVE",
"-65 -354 OFFCURVE",
"-65 -360 CURVE SMOOTH",
"-65 -387 OFFCURVE",
"-49 -400 OFFCURVE",
"-16 -400 CURVE SMOOTH"
);
},
{
closed = 1;
nodes = (
"418 528 LINE SMOOTH",
"470 753 OFFCURVE",
"596 874 OFFCURVE",
"688 874 CURVE SMOOTH",
"779 874 OFFCURVE",
"833 809 OFFCURVE",
"833 670 CURVE SMOOTH",
"833 425 OFFCURVE",
"731 176 OFFCURVE",
"548 176 CURVE SMOOTH",
"412 176 OFFCURVE",
"381 243 OFFCURVE",
"381 370 CURVE"
);
}
);
width = 1192;
}
);
unicode = 00FE;
},
{
glyphname = q;
lastChange = "2016-10-15 02:32:41 +0000";
layers = (
{
layerId = UUID0;
paths = (
{
closed = 1;
nodes = (
"70 270 OFFCURVE",
"94 176 OFFCURVE",
"144 99 CURVE SMOOTH",
"193 22 OFFCURVE",
"282 -17 OFFCURVE",
"409 -17 CURVE SMOOTH",
"513 -17 OFFCURVE",
"662 61 OFFCURVE",
"719 165 CURVE",
"721 165 LINE",
"716 149 OFFCURVE",
"711 129 OFFCURVE",
"705 104 CURVE SMOOTH",
"599 -355 LINE SMOOTH",
"598 -361 OFFCURVE",
"597 -366 OFFCURVE",
"597 -370 CURVE SMOOTH",
"597 -390 OFFCURVE",
"609 -400 OFFCURVE",
"634 -400 CURVE SMOOTH",
"720 -400 LINE SMOOTH",
"750 -400 OFFCURVE",
"768 -385 OFFCURVE",
"775 -355 CURVE SMOOTH",
"1089 1005 LINE SMOOTH",
"1090 1010 OFFCURVE",
"1091 1015 OFFCURVE",
"1091 1020 CURVE SMOOTH",
"1091 1040 OFFCURVE",
"1078 1050 OFFCURVE",
"1054 1050 CURVE SMOOTH",
"970 1050 LINE SMOOTH",
"947 1050 OFFCURVE",
"930 1035 OFFCURVE",
"921 1005 CURVE SMOOTH",
"898 932 LINE",
"896 932 LINE",
"827 1023 OFFCURVE",
"759 1067 OFFCURVE",
"610 1067 CURVE SMOOTH",
"465 1067 OFFCURVE",
"338 995 OFFCURVE",
"231 850 CURVE SMOOTH",
"124 706 OFFCURVE",
"70 549 OFFCURVE",
"70 379 CURVE SMOOTH"
);
},
{
closed = 1;
nodes = (
"256 667 OFFCURVE",
"421 937 OFFCURVE",
"624 937 CURVE SMOOTH",
"771 937 OFFCURVE",
"842 896 OFFCURVE",
"856 760 CURVE",
"791 480 LINE SMOOTH",
"752 312 OFFCURVE",
"590 113 OFFCURVE",
"459 113 CURVE SMOOTH",
"304 113 OFFCURVE",
"256 239 OFFCURVE",
"256 372 CURVE SMOOTH"
);
}
);
width = 1119;
},
{
layerId = "18E77EB5-4A27-4F30-B34A-BA542DA126C8";
paths = (
{
closed = 1;
nodes = (
"66 293 OFFCURVE",
"93 197 OFFCURVE",
"148 110 CURVE SMOOTH",
"203 23 OFFCURVE",
"297 -20 OFFCURVE",
"429 -20 CURVE SMOOTH",
"528 -20 OFFCURVE",
"591 23 OFFCURVE",
"688 138 CURVE",
"692 138 LINE",
"684 113 OFFCURVE",
"677 87 OFFCURVE",
"670 58 CURVE SMOOTH",
"578 -340 LINE SMOOTH",
"576 -348 OFFCURVE",
"575 -354 OFFCURVE",
"575 -360 CURVE SMOOTH",
"575 -387 OFFCURVE",
"591 -400 OFFCURVE",
"624 -400 CURVE SMOOTH",
"784 -400 LINE SMOOTH",
"824 -400 OFFCURVE",
"849 -380 OFFCURVE",
"858 -340 CURVE SMOOTH",
"1165 990 LINE SMOOTH",
"1167 997 OFFCURVE",
"1167 1004 OFFCURVE",
"1167 1010 CURVE SMOOTH",
"1167 1037 OFFCURVE",
"1151 1050 OFFCURVE",
"1118 1050 CURVE SMOOTH",
"960 1050 LINE SMOOTH",
"929 1050 OFFCURVE",
"906 1030 OFFCURVE",
"893 990 CURVE SMOOTH",
"881 954 LINE",
"877 954 LINE",
"811 1058 OFFCURVE",
"693 1070 OFFCURVE",
"599 1070 CURVE SMOOTH",
"458 1070 OFFCURVE",
"333 1002 OFFCURVE",
"226 866 CURVE SMOOTH",
"119 730 OFFCURVE",
"66 574 OFFCURVE",
"66 399 CURVE SMOOTH"
);
},
{
closed = 1;
nodes = (
"362 625 OFFCURVE",
"464 874 OFFCURVE",
"647 874 CURVE SMOOTH",
"783 874 OFFCURVE",
"814 805 OFFCURVE",
"814 680 CURVE",
"777 522 LINE SMOOTH",
"725 300 OFFCURVE",
"600 176 OFFCURVE",
"507 176 CURVE SMOOTH",
"416 176 OFFCURVE",
"362 241 OFFCURVE",
"362 380 CURVE SMOOTH"
);
}
);
width = 1192;
}
);
unicode = 0071;
},
{
glyphname = r;
lastChange = "2016-10-15 02:32:41 +0000";
layers = (
{
layerId = UUID0;
paths = (
{
closed = 1;
nodes = (
"153 0 LINE SMOOTH",
"183 0 OFFCURVE",
"201 15 OFFCURVE",
"208 45 CURVE SMOOTH",
"315 504 LINE SMOOTH",
"338 604 OFFCURVE",
"387 700 OFFCURVE",
"462 795 CURVE SMOOTH",
"537 890 OFFCURVE",
"610 937 OFFCURVE",
"683 937 CURVE SMOOTH",
"709 937 OFFCURVE",
"734 929 OFFCURVE",
"760 929 CURVE SMOOTH",
"770 929 OFFCURVE",
"777 934 OFFCURVE",
"781 944 CURVE SMOOTH",
"814 1026 LINE SMOOTH",
"816 1031 OFFCURVE",
"817 1035 OFFCURVE",
"817 1039 CURVE SMOOTH",
"817 1059 OFFCURVE",
"780 1067 OFFCURVE",
"721 1067 CURVE SMOOTH",
"584 1067 OFFCURVE",
"491 996 OFFCURVE",
"395 845 CURVE",
"391 845 LINE",
"428 1005 LINE SMOOTH",
"429 1010 OFFCURVE",
"430 1015 OFFCURVE",
"430 1020 CURVE SMOOTH",
"430 1040 OFFCURVE",
"417 1050 OFFCURVE",
"393 1050 CURVE SMOOTH",
"309 1050 LINE SMOOTH",
"279 1050 OFFCURVE",
"261 1035 OFFCURVE",
"254 1005 CURVE SMOOTH",
"32 45 LINE SMOOTH",
"31 39 OFFCURVE",
"30 34 OFFCURVE",
"30 30 CURVE SMOOTH",
"30 10 OFFCURVE",
"42 0 OFFCURVE",
"67 0 CURVE SMOOTH"
);
}
);
width = 722;
},
{
layerId = "18E77EB5-4A27-4F30-B34A-BA542DA126C8";
paths = (
{
closed = 1;
nodes = (
"236 0 LINE SMOOTH",
"276 0 OFFCURVE",
"301 20 OFFCURVE",
"310 60 CURVE SMOOTH",
"376 347 LINE SMOOTH",
"453 685 OFFCURVE",
"600 874 OFFCURVE",
"720 874 CURVE SMOOTH",
"751 874 OFFCURVE",
"778 860 OFFCURVE",
"797 860 CURVE SMOOTH",
"814 860 OFFCURVE",
"826 870 OFFCURVE",
"833 889 CURVE SMOOTH",
"877 1008 LINE SMOOTH",
"880 1015 OFFCURVE",
"881 1022 OFFCURVE",
"881 1028 CURVE SMOOTH",
"881 1061 OFFCURVE",
"827 1070 OFFCURVE",
"769 1070 CURVE SMOOTH",
"651 1070 OFFCURVE",
"550 978 OFFCURVE",
"495 867 CURVE",
"491 867 LINE",
"519 990 LINE SMOOTH",
"521 997 OFFCURVE",
"521 1004 OFFCURVE",
"521 1010 CURVE SMOOTH",
"521 1037 OFFCURVE",
"505 1050 OFFCURVE",
"472 1050 CURVE SMOOTH",
"318 1050 LINE SMOOTH",
"279 1050 OFFCURVE",
"254 1030 OFFCURVE",
"245 990 CURVE SMOOTH",
"30 60 LINE SMOOTH",
"28 52 OFFCURVE",
"27 46 OFFCURVE",
"27 40 CURVE SMOOTH",
"27 13 OFFCURVE",
"43 0 OFFCURVE",
"76 0 CURVE SMOOTH"
);
}
);
width = 786;
}
);
unicode = 0072;
},
